<mxfile host="app.diagrams.net" modified="2022-01-22T13:43:40.667Z" agent="5.0 (X11; Linux x86_64) AppleWebKit/537.36 (KHTML, like Gecko) Chrome/95.0.4638.69 Safari/537.36" etag="cP-UJXupubAqmPSjBvUj" version="16.4.5" type="github">
  <diagram id="6a731a19-8d31-9384-78a2-239565b7b9f0" name="Page-1">
    <mxGraphModel dx="2591" dy="798" grid="1" gridSize="10" guides="1" tooltips="1" connect="1" arrows="1" fold="1" page="1" pageScale="1" pageWidth="1169" pageHeight="827" background="#003469" math="0" shadow="0">
      <root>
        <mxCell id="0" />
        <mxCell id="1" parent="0" />
        <mxCell id="2022" value="" style="rounded=1;whiteSpace=wrap;html=1;dashed=1;strokeColor=none;strokeWidth=2;fillColor=#E6E6E6;fontFamily=Verdana;fontSize=12;fontColor=#00BEF2" parent="1" vertex="1">
          <mxGeometry x="852" y="120" width="165" height="800" as="geometry" />
        </mxCell>
        <mxCell id="JQ6tBwWLcFrwbUFlZFzO-2174" value="" style="rounded=1;whiteSpace=wrap;html=1;dashed=1;strokeColor=none;strokeWidth=2;fillColor=#E6E6E6;fontFamily=Verdana;fontSize=12;fontColor=#00BEF2" vertex="1" parent="1">
          <mxGeometry x="452" y="119.5" width="158" height="801" as="geometry" />
        </mxCell>
        <mxCell id="JQ6tBwWLcFrwbUFlZFzO-2173" value="Common&lt;br&gt;Internal" style="whiteSpace=wrap;html=1;dashed=1;strokeColor=none;strokeWidth=2;fillColor=#3399FF;fontFamily=Helvetica;fontSize=18;fontColor=#FFFFFF;fontStyle=1" vertex="1" parent="1">
          <mxGeometry x="452" y="119" width="158" height="60" as="geometry" />
        </mxCell>
        <mxCell id="2019" value="" style="rounded=1;whiteSpace=wrap;html=1;dashed=1;strokeColor=none;strokeWidth=2;fillColor=#E6E6E6;fontFamily=Verdana;fontSize=12;fontColor=#00BEF2" parent="1" vertex="1">
          <mxGeometry x="28" y="120" width="165" height="800" as="geometry" />
        </mxCell>
        <mxCell id="2020" value="" style="rounded=1;whiteSpace=wrap;html=1;dashed=1;strokeColor=none;strokeWidth=2;fillColor=#E6E6E6;fontFamily=Verdana;fontSize=12;fontColor=#00BEF2" parent="1" vertex="1">
          <mxGeometry x="206" y="120" width="234" height="800" as="geometry" />
        </mxCell>
        <mxCell id="2021" value="" style="rounded=1;whiteSpace=wrap;html=1;dashed=1;strokeColor=none;strokeWidth=2;fillColor=#E6E6E6;fontFamily=Verdana;fontSize=12;fontColor=#00BEF2" parent="1" vertex="1">
          <mxGeometry x="626" y="120" width="200" height="800" as="geometry" />
        </mxCell>
        <mxCell id="2023" value="" style="rounded=1;whiteSpace=wrap;html=1;dashed=1;strokeColor=none;strokeWidth=2;fillColor=#E6E6E6;fontFamily=Verdana;fontSize=12;fontColor=#00BEF2" parent="1" vertex="1">
          <mxGeometry x="1036" y="120" width="119" height="800" as="geometry" />
        </mxCell>
        <mxCell id="2025" value="User" style="whiteSpace=wrap;html=1;dashed=1;strokeColor=none;strokeWidth=2;fillColor=#3399FF;fontFamily=Helvetica;fontSize=18;fontColor=#FFFFFF;fontStyle=1" parent="1" vertex="1">
          <mxGeometry x="28" y="120" width="165" height="60" as="geometry" />
        </mxCell>
        <mxCell id="2026" value="API Service" style="whiteSpace=wrap;html=1;dashed=1;strokeColor=none;strokeWidth=2;fillColor=#3399FF;fontFamily=Helvetica;fontSize=18;fontColor=#FFFFFF;fontStyle=1" parent="1" vertex="1">
          <mxGeometry x="206" y="120" width="234" height="60" as="geometry" />
        </mxCell>
        <mxCell id="2027" value="Service workers" style="whiteSpace=wrap;html=1;dashed=1;strokeColor=none;strokeWidth=2;fillColor=#3399FF;fontFamily=Helvetica;fontSize=18;fontColor=#FFFFFF;fontStyle=1" parent="1" vertex="1">
          <mxGeometry x="626" y="120" width="200" height="60" as="geometry" />
        </mxCell>
        <mxCell id="2028" value="&lt;span&gt;System CLI&lt;/span&gt;" style="whiteSpace=wrap;html=1;dashed=1;strokeColor=none;strokeWidth=2;fillColor=#3399FF;fontFamily=Helvetica;fontSize=18;fontColor=#FFFFFF;fontStyle=1" parent="1" vertex="1">
          <mxGeometry x="852" y="120" width="165" height="60" as="geometry" />
        </mxCell>
        <mxCell id="2029" value="Node&lt;br&gt;Management" style="whiteSpace=wrap;html=1;dashed=1;strokeColor=none;strokeWidth=2;fillColor=#3399FF;fontFamily=Helvetica;fontSize=18;fontColor=#FFFFFF;fontStyle=1" parent="1" vertex="1">
          <mxGeometry x="1036" y="120" width="119" height="60" as="geometry" />
        </mxCell>
        <mxCell id="2031" value="" style="shape=mxgraph.arrows.two_way_arrow_horizontal;html=1;verticalLabelPosition=bottom;verticalAlign=top;strokeWidth=2;strokeColor=none;dashed=1;fillColor=#FFFFFF;fontFamily=Verdana;fontSize=12;fontColor=#00BEF2" parent="1" vertex="1">
          <mxGeometry x="166" y="129" width="67" height="39" as="geometry" />
        </mxCell>
        <mxCell id="2032" value="" style="shape=mxgraph.arrows.two_way_arrow_horizontal;html=1;verticalLabelPosition=bottom;verticalAlign=top;strokeWidth=2;strokeColor=none;dashed=1;fillColor=#FFFFFF;fontFamily=Verdana;fontSize=12;fontColor=#00BEF2" parent="1" vertex="1">
          <mxGeometry x="585" y="128" width="67" height="39" as="geometry" />
        </mxCell>
        <mxCell id="2033" value="" style="shape=mxgraph.arrows.two_way_arrow_horizontal;html=1;verticalLabelPosition=bottom;verticalAlign=top;strokeWidth=2;strokeColor=none;dashed=1;fillColor=#FFFFFF;fontFamily=Verdana;fontSize=12;fontColor=#00BEF2" parent="1" vertex="1">
          <mxGeometry x="800" y="130" width="67" height="39" as="geometry" />
        </mxCell>
        <mxCell id="2036" value="" style="verticalLabelPosition=bottom;html=1;verticalAlign=top;strokeColor=none;fillColor=#003366;shape=mxgraph.azure.cloud_service;dashed=1;fontFamily=Helvetica;fontSize=18;fontColor=#FFFFFF;opacity=25" parent="1" vertex="1">
          <mxGeometry x="-310" y="1050" width="830" height="600" as="geometry" />
        </mxCell>
        <mxCell id="2041" value="Administrator" style="verticalLabelPosition=bottom;html=1;verticalAlign=top;strokeColor=none;fillColor=#3399FF;shape=mxgraph.azure.user;dashed=1;fontSize=14;fontColor=#004C99" parent="1" vertex="1">
          <mxGeometry x="96.03" y="276" width="47.5" height="50" as="geometry" />
        </mxCell>
        <mxCell id="2047" value="ACI API layers" style="text;html=1;strokeColor=none;fillColor=none;align=center;verticalAlign=middle;whiteSpace=wrap;overflow=hidden;dashed=1;fontSize=36;fontColor=#FFFFFF;fontFamily=Helvetica;fontStyle=1" parent="1" vertex="1">
          <mxGeometry x="40" y="50" width="1060" height="50" as="geometry" />
        </mxCell>
        <mxCell id="2050" value="Prometheus" style="verticalLabelPosition=bottom;html=1;verticalAlign=top;strokeColor=none;fillColor=#3399FF;shape=mxgraph.azure.sql_reporting;dashed=1;fontSize=14;fontColor=#004C99" parent="1" vertex="1">
          <mxGeometry x="515" y="580" width="40" height="50" as="geometry" />
        </mxCell>
        <mxCell id="JQ6tBwWLcFrwbUFlZFzO-2212" style="edgeStyle=orthogonalEdgeStyle;curved=1;rounded=0;orthogonalLoop=1;jettySize=auto;html=1;exitX=0.42;exitY=0;exitDx=0;exitDy=0;exitPerimeter=0;entryX=0.5;entryY=1;entryDx=0;entryDy=0;entryPerimeter=0;fontSize=12;fontColor=#004C99;strokeColor=default;strokeWidth=2;fillColor=default;" edge="1" parent="1" source="2051" target="2050">
          <mxGeometry relative="1" as="geometry" />
        </mxCell>
        <mxCell id="JQ6tBwWLcFrwbUFlZFzO-2214" value="" style="edgeStyle=orthogonalEdgeStyle;curved=1;rounded=0;orthogonalLoop=1;jettySize=auto;html=1;fontSize=12;fontColor=#004C99;startArrow=classic;startFill=0;strokeColor=default;strokeWidth=2;fillColor=default;entryX=0.5;entryY=1;entryDx=0;entryDy=0;" edge="1" parent="1" source="2051" target="2068">
          <mxGeometry relative="1" as="geometry">
            <mxPoint x="440" y="520" as="targetPoint" />
          </mxGeometry>
        </mxCell>
        <mxCell id="2051" value="Alertmanager" style="verticalLabelPosition=bottom;html=1;verticalAlign=top;strokeColor=none;fillColor=#3399FF;shape=mxgraph.azure.hdinsight;dashed=1;fontSize=14;fontColor=#004C99" parent="1" vertex="1">
          <mxGeometry x="529" y="689.5" width="50" height="50" as="geometry" />
        </mxCell>
        <mxCell id="2055" value="Storage Services Management" style="rounded=1;whiteSpace=wrap;html=1;dashed=1;strokeColor=none;strokeWidth=2;fillColor=#FFFFFF;fontFamily=Helvetica;fontSize=14;fontColor=#FFB366;opacity=75;verticalAlign=top;fontStyle=1" parent="1" vertex="1">
          <mxGeometry x="866" y="339" width="140" height="245" as="geometry" />
        </mxCell>
        <mxCell id="2056" value="ABGW tools" style="verticalLabelPosition=bottom;html=1;verticalAlign=top;strokeColor=none;fillColor=#999900;shape=mxgraph.azure.server_rack;dashed=1;fontFamily=Helvetica;fontSize=14;fontColor=#004C99" parent="1" vertex="1">
          <mxGeometry x="909.5" y="383" width="50" height="38" as="geometry" />
        </mxCell>
        <mxCell id="JQ6tBwWLcFrwbUFlZFzO-2202" style="edgeStyle=orthogonalEdgeStyle;curved=1;rounded=0;orthogonalLoop=1;jettySize=auto;html=1;exitX=1;exitY=0.25;exitDx=0;exitDy=0;fontSize=12;fontColor=#004C99;strokeColor=default;strokeWidth=2;fillColor=default;" edge="1" parent="1" source="2059" target="2063">
          <mxGeometry relative="1" as="geometry" />
        </mxCell>
        <mxCell id="JQ6tBwWLcFrwbUFlZFzO-2205" style="edgeStyle=orthogonalEdgeStyle;curved=1;rounded=0;orthogonalLoop=1;jettySize=auto;html=1;exitX=1;exitY=0.75;exitDx=0;exitDy=0;entryX=0;entryY=0.25;entryDx=0;entryDy=0;fontSize=12;fontColor=#004C99;strokeColor=default;strokeWidth=2;fillColor=default;" edge="1" parent="1" source="2059" target="JQ6tBwWLcFrwbUFlZFzO-2097">
          <mxGeometry relative="1" as="geometry" />
        </mxCell>
        <mxCell id="JQ6tBwWLcFrwbUFlZFzO-2207" value="" style="edgeStyle=orthogonalEdgeStyle;curved=1;rounded=0;orthogonalLoop=1;jettySize=auto;html=1;fontSize=12;fontColor=#004C99;strokeColor=default;strokeWidth=2;fillColor=default;" edge="1" parent="1" source="2059" target="2066">
          <mxGeometry relative="1" as="geometry" />
        </mxCell>
        <mxCell id="2059" value="Glance&lt;br&gt;Nova&lt;br&gt;Cinder&lt;br&gt;Neutron&lt;br&gt;Magnum" style="rounded=1;whiteSpace=wrap;html=1;dashed=1;strokeColor=none;strokeWidth=2;fillColor=#FFFFFF;fontFamily=Helvetica;fontSize=14;fontColor=#FFB366;opacity=75;verticalAlign=top;fontStyle=1" parent="1" vertex="1">
          <mxGeometry x="345.25" y="187.5" width="86" height="192.5" as="geometry" />
        </mxCell>
        <mxCell id="2062" value="Redis" style="verticalLabelPosition=top;html=1;verticalAlign=bottom;strokeColor=none;fillColor=#3399FF;shape=mxgraph.azure.azure_cache;dashed=1;fontFamily=Helvetica;fontSize=14;fontColor=#004C99;labelPosition=center;align=center;" parent="1" vertex="1">
          <mxGeometry x="539.9999999999999" y="358.64" width="43" height="50" as="geometry" />
        </mxCell>
        <mxCell id="2063" value="memcached" style="verticalLabelPosition=top;html=1;verticalAlign=bottom;strokeColor=none;fillColor=#009900;shape=mxgraph.azure.content_delivery_network;dashed=1;fontFamily=Helvetica;fontSize=14;fontColor=#004C99;labelPosition=center;align=center;" parent="1" vertex="1">
          <mxGeometry x="514.53" y="205" width="50" height="32.5" as="geometry" />
        </mxCell>
        <mxCell id="JQ6tBwWLcFrwbUFlZFzO-2208" value="" style="edgeStyle=orthogonalEdgeStyle;curved=1;rounded=0;orthogonalLoop=1;jettySize=auto;html=1;fontSize=12;fontColor=#004C99;strokeColor=default;strokeWidth=2;fillColor=default;entryX=0;entryY=0.5;entryDx=0;entryDy=0;" edge="1" parent="1" source="2066" target="JQ6tBwWLcFrwbUFlZFzO-2123">
          <mxGeometry relative="1" as="geometry" />
        </mxCell>
        <mxCell id="2066" value="RabbitMQ" style="verticalLabelPosition=top;html=1;verticalAlign=bottom;strokeColor=none;fillColor=#009900;shape=mxgraph.azure.service_bus;dashed=1;fontFamily=Helvetica;fontSize=14;fontColor=#004C99;labelPosition=center;align=center;" parent="1" vertex="1">
          <mxGeometry x="540" y="271" width="45" height="50" as="geometry" />
        </mxCell>
        <mxCell id="JQ6tBwWLcFrwbUFlZFzO-2201" style="edgeStyle=orthogonalEdgeStyle;curved=1;rounded=0;orthogonalLoop=1;jettySize=auto;html=1;exitX=1;exitY=0.25;exitDx=0;exitDy=0;entryX=0.018;entryY=0.641;entryDx=0;entryDy=0;entryPerimeter=0;fontSize=12;fontColor=#004C99;strokeColor=default;strokeWidth=2;fillColor=default;" edge="1" parent="1" source="2068" target="2059">
          <mxGeometry relative="1" as="geometry" />
        </mxCell>
        <mxCell id="JQ6tBwWLcFrwbUFlZFzO-2203" style="edgeStyle=orthogonalEdgeStyle;curved=1;rounded=0;orthogonalLoop=1;jettySize=auto;html=1;exitX=1;exitY=0.75;exitDx=0;exitDy=0;entryX=0;entryY=0.5;entryDx=0;entryDy=0;fontSize=12;fontColor=#004C99;strokeColor=default;strokeWidth=2;fillColor=default;" edge="1" parent="1" source="2068" target="JQ6tBwWLcFrwbUFlZFzO-2097">
          <mxGeometry relative="1" as="geometry" />
        </mxCell>
        <mxCell id="JQ6tBwWLcFrwbUFlZFzO-2210" style="edgeStyle=orthogonalEdgeStyle;curved=1;rounded=0;orthogonalLoop=1;jettySize=auto;html=1;exitX=0.75;exitY=1;exitDx=0;exitDy=0;entryX=0.5;entryY=1;entryDx=0;entryDy=0;entryPerimeter=0;fontSize=12;fontColor=#004C99;strokeColor=default;strokeWidth=2;fillColor=default;startArrow=classic;startFill=0;" edge="1" parent="1" source="2068" target="2050">
          <mxGeometry relative="1" as="geometry" />
        </mxCell>
        <mxCell id="JQ6tBwWLcFrwbUFlZFzO-2225" style="edgeStyle=orthogonalEdgeStyle;curved=1;rounded=0;orthogonalLoop=1;jettySize=auto;html=1;exitX=1;exitY=0.5;exitDx=0;exitDy=0;entryX=0.43;entryY=0.99;entryDx=0;entryDy=0;entryPerimeter=0;fontSize=12;fontColor=#004C99;startArrow=none;startFill=0;strokeColor=default;strokeWidth=2;fillColor=default;" edge="1" parent="1" source="2068" target="2062">
          <mxGeometry relative="1" as="geometry" />
        </mxCell>
        <mxCell id="2068" value="vstorage-ui-backend" style="rounded=1;whiteSpace=wrap;html=1;dashed=1;strokeColor=none;strokeWidth=2;fillColor=#FFFFFF;fontFamily=Helvetica;fontSize=14;fontColor=#FFB366;opacity=75;verticalAlign=top;fontStyle=1" parent="1" vertex="1">
          <mxGeometry x="218" y="227" width="110" height="338" as="geometry" />
        </mxCell>
        <mxCell id="2069" value="System" style="verticalLabelPosition=bottom;html=1;verticalAlign=top;strokeColor=none;fillColor=#3399FF;shape=mxgraph.azure.cloud;dashed=1;fontSize=14;fontColor=#004C99" parent="1" vertex="1">
          <mxGeometry x="246" y="271" width="50" height="32.5" as="geometry" />
        </mxCell>
        <mxCell id="2070" value="Compute" style="verticalLabelPosition=bottom;html=1;verticalAlign=top;strokeColor=none;fillColor=#009900;shape=mxgraph.azure.virtual_machine;dashed=1;fontSize=14;fontColor=#004C99" parent="1" vertex="1">
          <mxGeometry x="246" y="330.5" width="50" height="40" as="geometry" />
        </mxCell>
        <mxCell id="2074" value="Self service Web users" style="verticalLabelPosition=bottom;html=1;verticalAlign=top;strokeColor=none;fillColor=#3399FF;shape=mxgraph.azure.user;dashed=1;fontFamily=Helvetica;fontSize=14;fontColor=#004C99" parent="1" vertex="1">
          <mxGeometry x="90.5" y="468" width="47.5" height="50" as="geometry" />
        </mxCell>
        <mxCell id="JQ6tBwWLcFrwbUFlZFzO-2089" value="S3/NFS(OSTOR) tools" style="verticalLabelPosition=bottom;html=1;verticalAlign=top;strokeColor=none;fillColor=#999900;shape=mxgraph.azure.server_rack;dashed=1;fontFamily=Helvetica;fontSize=14;fontColor=#004C99" vertex="1" parent="1">
          <mxGeometry x="909.5" y="452" width="50" height="34" as="geometry" />
        </mxCell>
        <mxCell id="JQ6tBwWLcFrwbUFlZFzO-2095" value="Physical Disks" style="verticalLabelPosition=bottom;html=1;verticalAlign=top;strokeColor=none;fillColor=#999900;shape=mxgraph.azure.vhd;dashed=1;fontFamily=Helvetica;fontSize=14;fontColor=#004C99" vertex="1" parent="1">
          <mxGeometry x="1078" y="205" width="40" height="50" as="geometry" />
        </mxCell>
        <mxCell id="JQ6tBwWLcFrwbUFlZFzO-2097" value="postgres" style="shape=image;verticalLabelPosition=bottom;labelBackgroundColor=none;verticalAlign=top;aspect=fixed;imageAspect=0;image=data:image/svg+xml,PHN2ZyB4bWxuczpjYz0iaHR0cDovL2NyZWF0aXZlY29tbW9ucy5vcmcvbnMjIiB4bWxuczpkYz0iaHR0cDovL3B1cmwub3JnL2RjL2VsZW1lbnRzLzEuMS8iIHhtbG5zOmlua3NjYXBlPSJodHRwOi8vd3d3Lmlua3NjYXBlLm9yZy9uYW1lc3BhY2VzL2lua3NjYXBlIiB4bWxuczpyZGY9Imh0dHA6Ly93d3cudzMub3JnLzE5OTkvMDIvMjItcmRmLXN5bnRheC1ucyMiIHhtbG5zOnNvZGlwb2RpPSJodHRwOi8vc29kaXBvZGkuc291cmNlZm9yZ2UubmV0L0RURC9zb2RpcG9kaS0wLmR0ZCIgeG1sbnM6c3ZnPSJodHRwOi8vd3d3LnczLm9yZy8yMDAwL3N2ZyIgeG1sbnM9Imh0dHA6Ly93d3cudzMub3JnLzIwMDAvc3ZnIiB4bWxuczp4bGluaz0iaHR0cDovL3d3dy53My5vcmcvMTk5OS94bGluayIgdmVyc2lvbj0iMS4xIiBpZD0ic3ZnMTAyNzIyIiBpbmtzY2FwZTp2ZXJzaW9uPSIwLjkyLjMgKDI0MDU1NDYsIDIwMTgtMDMtMTEpIiBzb2RpcG9kaTpkb2NuYW1lPSJwb3N0Z3Jlc3FsLnN2ZyIgeD0iMHB4IiB5PSIwcHgiIHZpZXdCb3g9IjAgMCA0Ni4wMyA2MC40NyIgc3R5bGU9ImVuYWJsZS1iYWNrZ3JvdW5kOm5ldyAwIDAgNDYuMDMgNjAuNDc7IiB4bWw6c3BhY2U9InByZXNlcnZlIj4mI3hhOzxzb2RpcG9kaTpuYW1lZHZpZXcgYm9yZGVyY29sb3I9IiM2NjY2NjYiIGJvcmRlcm9wYWNpdHk9IjEiIGZpdC1tYXJnaW4tYm90dG9tPSIwIiBmaXQtbWFyZ2luLWxlZnQ9IjAiIGZpdC1tYXJnaW4tcmlnaHQ9IjAiIGZpdC1tYXJnaW4tdG9wPSIwIiBncmlkdG9sZXJhbmNlPSIxMCIgZ3VpZGV0b2xlcmFuY2U9IjEwIiBpZD0ibmFtZWR2aWV3MTAyNzI0IiBpbmtzY2FwZTpjdXJyZW50LWxheWVyPSJzdmcxMDI3MjIiIGlua3NjYXBlOmN4PSIzMC42ODk5ODMiIGlua3NjYXBlOmN5PSI0MC4zMTQ2NDUiIGlua3NjYXBlOnBhZ2VvcGFjaXR5PSIwIiBpbmtzY2FwZTpwYWdlc2hhZG93PSIyIiBpbmtzY2FwZTp3aW5kb3ctaGVpZ2h0PSIxMDE3IiBpbmtzY2FwZTp3aW5kb3ctbWF4aW1pemVkPSIxIiBpbmtzY2FwZTp3aW5kb3ctd2lkdGg9IjE5MjAiIGlua3NjYXBlOndpbmRvdy14PSItOCIgaW5rc2NhcGU6d2luZG93LXk9Ii04IiBpbmtzY2FwZTp6b29tPSIxMC40OTMzMTUiIG9iamVjdHRvbGVyYW5jZT0iMTAiIHBhZ2Vjb2xvcj0iI2ZmZmZmZiIgc2hvd2dyaWQ9ImZhbHNlIj4mI3hhOwk8L3NvZGlwb2RpOm5hbWVkdmlldz4mI3hhOzxnIGlkPSJnMTAyNzIwIiB0cmFuc2Zvcm09InRyYW5zbGF0ZSgtMC43NSwtMC43NTQ4KSI+JiN4YTsJPHRpdGxlIGlkPSJ0aXRsZTEwMjYwNSI+UGFnZS0xPC90aXRsZT4mI3hhOwk8ZyBpZD0iZ3JvdXAzNzA0LTEiIHRyYW5zZm9ybT0idHJhbnNsYXRlKDAuNzUsLTAuNzUpIj4mI3hhOwkJPHRpdGxlIGlkPSJ0aXRsZTEwMjYwNyI+UG9zdGdyZVNRTC42MzM8L3RpdGxlPiYjeGE7CQk8ZyBpZD0iZ3JvdXAzNzA1LTIiPiYjeGE7CQkJPHRpdGxlIGlkPSJ0aXRsZTEwMjYwOSI+Q0hlY2ttYXJrXzI8L3RpdGxlPiYjeGE7CQkJPGcgaWQ9InNoYXBlMzcwNi0zIj4mI3hhOwkJCQk8dGl0bGUgaWQ9InRpdGxlMTAyNjExIj5wYXRoMzY4NjwvdGl0bGU+JiN4YTsJCQkJPGcgaWQ9InNoYWRvdzM3MDYtNCI+JiN4YTsJCQkJPC9nPiYjeGE7CQkJCTxwYXRoIGlkPSJwYXRoMTAyNjE0IiBpbmtzY2FwZTpjb25uZWN0b3ItY3VydmF0dXJlPSIwIiBzdHlsZT0iZmlsbDojMzk5OEM1OyIgZD0iTTAsOS41NHY0NC4zMmMwLDQuNjYsMTAuMjgsOC4xMSwyMi44OCw4LjExICAgICAgVjkuNTRIMHoiLz4mI3hhOwkJCTwvZz4mI3hhOwkJCTxnIGlkPSJzaGFwZTM3MDctNiIgdHJhbnNmb3JtPSJ0cmFuc2xhdGUoMjIuODc5MykiPiYjeGE7CQkJCTx0aXRsZSBpZD0idGl0bGUxMDI2MTciPnBhdGgzNjg4PC90aXRsZT4mI3hhOwkJCQk8ZyBpZD0ic2hhZG93MzcwNy03Ij4mI3hhOwkJCQk8L2c+JiN4YTsJCQkJPHBhdGggaWQ9InBhdGgxMDI2MjAiIGlua3NjYXBlOmNvbm5lY3Rvci1jdXJ2YXR1cmU9IjAiIHN0eWxlPSJmaWxsOiM1OUIzRDg7IiBkPSJNMCw2MS45N2gwLjEyYzEyLjUyLDAsMjIuNzYtMy42NiwyMi43Ni04LjMxICAgICAgVjkuNTRIMFY2MS45N3oiLz4mI3hhOwkJCTwvZz4mI3hhOwkJCTxnIGlkPSJzaGFwZTM3MDgtOSIgdHJhbnNmb3JtPSJ0cmFuc2xhdGUoMCwtNDMuNzg1MikiPiYjeGE7CQkJCTx0aXRsZSBpZD0idGl0bGUxMDI2MjMiPnBhdGgzNjkwPC90aXRsZT4mI3hhOwkJCQk8ZyBpZD0ic2hhZG93MzcwOC0xMCI+JiN4YTsJCQkJPC9nPiYjeGE7CQkJCTxwYXRoIGlkPSJwYXRoMTAyNjI2IiBpbmtzY2FwZTpjb25uZWN0b3ItY3VydmF0dXJlPSIwIiBzdHlsZT0iZmlsbDojRkZGRkZGOyIgZD0iTTQ2LjAzLDUzLjY0YzAsNC41MS0xMC4zMSw4LjMzLTIyLjk1LDguMzMgICAgICBTMCw1OC4xNSwwLDUzLjY0YzAtNC41MiwxMC4zMS04LjM1LDIyLjk2LTguMzVDMzUuNiw0NS4yOSw0Ni4wMyw0OS4xLDQ2LjAzLDUzLjY0eiIvPiYjeGE7CQkJPC9nPiYjeGE7CQkJPGcgaWQ9InNoYXBlMzcwOS0xMiIgdHJhbnNmb3JtPSJ0cmFuc2xhdGUoNC42NjE2NSwtNDcuMDkzMikiPiYjeGE7CQkJCTx0aXRsZSBpZD0idGl0bGUxMDI2MjkiPnBhdGgzNjkyPC90aXRsZT4mI3hhOwkJCQk8ZyBpZD0ic2hhZG93MzcwOS0xMyI+JiN4YTsJCQkJPC9nPiYjeGE7CQkJCTxwYXRoIGlkPSJwYXRoMTAyNjMyIiBpbmtzY2FwZTpjb25uZWN0b3ItY3VydmF0dXJlPSIwIiBzdHlsZT0iZmlsbDojN0ZCOTAwOyIgZD0iTTM2LjcxLDU2LjQ1YzAsMy4wNy04LjIzLDUuNTItMTguMjksNS41MiAgICAgIEM4LjM1LDYxLjk3LDAsNTkuNTYsMCw1Ni40NXM4LjIzLTUuNTIsMTguMjktNS41MkMyOC4zNiw1MC45MywzNi43MSw1My4zOCwzNi43MSw1Ni40NXoiLz4mI3hhOwkJCTwvZz4mI3hhOwkJCTxnIGlkPSJzaGFwZTM3MTAtMTUiIHRyYW5zZm9ybT0idHJhbnNsYXRlKDQuNjYxNjUsLTQ5LjI5NTMpIj4mI3hhOwkJCQk8dGl0bGUgaWQ9InRpdGxlMTAyNjM1Ij5wYXRoMzY5NDwvdGl0bGU+JiN4YTsJCQkJPGcgaWQ9InNoYWRvdzM3MTAtMTYiPiYjeGE7CQkJCTwvZz4mI3hhOwkJCQk8cGF0aCBpZD0icGF0aDEwMjYzOCIgaW5rc2NhcGU6Y29ubmVjdG9yLWN1cnZhdHVyZT0iMCIgc3R5bGU9ImZpbGw6I0I3RDMzMjsiIGQ9Ik0zMi43OCw2MS45N2MyLjQ2LTAuOTYsMy44Mi0yLjA5LDMuODItMy4zMiAgICAgIGMwLTMuMDctOC4yMy01LjUyLTE4LjMtNS41MkM4LjI0LDUzLjEzLDAsNTUuNTgsMCw1OC42NWMwLDEuMjMsMS40OCwyLjQ2LDMuODEsMy4zMmMzLjMyLTEuMzYsOC41OC0yLjA5LDE0LjQ5LTIuMDkgICAgICBjNC45MS0wLjEsOS44MSwwLjYsMTQuNDksMi4wOUgzMi43OHoiLz4mI3hhOwkJCQk8cGF0aCBpZD0icGF0aDEwMjY0MCIgaW5rc2NhcGU6Y29ubmVjdG9yLWN1cnZhdHVyZT0iMCIgc3R5bGU9ImZpbGw6bm9uZTsiIGQ9Ik0zMi43OCw2MS45N2MyLjQ2LTAuOTYsMy44Mi0yLjA5LDMuODItMy4zMiAgICAgIGMwLTMuMDctOC4yMy01LjUyLTE4LjMtNS41MkM4LjI0LDUzLjEzLDAsNTUuNTgsMCw1OC42NWMwLDEuMjMsMS40OCwyLjQ2LDMuODEsMy4zMmMzLjMyLTEuMzYsOC41OC0yLjA5LDE0LjQ5LTIuMDkgICAgICBjNC45MS0wLjEsOS44MSwwLjYsMTQuNDksMi4wOSIvPiYjeGE7CQkJPC9nPiYjeGE7CQkJPGcgaWQ9Imdyb3VwMzcxMS0xOSIgdHJhbnNmb3JtPSJ0cmFuc2xhdGUoNy41NjkyMywtNy40NjQzNikiPiYjeGE7CQkJCTx0aXRsZSBpZD0idGl0bGUxMDI2NDMiPkxheWVyXzM8L3RpdGxlPiYjeGE7CQkJCTxnIGlkPSJzaGFwZTM3MTItMjAiIHRyYW5zZm9ybT0idHJhbnNsYXRlKDAuMDU3MTk4MikiPiYjeGE7CQkJCQk8dGl0bGUgaWQ9InRpdGxlMTAyNjQ1Ij5wYXRoMzY5NjwvdGl0bGU+JiN4YTsJCQkJCTxnIGlkPSJzaGFkb3czNzEyLTIxIj4mI3hhOwkJCQkJPC9nPiYjeGE7CQkJCQk8cGF0aCBpZD0icGF0aDEwMjY0OCIgaW5rc2NhcGU6Y29ubmVjdG9yLWN1cnZhdHVyZT0iMCIgc3R5bGU9ImZpbGw6IzMzNjc5MDsiIGQ9Ik0yOC4zMiw1MC4yM2MtMy42NSwwLjc2LTMuOTEtMC40OC0zLjkxLTAuNDggICAgICAgYzMuODItNS43Miw1LjQ4LTEzLDQuMDgtMTQuNzdjLTMuODEtNC44NS0xMC4zNy0yLjU1LTEwLjQ4LTIuNWMtMC44LTAuMTYtMS42Mi0wLjI1LTIuNDQtMC4yNmMtMS4zNy0wLjA2LTIuNzIsMC4zNS0zLjgyLDEuMTYgICAgICAgYzAsMC0xMS43NS00LjgyLTExLjI0LDYuMDhjMC4xMiwyLjMyLDMuMywxNy41NSw3LjEyLDEyLjk2YzEuNC0xLjY4LDIuNzQtMy4xMSwyLjc0LTMuMTFjMC42OCwwLjQ2LDEuNSwwLjY3LDIuMzIsMC41OSAgICAgICBsMC4wNy0wLjA2Yy0wLjAzLDAuMjItMC4wMywwLjQ0LDAsMC42NmMtMC45NiwxLjExLTAuNywxLjMtMi42NywxLjdjLTEuOTgsMC40LTAuODIsMS4xNC0wLjA2LDEuMzMgICAgICAgYzEuNjcsMC41NCwzLjQ5LTAuMDUsNC41Mi0xLjQ3bC0wLjA2LDAuMjNjMC4zOSwwLjMxLDAuNjYsMi4wMSwwLjYxLDMuNTZjLTAuMTMsMS4xNS0wLjA1LDIuMzEsMC4yMywzLjQzICAgICAgIGMwLjMsMC44MywwLjYxLDIuNjksMy4yLDIuMTRjMi4xNy0wLjQ3LDMuMjktMS42NywzLjQ0LTMuNjhjMC4xMS0xLjQyLDAuMzctMS4yMSwwLjM4LTIuNDhsMC4yMS0wLjYgICAgICAgYzAuMjItMS45MSwwLTIuNTYsMS4zNy0yLjI3aDAuMzJjMS4wMywwLjA0LDIuMDYtMC4xMywzLjAyLTAuNTFjMS42Mi0wLjc1LDIuNTktMi4wMSwwLjk2LTEuNjhMMjguMzIsNTAuMjN6Ii8+JiN4YTsJCQkJPC9nPiYjeGE7CQkJCTxnIGlkPSJzaGFwZTM3MTMtMjMiIHRyYW5zZm9ybT0idHJhbnNsYXRlKDE0LjcyODUsLTAuNDk1NzE4KSI+JiN4YTsJCQkJCTx0aXRsZSBpZD0idGl0bGUxMDI2NTEiPnBhdGgzNjk4PC90aXRsZT4mI3hhOwkJCQkJPGcgaWQ9InNoYWRvdzM3MTMtMjQiPiYjeGE7CQkJCQk8L2c+JiN4YTsJCQkJCTxwYXRoIGlkPSJwYXRoMTAyNjU0IiBpbmtzY2FwZTpjb25uZWN0b3ItY3VydmF0dXJlPSIwIiBzdHlsZT0iZmlsbDpub25lOyIgZD0iTTAuMSw1MS44M2MtMC4xLDMuNiwwLDcuMjIsMC4zOSw4LjEgICAgICAgYzAuMzcsMS41NCwxLjkyLDIuNDgsMy40NSwyLjExQzQuMDIsNjIuMDIsNC4xLDYyLDQuMTgsNjEuOTdjMi4xNy0wLjQ3LDIuOTYtMS4zNywzLjMtMy4zNWMwLjI1LTEuNDYsMC43NC01LjUxLDAuOC02LjM0ICAgICAgIEwwLjEsNTEuODN6Ii8+JiN4YTsJCQkJCSYjeGE7CQkJCQkJPHBhdGggaWQ9InBhdGgxMDI2NTYiIGlua3NjYXBlOmNvbm5lY3Rvci1jdXJ2YXR1cmU9IjAiIHN0eWxlPSJmaWxsOm5vbmU7c3Ryb2tlOiNGRkZGRkY7c3Ryb2tlLXdpZHRoOjAuNzY1O3N0cm9rZS1saW5lY2FwOnJvdW5kO3N0cm9rZS1saW5lam9pbjpyb3VuZDtzdHJva2UtbWl0ZXJsaW1pdDozOyIgZD0iICAgICAgIE0wLjEsNTEuODNjLTAuMSwzLjYsMCw3LjIyLDAuMzksOC4xYzAuMzcsMS41NCwxLjkyLDIuNDgsMy40NSwyLjExQzQuMDIsNjIuMDIsNC4xLDYyLDQuMTgsNjEuOTcgICAgICAgYzIuMTctMC40NywyLjk2LTEuMzcsMy4zLTMuMzVjMC4yNS0xLjQ2LDAuNzQtNS41MSwwLjgtNi4zNCIvPiYjeGE7CQkJCTwvZz4mI3hhOwkJCQk8ZyBpZD0ic2hhcGUzNzE0LTI3IiB0cmFuc2Zvcm09InRyYW5zbGF0ZSgwLC00Ljk5NTMxKSI+JiN4YTsJCQkJCTx0aXRsZSBpZD0idGl0bGUxMDI2NTkiPnBhdGgzNzAwPC90aXRsZT4mI3hhOwkJCQkJPGcgaWQ9InNoYWRvdzM3MTQtMjgiPiYjeGE7CQkJCQk8L2c+JiN4YTsJCQkJCTxwYXRoIGlkPSJwYXRoMTAyNjYyIiBpbmtzY2FwZTpjb25uZWN0b3ItY3VydmF0dXJlPSIwIiBzdHlsZT0iZmlsbDpub25lOyIgZD0iTTExLjc0LDM4LjI3YzAsMC0xMS43NC00Ljc3LTExLjE5LDYuMTEgICAgICAgYzAuMTEsMi4zNSwzLjMyLDE3LjU5LDcuMTMsMTIuOTVjMS40LTEuNjcsMi42Ni0zLDIuNjYtM0wxMS43NCwzOC4yN3oiLz4mI3hhOwkJCQkJJiN4YTsJCQkJCQk8cGF0aCBpZD0icGF0aDEwMjY2NCIgaW5rc2NhcGU6Y29ubmVjdG9yLWN1cnZhdHVyZT0iMCIgc3R5bGU9ImZpbGw6bm9uZTtzdHJva2U6I0ZGRkZGRjtzdHJva2Utd2lkdGg6MC43NjU7c3Ryb2tlLWxpbmVjYXA6cm91bmQ7c3Ryb2tlLWxpbmVqb2luOnJvdW5kO3N0cm9rZS1taXRlcmxpbWl0OjM7IiBkPSIgICAgICAgTTExLjc0LDM4LjI3YzAsMC0xMS43NC00Ljc3LTExLjE5LDYuMTFjMC4xMSwyLjM1LDMuMzIsMTcuNTksNy4xMywxMi45NWMxLjQtMS42NywyLjY2LTMsMi42Ni0zIi8+JiN4YTsJCQkJPC9nPiYjeGE7CQkJCTxnIGlkPSJzaGFwZTM3MTUtMzEiIHRyYW5zZm9ybT0idHJhbnNsYXRlKDE3LjY1NTIsLTEyLjI2OSkiPiYjeGE7CQkJCQk8dGl0bGUgaWQ9InRpdGxlMTAyNjY3Ij5wYXRoMzcwMjwvdGl0bGU+JiN4YTsJCQkJCTxnIGlkPSJzaGFkb3czNzE1LTMyIj4mI3hhOwkJCQkJPC9nPiYjeGE7CQkJCQk8cGF0aCBpZD0icGF0aDEwMjY3MCIgaW5rc2NhcGU6Y29ubmVjdG9yLWN1cnZhdHVyZT0iMCIgc3R5bGU9ImZpbGw6bm9uZTsiIGQ9Ik0wLjQxLDQ0LjdDMCw0NC44Myw2LjkzLDQyLjE3LDEwLjksNDcuMiAgICAgICBjMS4zOSwxLjc4LTAuMjIsOS4wNS00LjA4LDE0Ljc3TDAuNDEsNDQuN3oiLz4mI3hhOwkJCQkJJiN4YTsJCQkJCQk8cGF0aCBpZD0icGF0aDEwMjY3MiIgaW5rc2NhcGU6Y29ubmVjdG9yLWN1cnZhdHVyZT0iMCIgc3R5bGU9ImZpbGw6bm9uZTtzdHJva2U6I0ZGRkZGRjtzdHJva2Utd2lkdGg6MC43NjU7c3Ryb2tlLWxpbmVjYXA6cm91bmQ7c3Ryb2tlLWxpbmVqb2luOnJvdW5kO3N0cm9rZS1taXRlcmxpbWl0OjM7IiBkPSIgICAgICAgTTAuNDEsNDQuN0MwLDQ0LjgzLDYuOTMsNDIuMTcsMTAuOSw0Ny4yYzEuMzksMS43OC0wLjIyLDkuMDUtNC4wOCwxNC43NyIvPiYjeGE7CQkJCTwvZz4mI3hhOwkJCQk8ZyBpZD0ic2hhcGUzNzE2LTM1IiB0cmFuc2Zvcm09InRyYW5zbGF0ZSg4LjU0MTU5LC05LjMzMjg0KSI+JiN4YTsJCQkJCTx0aXRsZSBpZD0idGl0bGUxMDI2NzUiPnBhdGgzNzA0PC90aXRsZT4mI3hhOwkJCQkJPGcgaWQ9InNoYWRvdzM3MTYtMzYiPiYjeGE7CQkJCQk8L2c+JiN4YTsJCQkJCTxwYXRoIGlkPSJwYXRoMTAyNjc4IiBpbmtzY2FwZTpjb25uZWN0b3ItY3VydmF0dXJlPSIwIiBzdHlsZT0iZmlsbDpub25lOyIgZD0iTTE1LjkxLDU5LjAzYzAsMCwwLjI1LDEuMjQsMy45MSwwLjQ5ICAgICAgIGMxLjYtMC4zMywwLjY0LDAuOTUtMC45NSwxLjY4Yy0xLjM0LDAuNjItNC4zMiwwLjc3LTQuMzctMC4wOGMtMC4xMi0yLjIsMS41Ny0xLjU0LDEuNDUtMi4wOWMtMC4xMy0wLjU1LTAuODctMC45NS0xLjM3LTIuMiAgICAgICBjLTAuNDQtMS4wNi02LjAyLTkuMjEsMS41NC04YzAuMjgtMC4wNi0xLjk3LTcuMTktOS4wNS03LjNDMCw0MS40MSwwLjIsNTAuMjMsMC4yLDUwLjIzTDE1LjkxLDU5LjAzeiIvPiYjeGE7CQkJCQkmI3hhOwkJCQkJCTxwYXRoIGlkPSJwYXRoMTAyNjgwIiBpbmtzY2FwZTpjb25uZWN0b3ItY3VydmF0dXJlPSIwIiBzdHlsZT0iZmlsbDpub25lO3N0cm9rZTojRkZGRkZGO3N0cm9rZS13aWR0aDowLjc2NTtzdHJva2UtbGluZWNhcDpyb3VuZDtzdHJva2UtbGluZWpvaW46cm91bmQ7c3Ryb2tlLW1pdGVybGltaXQ6MzsiIGQ9IiAgICAgICBNMTUuOTEsNTkuMDNjMCwwLDAuMjUsMS4yNCwzLjkxLDAuNDljMS42LTAuMzMsMC42NCwwLjk1LTAuOTUsMS42OGMtMS4zNCwwLjYyLTQuMzIsMC43Ny00LjM3LTAuMDggICAgICAgYy0wLjEyLTIuMiwxLjU3LTEuNTQsMS40NS0yLjA5Yy0wLjEzLTAuNTUtMC44Ny0wLjk1LTEuMzctMi4yYy0wLjQ0LTEuMDYtNi4wMi05LjIxLDEuNTQtOGMwLjI4LTAuMDYtMS45Ny03LjE5LTkuMDUtNy4zICAgICAgIEMwLDQxLjQxLDAuMiw1MC4yMywwLjIsNTAuMjMiLz4mI3hhOwkJCQk8L2c+JiN4YTsJCQkJPGcgaWQ9InNoYXBlMzcxNy0zOSIgdHJhbnNmb3JtPSJ0cmFuc2xhdGUoOC4yMTc0NywtOC41MDM0NikiPiYjeGE7CQkJCQk8dGl0bGUgaWQ9InRpdGxlMTAyNjgzIj5wYXRoMzcwNjwvdGl0bGU+JiN4YTsJCQkJCTxnIGlkPSJzaGFkb3czNzE3LTQwIj4mI3hhOwkJCQkJPC9nPiYjeGE7CQkJCQkmI3hhOwkJCQkJCTxwYXRoIGlkPSJwYXRoMTAyNjg2IiBpbmtzY2FwZTpjb25uZWN0b3ItY3VydmF0dXJlPSIwIiBzdHlsZT0iZmlsbDpub25lO3N0cm9rZTojRkZGRkZGO3N0cm9rZS13aWR0aDowLjc2NTtzdHJva2UtbGluZWNhcDpyb3VuZDtzdHJva2UtbGluZWpvaW46cm91bmQ7c3Ryb2tlLW1pdGVybGltaXQ6MzsiIGQ9IiAgICAgICBNNC42NCw1OC45NGMtMC45NSwxLjEtMC42OSwxLjI5LTIuNjcsMS42OWMtMS45NywwLjQtMC44MiwxLjE1LTAuMDUsMS4zNGMxLjY2LDAuNTMsMy40OC0wLjA2LDQuNTEtMS40NyAgICAgICBjMC4zNS0wLjY2LDAuMS0xLjQ4LTAuNTYtMS44M0g1LjgyYy0wLjQxLTAuMjMtMC45My0wLjExLTEuMTksMC4yOUw0LjY0LDU4Ljk0eiIvPiYjeGE7CQkJCTwvZz4mI3hhOwkJCQk8ZyBpZD0ic2hhcGUzNzE4LTQyIiB0cmFuc2Zvcm09InRyYW5zbGF0ZSg4LjYzNjkyLC0xMS41MzUpIj4mI3hhOwkJCQkJPHRpdGxlIGlkPSJ0aXRsZTEwMjY4OSI+cGF0aDM3MDg8L3RpdGxlPiYjeGE7CQkJCQk8ZyBpZD0ic2hhZG93MzcxOC00MyI+JiN4YTsJCQkJCTwvZz4mI3hhOwkJCQkJPHBhdGggaWQ9InBhdGgxMDI2OTIiIGlua3NjYXBlOmNvbm5lY3Rvci1jdXJ2YXR1cmU9IjAiIHN0eWxlPSJmaWxsOm5vbmU7IiBkPSJNNC4xNiw2MS45N2MwLTAuOCwwLjE4LTEuNiwwLjU0LTIuMzIgICAgICAgYzAuNTEtMS4zNSwxLjY2LTIuNzEsMC43My03Yy0wLjY5LTMuMTktNS4zMy0wLjY2LTUuMzMtMC4yMmMwLjExLDEuNDIsMC4wNywyLjg0LTAuMSw0LjI1Yy0wLjQsMi4xOCwxLjA0LDQuMjYsMy4yMiw0LjY2ICAgICAgIGMwLjI5LDAuMDUsMC41OSwwLjA3LDAuODgsMC4wNkw0LjE2LDYxLjk3eiIvPiYjeGE7CQkJCQkmI3hhOwkJCQkJCTxwYXRoIGlkPSJwYXRoMTAyNjk0IiBpbmtzY2FwZTpjb25uZWN0b3ItY3VydmF0dXJlPSIwIiBzdHlsZT0iZmlsbDpub25lO3N0cm9rZTojRkZGRkZGO3N0cm9rZS13aWR0aDowLjc2NTtzdHJva2UtbGluZWNhcDpyb3VuZDtzdHJva2UtbGluZWpvaW46cm91bmQ7c3Ryb2tlLW1pdGVybGltaXQ6MzsiIGQ9IiAgICAgICBNNC4xNiw2MS45N2MwLTAuOCwwLjE4LTEuNiwwLjU0LTIuMzJjMC41MS0xLjM1LDEuNjYtMi43MSwwLjczLTdjLTAuNjktMy4xOS01LjMzLTAuNjYtNS4zMy0wLjIyICAgICAgIGMwLjExLDEuNDIsMC4wNywyLjg0LTAuMSw0LjI1Yy0wLjQsMi4xOCwxLjA0LDQuMjYsMy4yMiw0LjY2YzAuMjksMC4wNSwwLjU5LDAuMDcsMC44OCwwLjA2Ii8+JiN4YTsJCQkJPC9nPiYjeGE7CQkJCTxnIGlkPSJzaGFwZTM3MTktNDYiIHRyYW5zZm9ybT0idHJhbnNsYXRlKDExLjY4NzUsLTIwLjU0MzcpIj4mI3hhOwkJCQkJPHRpdGxlIGlkPSJ0aXRsZTEwMjY5NyI+cGF0aDM3MTA8L3RpdGxlPiYjeGE7CQkJCQk8ZyBpZD0ic2hhZG93MzcxOS00NyI+JiN4YTsJCQkJCTwvZz4mI3hhOwkJCQkJJiN4YTsJCQkJCQk8cGF0aCBpZD0icGF0aDEwMjcwMCIgaW5rc2NhcGU6Y29ubmVjdG9yLWN1cnZhdHVyZT0iMCIgc3R5bGU9ImZpbGw6I0ZGRkZGRjtzdHJva2U6I0ZGRkZGRjtzdHJva2Utd2lkdGg6MC40MTI1O3N0cm9rZS1saW5lY2FwOnNxdWFyZTtzdHJva2UtbWl0ZXJsaW1pdDozOyIgZD0iICAgICAgIE0wLDYxLjM3YzAsMC4xNSwwLjI4LDAuNTQsMC42NSwwLjZjMC4zLDAuMDQsMC41OS0wLjEyLDAuNzItMC40YzAtMC4xNS0wLjI3LTAuMzItMC42NS0wLjM2Yy0wLjM3LTAuMDUtMC43LDAtMC43MiwwLjE3VjYxLjM3ICAgICAgIHoiLz4mI3hhOwkJCQk8L2c+JiN4YTsJCQkJPGcgaWQ9InNoYXBlMzcyMC00OSIgdHJhbnNmb3JtPSJ0cmFuc2xhdGUoMjEuODk3NCwtMjAuODQ4NykiPiYjeGE7CQkJCQk8dGl0bGUgaWQ9InRpdGxlMTAyNzAzIj5wYXRoMzcxMjwvdGl0bGU+JiN4YTsJCQkJCTxnIGlkPSJzaGFkb3czNzIwLTUwIj4mI3hhOwkJCQkJPC9nPiYjeGE7CQkJCQkmI3hhOwkJCQkJCTxwYXRoIGlkPSJwYXRoMTAyNzA2IiBpbmtzY2FwZTpjb25uZWN0b3ItY3VydmF0dXJlPSIwIiBzdHlsZT0iZmlsbDojRkZGRkZGO3N0cm9rZTojRkZGRkZGO3N0cm9rZS13aWR0aDowLjIxO3N0cm9rZS1saW5lY2FwOnNxdWFyZTtzdHJva2UtbWl0ZXJsaW1pdDozOyIgZD0iICAgICAgIE0xLjM3LDYxLjM3YzAsMC4xNS0wLjI3LDAuNTQtMC42NSwwLjZjLTAuMywwLjA0LTAuNTktMC4xMi0wLjcyLTAuNGMwLTAuMTUsMC4yOC0wLjMyLDAuNjUtMC4zNiAgICAgICBDMS4wMiw2MS4xNiwxLjM1LDYxLjIxLDEuMzcsNjEuMzdMMS4zNyw2MS4zN3oiLz4mI3hhOwkJCQk8L2c+JiN4YTsJCQkJPGcgaWQ9InNoYXBlMzcyMS01MiIgdHJhbnNmb3JtPSJ0cmFuc2xhdGUoMjMuODEzNSwtMTMuMzY1MykiPiYjeGE7CQkJCQk8dGl0bGUgaWQ9InRpdGxlMTAyNzA5Ij5wYXRoMzcxNDwvdGl0bGU+JiN4YTsJCQkJCTxnIGlkPSJzaGFkb3czNzIxLTUzIj4mI3hhOwkJCQkJPC9nPiYjeGE7CQkJCQk8cGF0aCBpZD0icGF0aDEwMjcxMiIgaW5rc2NhcGU6Y29ubmVjdG9yLWN1cnZhdHVyZT0iMCIgc3R5bGU9ImZpbGw6bm9uZTsiIGQ9Ik0wLjgxLDUyLjg2YzAuMDcsMS4xNy0wLjI1LDEuOTEtMC4yOSwzLjIgICAgICAgYy0wLjA1LDEuOCwwLjg2LDMuODEtMC41Miw1LjkxTDAuODEsNTIuODZ6Ii8+JiN4YTsJCQkJCSYjeGE7CQkJCQkJPHBhdGggaWQ9InBhdGgxMDI3MTQiIGlua3NjYXBlOmNvbm5lY3Rvci1jdXJ2YXR1cmU9IjAiIHN0eWxlPSJmaWxsOm5vbmU7c3Ryb2tlOiNGRkZGRkY7c3Ryb2tlLXdpZHRoOjAuNzY1O3N0cm9rZS1saW5lY2FwOnJvdW5kO3N0cm9rZS1saW5lam9pbjpyb3VuZDtzdHJva2UtbWl0ZXJsaW1pdDozOyIgZD0iICAgICAgIE0wLjgxLDUyLjg2YzAuMDcsMS4xNy0wLjI1LDEuOTEtMC4yOSwzLjJjLTAuMDUsMS44LDAuODYsMy44MS0wLjUyLDUuOTEiLz4mI3hhOwkJCQk8L2c+JiN4YTsJCQk8L2c+JiN4YTsJCTwvZz4mI3hhOwk8L2c+JiN4YTs8L2c+JiN4YTs8L3N2Zz4=;fontColor=#004C99;" vertex="1" parent="1">
          <mxGeometry x="511.46" y="464.61" width="47.07" height="61.39" as="geometry" />
        </mxCell>
        <mxCell id="JQ6tBwWLcFrwbUFlZFzO-2098" value="Network&amp;nbsp;Interface" style="shape=image;verticalLabelPosition=bottom;labelBackgroundColor=none;verticalAlign=top;aspect=fixed;imageAspect=0;image=data:image/svg+xml,PHN2ZyB4bWxuczpkYz0iaHR0cDovL3B1cmwub3JnL2RjL2VsZW1lbnRzLzEuMS8iIHhtbG5zOmNjPSJodHRwOi8vY3JlYXRpdmVjb21tb25zLm9yZy9ucyMiIHhtbG5zOnJkZj0iaHR0cDovL3d3dy53My5vcmcvMTk5OS8wMi8yMi1yZGYtc3ludGF4LW5zIyIgeG1sbnM6c3ZnPSJodHRwOi8vd3d3LnczLm9yZy8yMDAwL3N2ZyIgeG1sbnM9Imh0dHA6Ly93d3cudzMub3JnLzIwMDAvc3ZnIiB4bWxuczpzb2RpcG9kaT0iaHR0cDovL3NvZGlwb2RpLnNvdXJjZWZvcmdlLm5ldC9EVEQvc29kaXBvZGktMC5kdGQiIHhtbG5zOmlua3NjYXBlPSJodHRwOi8vd3d3Lmlua3NjYXBlLm9yZy9uYW1lc3BhY2VzL2lua3NjYXBlIiB2ZXJzaW9uPSIxLjEiIGlkPSJzdmcxNTU5MTQiIGlua3NjYXBlOnZlcnNpb249IjAuOTIuMyAoMjQwNTU0NiwgMjAxOC0wMy0xMSkiIHNvZGlwb2RpOmRvY25hbWU9ImF6dXJlX2F1dG9tYXRpb25fcnVuYm9va3Muc3ZnIiB4PSIwcHgiIHk9IjBweCIgdmlld0JveD0iMCAwIDQ0LjkgNDguNDkiIHN0eWxlPSJlbmFibGUtYmFja2dyb3VuZDpuZXcgMCAwIDQ0LjkgNDguNDk7IiB4bWw6c3BhY2U9InByZXNlcnZlIj48bWV0YWRhdGEgaWQ9Im1ldGFkYXRhMTk3OTAiPjxyZGY6UkRGPjxjYzpXb3JrIHJkZjphYm91dD0iIj48ZGM6Zm9ybWF0PmltYWdlL3N2Zyt4bWw8L2RjOmZvcm1hdD48ZGM6dHlwZSByZGY6cmVzb3VyY2U9Imh0dHA6Ly9wdXJsLm9yZy9kYy9kY21pdHlwZS9TdGlsbEltYWdlIi8+PGRjOnRpdGxlLz48L2NjOldvcms+PC9yZGY6UkRGPjwvbWV0YWRhdGE+PGRlZnMgaWQ9ImRlZnMxOTc4OCI+JiN4YTsJJiN4YTsmI3hhOwkmI3hhOyYjeGE7CSYjeGE7JiN4YTsJJiN4YTsmI3hhOwkmI3hhOzwvZGVmcz4mI3hhOzxmaWx0ZXIgaWQ9ImZpbHRlcl8yIj4mI3hhOwk8ZmVHYXVzc2lhbkJsdXIgaWQ9ImZlR2F1c3NpYW5CbHVyMTU1ODYwIiBzdGREZXZpYXRpb249IjIiLz4mI3hhOzwvZmlsdGVyPiYjeGE7PHNvZGlwb2RpOm5hbWVkdmlldyBib3JkZXJjb2xvcj0iIzY2NjY2NiIgYm9yZGVyb3BhY2l0eT0iMSIgZml0LW1hcmdpbi1ib3R0b209IjAiIGZpdC1tYXJnaW4tbGVmdD0iMCIgZml0LW1hcmdpbi1yaWdodD0iMCIgZml0LW1hcmdpbi10b3A9IjAiIGdyaWR0b2xlcmFuY2U9IjEwIiBndWlkZXRvbGVyYW5jZT0iMTAiIGlkPSJuYW1lZHZpZXcxNTU5MTYiIGlua3NjYXBlOmN1cnJlbnQtbGF5ZXI9InN2ZzE1NTkxNCIgaW5rc2NhcGU6Y3g9IjIxLjQzMjUzOSIgaW5rc2NhcGU6Y3k9IjI2LjM5MDg3NyIgaW5rc2NhcGU6cGFnZW9wYWNpdHk9IjAiIGlua3NjYXBlOnBhZ2VzaGFkb3c9IjIiIGlua3NjYXBlOndpbmRvdy1oZWlnaHQ9IjEwMTciIGlua3NjYXBlOndpbmRvdy1tYXhpbWl6ZWQ9IjEiIGlua3NjYXBlOndpbmRvdy13aWR0aD0iMTkyMCIgaW5rc2NhcGU6d2luZG93LXg9Ii04IiBpbmtzY2FwZTp3aW5kb3cteT0iLTgiIGlua3NjYXBlOnpvb209IjcuNjAxNjI2NyIgb2JqZWN0dG9sZXJhbmNlPSIxMCIgcGFnZWNvbG9yPSIjZmZmZmZmIiBzaG93Z3JpZD0iZmFsc2UiPiYjeGE7CTwvc29kaXBvZGk6bmFtZWR2aWV3PiYjeGE7JiN4YTs8cGF0aCBpZD0icGF0aDE1NTg3NSIgaW5rc2NhcGU6Y29ubmVjdG9yLWN1cnZhdHVyZT0iMCIgc3R5bGU9ImZpbGw6IzNGNTc2NTsiIGQ9Ik0zNi4xNiwyMi41NUg4Ljc1Yy0xLjE2LDAtMi4yNCwwLjk3LTIuMjQsMi40MiAgdjEwLjRsMy44LDEuMDdWMjYuMzNIMzQuNXYxMC4wMmwzLjc5LTEuMDh2LTEwLjNDMzguMjksMjMuNTIsMzcuMjIsMjIuNTUsMzYuMTYsMjIuNTV6Ii8+JiN4YTsmI3hhOzxyZWN0IGlkPSJyZWN0MTU1ODgzIiB4PSIyMC41MSIgeT0iMTUuOTQiIHN0eWxlPSJmaWxsOiMzRjU3NjU7IiB3aWR0aD0iMy43OSIgaGVpZ2h0PSIxMC4xMSIvPiYjeGE7JiN4YTs8cGF0aCBpZD0icGF0aDE1NTg5MSIgaW5rc2NhcGU6Y29ubmVjdG9yLWN1cnZhdHVyZT0iMCIgc3R5bGU9ImZpbGw6IzNGNTc2NTsiIGQ9Ik0yOC41NywwSDE2LjMyYy0xLjI3LDAtMi4zMywxLjA2LTIuMzMsMi4zM3YxMS4zNiAgYzAsMS4yNywxLjA2LDIuMzQsMi4zMywyLjM0aDEyLjE0YzEuMjcsMCwyLjM0LTEuMDcsMi4zNC0yLjM0VjIuMzNDMzAuOSwxLjA2LDI5LjgyLDAsMjguNTcsMHoiLz4mI3hhOyYjeGE7PHBhdGggaWQ9InBhdGgxNTU4OTkiIGlua3NjYXBlOmNvbm5lY3Rvci1jdXJ2YXR1cmU9IjAiIHN0eWxlPSJmaWxsOiMzRjU3NjU7IiBkPSJNMTQuNDcsMzIuNDZIMi4zM0MxLjA2LDMyLjQ2LDAsMzMuNTIsMCwzNC43OSAgdjExLjM2YzAsMS4yNywxLjA2LDIuMzQsMi4zMywyLjM0aDEyLjE0YzEuMjcsMCwyLjM0LTEuMDcsMi4zNC0yLjM0VjM0Ljc5QzE2LjgxLDMzLjUyLDE1Ljc0LDMyLjQ2LDE0LjQ3LDMyLjQ2eiIvPiYjeGE7JiN4YTs8cGF0aCBpZD0icGF0aDE1NTkwNyIgaW5rc2NhcGU6Y29ubmVjdG9yLWN1cnZhdHVyZT0iMCIgc3R5bGU9ImZpbGw6IzNGNTc2NTsiIGQ9Ik00Mi41NiwzMi40NkgzMC40MmMtMS4yNywwLTIuMzMsMS4wNi0yLjMzLDIuMzMgIHYxMS4zNmMwLDEuMjcsMS4wNiwyLjM0LDIuMzMsMi4zNGgxMi4xNGMxLjI3LDAsMi4zNC0xLjA3LDIuMzQtMi4zNFYzNC43OUM0NSwzMy41Miw0My45MiwzMi40Niw0Mi41NiwzMi40NnoiLz4mI3hhOzwvc3ZnPg==;fontColor=#004C99;html=1;fontSize=14;imageBackground=none;" vertex="1" parent="1">
          <mxGeometry x="1075.5" y="297" width="45" height="48" as="geometry" />
        </mxCell>
        <mxCell id="JQ6tBwWLcFrwbUFlZFzO-2206" style="edgeStyle=orthogonalEdgeStyle;curved=1;rounded=0;orthogonalLoop=1;jettySize=auto;html=1;exitX=0.75;exitY=1;exitDx=0;exitDy=0;fontSize=12;fontColor=#004C99;strokeColor=default;strokeWidth=2;fillColor=default;" edge="1" parent="1" source="JQ6tBwWLcFrwbUFlZFzO-2100" target="JQ6tBwWLcFrwbUFlZFzO-2097">
          <mxGeometry relative="1" as="geometry" />
        </mxCell>
        <mxCell id="JQ6tBwWLcFrwbUFlZFzO-2102" value="iSCSI/ALUA tools" style="verticalLabelPosition=bottom;html=1;verticalAlign=top;strokeColor=none;fillColor=#999900;shape=mxgraph.azure.server_rack;dashed=1;fontFamily=Helvetica;fontSize=14;fontColor=#004C99" vertex="1" parent="1">
          <mxGeometry x="911" y="516" width="50" height="41" as="geometry" />
        </mxCell>
        <mxCell id="JQ6tBwWLcFrwbUFlZFzO-2103" value="Core Storage Management" style="rounded=1;whiteSpace=wrap;html=1;dashed=1;strokeColor=none;strokeWidth=2;fillColor=#FFFFFF;fontFamily=Helvetica;fontSize=14;fontColor=#FFB366;opacity=75;verticalAlign=top;fontStyle=1" vertex="1" parent="1">
          <mxGeometry x="863" y="757" width="140" height="112.5" as="geometry" />
        </mxCell>
        <mxCell id="JQ6tBwWLcFrwbUFlZFzO-2104" value="vstorage tool" style="verticalLabelPosition=bottom;html=1;verticalAlign=top;strokeColor=none;fillColor=#999900;shape=mxgraph.azure.server_rack;dashed=1;fontFamily=Helvetica;fontSize=14;fontColor=#004C99" vertex="1" parent="1">
          <mxGeometry x="912" y="801.5" width="50" height="40.5" as="geometry" />
        </mxCell>
        <mxCell id="JQ6tBwWLcFrwbUFlZFzO-2105" value="iptables" style="shape=image;verticalLabelPosition=bottom;labelBackgroundColor=none;verticalAlign=top;aspect=fixed;imageAspect=0;image=data:image/svg+xml,PHN2ZyB4bWxuczpjYz0iaHR0cDovL2NyZWF0aXZlY29tbW9ucy5vcmcvbnMjIiB4bWxuczpkYz0iaHR0cDovL3B1cmwub3JnL2RjL2VsZW1lbnRzLzEuMS8iIHhtbG5zOmlua3NjYXBlPSJodHRwOi8vd3d3Lmlua3NjYXBlLm9yZy9uYW1lc3BhY2VzL2lua3NjYXBlIiB4bWxuczpyZGY9Imh0dHA6Ly93d3cudzMub3JnLzE5OTkvMDIvMjItcmRmLXN5bnRheC1ucyMiIHhtbG5zOnNvZGlwb2RpPSJodHRwOi8vc29kaXBvZGkuc291cmNlZm9yZ2UubmV0L0RURC9zb2RpcG9kaS0wLmR0ZCIgeG1sbnM6c3ZnPSJodHRwOi8vd3d3LnczLm9yZy8yMDAwL3N2ZyIgeG1sbnM9Imh0dHA6Ly93d3cudzMub3JnLzIwMDAvc3ZnIiB4bWxuczp4bGluaz0iaHR0cDovL3d3dy53My5vcmcvMTk5OS94bGluayIgdmVyc2lvbj0iMS4xIiBpZD0ic3ZnMTU3MTE1IiBpbmtzY2FwZTp2ZXJzaW9uPSIwLjkyLjMgKDI0MDU1NDYsIDIwMTgtMDMtMTEpIiBzb2RpcG9kaTpkb2NuYW1lPSJmaXJld2FsbF8xLnN2ZyIgeD0iMHB4IiB5PSIwcHgiIHZpZXdCb3g9IjAgMCA3MS44OCA1Ni40NiIgc3R5bGU9ImVuYWJsZS1iYWNrZ3JvdW5kOm5ldyAwIDAgNzEuODggNTYuNDY7IiB4bWw6c3BhY2U9InByZXNlcnZlIj4mI3hhOzxzb2RpcG9kaTpuYW1lZHZpZXcgYm9yZGVyY29sb3I9IiM2NjY2NjYiIGJvcmRlcm9wYWNpdHk9IjEiIGZpdC1tYXJnaW4tYm90dG9tPSIwIiBmaXQtbWFyZ2luLWxlZnQ9IjAiIGZpdC1tYXJnaW4tcmlnaHQ9IjAiIGZpdC1tYXJnaW4tdG9wPSIwIiBncmlkdG9sZXJhbmNlPSIxMCIgZ3VpZGV0b2xlcmFuY2U9IjEwIiBpZD0ibmFtZWR2aWV3MTU3MTE3IiBpbmtzY2FwZTpjdXJyZW50LWxheWVyPSJzdmcxNTcxMTUiIGlua3NjYXBlOmN4PSI0Ny45MTgyNCIgaW5rc2NhcGU6Y3k9IjM3LjYzNzY0NyIgaW5rc2NhcGU6cGFnZW9wYWNpdHk9IjAiIGlua3NjYXBlOnBhZ2VzaGFkb3c9IjIiIGlua3NjYXBlOndpbmRvdy1oZWlnaHQ9IjEwMTciIGlua3NjYXBlOndpbmRvdy1tYXhpbWl6ZWQ9IjEiIGlua3NjYXBlOndpbmRvdy13aWR0aD0iMTkyMCIgaW5rc2NhcGU6d2luZG93LXg9Ii04IiBpbmtzY2FwZTp3aW5kb3cteT0iLTgiIGlua3NjYXBlOnpvb209IjExLjIxODI2MSIgb2JqZWN0dG9sZXJhbmNlPSIxMCIgcGFnZWNvbG9yPSIjZmZmZmZmIiBzaG93Z3JpZD0iZmFsc2UiPiYjeGE7CTwvc29kaXBvZGk6bmFtZWR2aWV3PiYjeGE7PGcgaWQ9ImcxNTcxMTMiIHRyYW5zZm9ybT0idHJhbnNsYXRlKC0wLjc1LC0wLjc0OTI4MjEyKSI+JiN4YTsJPHRpdGxlIGlkPSJ0aXRsZTE1NzA5OCI+UGFnZS0xPC90aXRsZT4mI3hhOwk8ZyBpZD0iZ3JvdXA5NTM4LTEiIHRyYW5zZm9ybT0idHJhbnNsYXRlKDAuNzUsLTAuNzUpIj4mI3hhOwkJPHRpdGxlIGlkPSJ0aXRsZTE1NzEwMCI+RmlyZXdhbGwgIzE8L3RpdGxlPiYjeGE7CQk8ZyBpZD0ic2hhcGU5NTM5LTIiIHRyYW5zZm9ybT0idHJhbnNsYXRlKDAsLTcuNDg3MDllLTQpIj4mI3hhOwkJCTx0aXRsZSBpZD0idGl0bGUxNTcxMDIiPnBhdGgxNTI5MS4zMjI1MjwvdGl0bGU+JiN4YTsJCQk8cGF0aCBpZD0icGF0aDE1NzEwNCIgaW5rc2NhcGU6Y29ubmVjdG9yLWN1cnZhdHVyZT0iMCIgc3R5bGU9ImZpbGw6IzQzNTY3MDsiIGQ9Ik0yMS45MSwxNy42MmMtMC41MSwwLjUxLTAuNzYsMS4xMS0wLjc2LDEuODEgICAgIHY1LjEzYzAsMC43LDAuMjUsMS4zLDAuNzYsMS44MWMwLjUxLDAuNSwxLjExLDAuNzYsMS44LDAuNzZoMTEuMzRjMC4yNy0yLjY0LDIuNjMtNC41Nyw1LjI4LTQuM2MwLjk1LDAuMSwxLjg0LDAuNDcsMi41NywxLjA4ICAgICBjMC44Ni0yLjIyLDEuNDQtNC41NywxLjc0LTcuMDVIMjMuNzFDMjMuMDIsMTYuODYsMjIuNDIsMTcuMTEsMjEuOTEsMTcuNjJ6IE0xMy40NSw0Ny43SDIuNTdjLTAuNywwLTEuMywwLjI1LTEuODEsMC43NiAgICAgQzAuMjUsNDguOTcsMCw0OS41NywwLDUwLjI2djUuMTRjMCwwLjY5LDAuMjUsMS4yOSwwLjc2LDEuOHMxLjExLDAuNzYsMS44MSwwLjc2aDEwLjg4YzAuNjksMCwxLjI5LTAuMjUsMS44LTAuNzYgICAgIHMwLjc2LTEuMTEsMC43Ni0xLjh2LTUuMTRjMC0wLjY5LTAuMjUtMS4yOS0wLjc2LTEuOEMxNC43NSw0Ny45NSwxNC4xNCw0Ny43LDEzLjQ1LDQ3Ljd6IE0yLjU3LDQyLjU2aDE4LjU4ICAgICBjMC42OSwwLDEuMjktMC4yNSwxLjgtMC43NmMwLjUxLTAuNSwwLjc2LTEuMTEsMC43Ni0xLjh2LTUuMTNjMC0wLjctMC4yNS0xLjMtMC43Ni0xLjgxYy0wLjUxLTAuNTEtMS4xMS0wLjc2LTEuOC0wLjc2SDIuNTcgICAgIGMtMC43LDAtMS4zLDAuMjUtMS44MSwwLjc2UzAsMzQuMTcsMCwzNC44N1Y0MGMwLDAuNjksMC4yNSwxLjMsMC43NiwxLjhDMS4yNyw0Mi4zMSwxLjg3LDQyLjU2LDIuNTcsNDIuNTZ6IE0zMi4yNiw1Mi43NyAgICAgTDMyLjI2LDUyLjc3Yy0wLjkyLTEuNTctMS41Ny0zLjI4LTEuOTEtNS4wN2gtNi42NGMtMC42OSwwLTEuMjksMC4yNS0xLjgsMC43NnMtMC43NiwxLjExLTAuNzYsMS44djUuMTQgICAgIGMwLDAuNjksMC4yNSwxLjI5LDAuNzYsMS44czEuMTEsMC43NiwxLjgsMC43NmgxMy4xQzM0LjgzLDU2LjMsMzMuMzIsNTQuNTcsMzIuMjYsNTIuNzd6IE00Ny4yMiw5LjQ1ICAgICBjMS41MS0wLjgzLDMuMzUtMC44LDQuODMsMC4wOWMwLjQsMC4yNCwwLjg4LDAuNTUsMS41MSwwLjk4YzAsMC4wMSwwLjAxLDAuMDEsMC4wMSwwLjAxYzAuMjksMC4yLDAuNzYsMC41NCwxLjcxLDEuMzFoMTQuMDEgICAgIGMwLjcsMCwxLjMxLTAuMjYsMS44Mi0wLjc3czAuNzctMS4xMiwwLjc3LTEuODJWNC4wOGMwLTAuNy0wLjI2LTEuMy0wLjc3LTEuODFDNzAuNiwxLjc2LDY5Ljk5LDEuNSw2OS4yOSwxLjVINDguNDQgICAgIGMtMC43LDAtMS4zMSwwLjI2LTEuODIsMC43N3MtMC43NywxLjExLTAuNzcsMS44MXY1LjE3YzAsMC4zOSwwLjA4LDAuNzQsMC4yMywxLjA3QzQ2LjQyLDkuOTgsNDYuOCw5LjY4LDQ3LjIyLDkuNDV6ICAgICAgTTIuNTcsMjcuMTNoMTAuODhjMC42OSwwLDEuMjktMC4yNiwxLjgtMC43N2MwLjUxLTAuNSwwLjc2LTEuMSwwLjc2LTEuOHYtNS4xM2MwLTAuNy0wLjI1LTEuMy0wLjc2LTEuODFzLTEuMTEtMC43Ni0xLjgtMC43NiAgICAgSDIuNTdjLTAuNywwLTEuMywwLjI1LTEuODEsMC43NkMwLjI1LDE4LjEzLDAsMTguNzMsMCwxOS40M3Y1LjEzYzAsMC43LDAuMjUsMS4zLDAuNzYsMS44QzEuMjcsMjYuODcsMS44NywyNy4xMywyLjU3LDI3LjEzeiAgICAgIE0zMS40MSwxMS43N2g2LjljMC43LDAsMS4zLTAuMjYsMS44LTAuNzdjMC41MS0wLjUsMC43Ny0xLjEsMC43Ny0xLjhWNC4wN2MwLTAuNy0wLjI2LTEuMy0wLjc3LTEuODEgICAgIGMtMC41LTAuNTEtMS4xLTAuNzYtMS44LTAuNzZoLTYuOWMtMC42OSwwLTEuMjksMC4yNS0xLjgsMC43NnMtMC43NiwxLjExLTAuNzYsMS44MVY5LjJjMCwwLjcsMC4yNSwxLjMsMC43NiwxLjgxICAgICBDMzAuMTIsMTEuNTEsMzAuNzIsMTEuNzcsMzEuNDEsMTEuNzd6IE0yLjU3LDExLjc3aDE4LjU4YzAuNjksMCwxLjI5LTAuMjYsMS44LTAuNzdjMC41MS0wLjUsMC43Ni0xLjEsMC43Ni0xLjhWNC4wNyAgICAgYzAtMC43LTAuMjUtMS4zLTAuNzYtMS44MWMtMC41MS0wLjUxLTEuMTEtMC43Ni0xLjgtMC43NkgyLjU3Yy0wLjcsMC0xLjMsMC4yNS0xLjgxLDAuNzZTMCwzLjM3LDAsNC4wN1Y5LjIgICAgIGMwLDAuNywwLjI1LDEuMywwLjc2LDEuODFDMS4yNywxMS41MSwxLjg3LDExLjc3LDIuNTcsMTEuNzd6Ii8+JiN4YTsJCTwvZz4mI3hhOwkJPGcgaWQ9InNoYXBlOTU0MC00IiB0cmFuc2Zvcm09InRyYW5zbGF0ZSgzNC40OTE1KSI+JiN4YTsJCQk8dGl0bGUgaWQ9InRpdGxlMTU3MTA3Ij5wYXRoMTUyOTMuMzIyNTM8L3RpdGxlPiYjeGE7CQkJPHBhdGggaWQ9InBhdGgxNTcxMDkiIGlua3NjYXBlOmNvbm5lY3Rvci1jdXJ2YXR1cmU9IjAiIHN0eWxlPSJmaWxsOiNGRjAwMDA7IiBkPSJNMTAuODYsNTcuOTZjLTQuNDUtMi41MS03LjQzLTUuMDUtOC45NC03LjYzICAgICBDMC40LDQ3Ljc1LDAsNDQuNzYsMC43MSw0MS4zNGMwLjMyLTEuMzUsMS4xNC0zLjUyLDIuNDYtNi41MmMxLjMyLTIuOTksMi4wNS01LjM5LDIuMTgtNy4yYzEuMjksMi4zOSwyLjAzLDQuNzcsMi4yMiw3LjE1ICAgICBjNC45LTYuMDUsNy40NC0xMy4xLDcuNjQtMjEuMTZjMC4zMiwwLjIsMC43NCwwLjQ3LDEuMjUsMC44MmMwLjUyLDAuMzYsMS40NywxLjExLDIuODUsMi4yN2MxLjM5LDEuMTYsMi42MSwyLjM3LDMuNjcsMy42MyAgICAgYzEuMDcsMS4yNSwyLjA2LDIuODUsMyw0Ljc4YzAuOTMsMS45MywxLjUsMy44NywxLjY5LDUuOGMwLjUxLTEuMTYsMC44NC0yLjQ1LDAuOTctMy44N2MwLjEzLTEuNDEtMC4wNC0yLjc0LTAuNDktMy45NiAgICAgYzAuNTIsMC4zOSwxLjE5LDEuMDMsMi4wMywxLjkzYzAuODQsMC45MSwxLjc3LDIuMTMsMi44LDMuNjdjMS4wNSwxLjU3LDEuOTcsMy4yMiwyLjc2LDQuOTNjMC44LDEuNzQsMS4zMiwzLjY5LDEuNTQsNS44NSAgICAgYzAuMjMsMi4xNiwwLjA4LDQuMjUtMC40Myw2LjI4Yy0wLjUyLDIuMDMtMS43MSw0LjEyLTMuNTgsNi4yOGMtMS44NywyLjE2LTQuMzgsNC4xNC03LjUzLDUuOTRjMi4xMi00LjI1LDIuNTQtOC44NCwxLjI1LTEzLjc3ICAgICBzLTMuODMtOC43MS03LjYzLTExLjM1YzAuMzIsMS40MiwwLjE0LDMuNzUtMC41Myw3Yy0wLjY4LDMuMjYtMS43Niw1LjcyLTMuMjQsNy40YzAuMjYtMi4wNywwLjMyLTMuNzQsMC4xOS01LjAzICAgICBjLTAuMTMtMS4yOS0wLjMyLTIuMjUtMC41OC0yLjlsLTAuNDgtMC44N2MtMC4zOSwyLjMyLTEuMzksNC42NC0yLjk5LDYuOTZjLTAuODQsMS4yMy0xLjQ3LDIuMzUtMS44OSwzLjM4ICAgICBjLTAuNDIsMS4wMy0wLjU4LDIuMzUtMC40OCwzLjk2QzkuNDYsNTQuMzYsOS45NSw1Ni4xLDEwLjg2LDU3Ljk2eiIvPiYjeGE7CQk8L2c+JiN4YTsJPC9nPiYjeGE7PC9nPiYjeGE7PC9zdmc+;fontSize=14;fontColor=#004C99;html=1;" vertex="1" parent="1">
          <mxGeometry x="1057" y="470" width="72" height="56" as="geometry" />
        </mxCell>
        <mxCell id="JQ6tBwWLcFrwbUFlZFzO-2106" value="System Services/ Devices Management" style="rounded=1;whiteSpace=wrap;html=1;dashed=1;strokeColor=none;strokeWidth=2;fillColor=#FFFFFF;fontFamily=Helvetica;fontSize=14;fontColor=#FFB366;opacity=75;verticalAlign=top;fontStyle=1" vertex="1" parent="1">
          <mxGeometry x="866" y="606" width="140" height="133" as="geometry" />
        </mxCell>
        <mxCell id="JQ6tBwWLcFrwbUFlZFzO-2107" value="System tools" style="verticalLabelPosition=bottom;html=1;verticalAlign=top;strokeColor=none;fillColor=#3399FF;shape=mxgraph.azure.server_rack;dashed=1;fontFamily=Helvetica;fontSize=14;fontColor=#004C99" vertex="1" parent="1">
          <mxGeometry x="909.5" y="667" width="50" height="40" as="geometry" />
        </mxCell>
        <mxCell id="JQ6tBwWLcFrwbUFlZFzO-2108" value="System D" style="shape=image;verticalLabelPosition=bottom;labelBackgroundColor=none;verticalAlign=top;aspect=fixed;imageAspect=0;image=data:image/svg+xml,PHN2ZyB4bWxuczpjYz0iaHR0cDovL2NyZWF0aXZlY29tbW9ucy5vcmcvbnMjIiB4bWxuczpkYz0iaHR0cDovL3B1cmwub3JnL2RjL2VsZW1lbnRzLzEuMS8iIHhtbG5zOmlua3NjYXBlPSJodHRwOi8vd3d3Lmlua3NjYXBlLm9yZy9uYW1lc3BhY2VzL2lua3NjYXBlIiB4bWxuczpyZGY9Imh0dHA6Ly93d3cudzMub3JnLzE5OTkvMDIvMjItcmRmLXN5bnRheC1ucyMiIHhtbG5zOnNvZGlwb2RpPSJodHRwOi8vc29kaXBvZGkuc291cmNlZm9yZ2UubmV0L0RURC9zb2RpcG9kaS0wLmR0ZCIgeG1sbnM6c3ZnPSJodHRwOi8vd3d3LnczLm9yZy8yMDAwL3N2ZyIgeG1sbnM9Imh0dHA6Ly93d3cudzMub3JnLzIwMDAvc3ZnIiB4bWxuczp4bGluaz0iaHR0cDovL3d3dy53My5vcmcvMTk5OS94bGluayIgdmVyc2lvbj0iMS4xIiBpZD0ic3ZnODk3NDEiIGlua3NjYXBlOnZlcnNpb249IjAuOTIuMyAoMjQwNTU0NiwgMjAxOC0wMy0xMSkiIHNvZGlwb2RpOmRvY25hbWU9InNlcnZpY2VfZmFicmljLnN2ZyIgeD0iMHB4IiB5PSIwcHgiIHZpZXdCb3g9IjAgMCAxNjQuOTkgODIuNzEiIHN0eWxlPSJlbmFibGUtYmFja2dyb3VuZDpuZXcgMCAwIDE2NC45OSA4Mi43MTsiIHhtbDpzcGFjZT0icHJlc2VydmUiPiYjeGE7PHNvZGlwb2RpOm5hbWVkdmlldyBib3JkZXJjb2xvcj0iIzY2NjY2NiIgYm9yZGVyb3BhY2l0eT0iMSIgZml0LW1hcmdpbi1ib3R0b209IjAiIGZpdC1tYXJnaW4tbGVmdD0iMCIgZml0LW1hcmdpbi1yaWdodD0iMCIgZml0LW1hcmdpbi10b3A9IjAiIGdyaWR0b2xlcmFuY2U9IjEwIiBndWlkZXRvbGVyYW5jZT0iMTAiIGlkPSJuYW1lZHZpZXc4OTc0MyIgaW5rc2NhcGU6Y3VycmVudC1sYXllcj0ic3ZnODk3NDEiIGlua3NjYXBlOmN4PSIxMjAuODk1MTQiIGlua3NjYXBlOmN5PSI1MC4wNjg0NjIiIGlua3NjYXBlOnBhZ2VvcGFjaXR5PSIwIiBpbmtzY2FwZTpwYWdlc2hhZG93PSIyIiBpbmtzY2FwZTp3aW5kb3ctaGVpZ2h0PSIxMDE3IiBpbmtzY2FwZTp3aW5kb3ctbWF4aW1pemVkPSIxIiBpbmtzY2FwZTp3aW5kb3ctd2lkdGg9IjE5MjAiIGlua3NjYXBlOndpbmRvdy14PSItOCIgaW5rc2NhcGU6d2luZG93LXk9Ii04IiBpbmtzY2FwZTp6b29tPSIzLjI3NTE2NjkiIG9iamVjdHRvbGVyYW5jZT0iMTAiIHBhZ2Vjb2xvcj0iI2ZmZmZmZiIgc2hvd2dyaWQ9ImZhbHNlIj4mI3hhOwk8L3NvZGlwb2RpOm5hbWVkdmlldz4mI3hhOzxnIGlkPSJnODk3MzkiIHRyYW5zZm9ybT0idHJhbnNsYXRlKDAsLTAuMDAzMykiPiYjeGE7CTx0aXRsZSBpZD0idGl0bGU4OTU4OSI+UGFnZS0xPC90aXRsZT4mI3hhOwk8ZyBpZD0iZ3JvdXAxOTUyLTEiPiYjeGE7CQk8dGl0bGUgaWQ9InRpdGxlODk1OTEiPlNlcnZpY2UgRmFicmljPC90aXRsZT4mI3hhOwkJPGcgaWQ9InNoYXBlMTk1My0yIiB0cmFuc2Zvcm09InRyYW5zbGF0ZSgxLjIyNDMzLC02Ny4zOTY3KSI+JiN4YTsJCQk8dGl0bGUgaWQ9InRpdGxlODk1OTMiPlNoZWV0LjE5NTM8L3RpdGxlPiYjeGE7CQkJPHBhdGggaWQ9InBhdGg4OTU5NSIgaW5rc2NhcGU6Y29ubmVjdG9yLWN1cnZhdHVyZT0iMCIgc3R5bGU9ImZpbGw6IzdGN0Y3RjsiIGQ9Ik0wLDc1LjA2bDMuODMtNy42Nmg5LjQ4bDMuODMsNy42NmwtMy44Myw3LjY1ICAgICBIMy44M0wwLDc1LjA2eiIvPiYjeGE7CQk8L2c+JiN4YTsJCTxnIGlkPSJzaGFwZTE5NTQtNCIgdHJhbnNmb3JtPSJ0cmFuc2xhdGUoMTUuOTE2MywtNTguODE4OSkiPiYjeGE7CQkJPHRpdGxlIGlkPSJ0aXRsZTg5NTk4Ij5TaGVldC4xOTU0PC90aXRsZT4mI3hhOwkJCTxwYXRoIGlkPSJwYXRoODk2MDAiIGlua3NjYXBlOmNvbm5lY3Rvci1jdXJ2YXR1cmU9IjAiIHN0eWxlPSJmaWxsOiM1OTU5NTk7IiBkPSJNMCw3NC43NWwzLjk4LTcuOTdoOS4xOGwzLjk4LDcuOTdsLTMuOTgsNy45NiAgICAgSDMuOThMMCw3NC43NXoiLz4mI3hhOwkJPC9nPiYjeGE7CQk8ZyBpZD0ic2hhcGUxOTU1LTYiIHRyYW5zZm9ybT0idHJhbnNsYXRlKDEuMjI0MzMsLTUwLjI0MTEpIj4mI3hhOwkJCTx0aXRsZSBpZD0idGl0bGU4OTYwMyI+U2hlZXQuMTk1NTwvdGl0bGU+JiN4YTsJCQk8cGF0aCBpZD0icGF0aDg5NjA1IiBpbmtzY2FwZTpjb25uZWN0b3ItY3VydmF0dXJlPSIwIiBzdHlsZT0iZmlsbDojNTk1OTU5OyIgZD0iTTAsNzQuNzVsMy45OC03Ljk3aDkuMThsMy45OCw3Ljk3bC0zLjk4LDcuOTYgICAgIEgzLjk4TDAsNzQuNzV6Ii8+JiN4YTsJCTwvZz4mI3hhOwkJPGcgaWQ9InNoYXBlMTk1Ni04IiB0cmFuc2Zvcm09InRyYW5zbGF0ZSgxNS45MTYzLC00Mi4yNzYxKSI+JiN4YTsJCQk8dGl0bGUgaWQ9InRpdGxlODk2MDgiPlNoZWV0LjE5NTY8L3RpdGxlPiYjeGE7CQkJPHBhdGggaWQ9InBhdGg4OTYxMCIgaW5rc2NhcGU6Y29ubmVjdG9yLWN1cnZhdHVyZT0iMCIgc3R5bGU9ImZpbGw6IzdGN0Y3RjsiIGQ9Ik0wLDc1LjA2bDMuODMtNy42Nmg5LjQ4bDMuODMsNy42NmwtMy44Myw3LjY1ICAgICBIMy44M0wwLDc1LjA2eiIvPiYjeGE7CQk8L2c+JiN4YTsJCTxnIGlkPSJzaGFwZTE5NTctMTAiIHRyYW5zZm9ybT0idHJhbnNsYXRlKDI5Ljk5NjIsLTY3LjM5NjcpIj4mI3hhOwkJCTx0aXRsZSBpZD0idGl0bGU4OTYxMyI+U2hlZXQuMTk1NzwvdGl0bGU+JiN4YTsJCQk8cGF0aCBpZD0icGF0aDg5NjE1IiBpbmtzY2FwZTpjb25uZWN0b3ItY3VydmF0dXJlPSIwIiBzdHlsZT0iZmlsbDojN0Y3RjdGOyIgZD0iTTAsNzUuMDZsMy44My03LjY2aDEwLjFsMy44Miw3LjY2bC0zLjgyLDcuNjUgICAgIEgzLjgzTDAsNzUuMDZ6Ii8+JiN4YTsJCTwvZz4mI3hhOwkJPGcgaWQ9InNoYXBlMTk1OC0xMiIgdHJhbnNmb3JtPSJ0cmFuc2xhdGUoNDQuNjg4MiwtNTguODE4OSkiPiYjeGE7CQkJPHRpdGxlIGlkPSJ0aXRsZTg5NjE4Ij5TaGVldC4xOTU4PC90aXRsZT4mI3hhOwkJCTxwYXRoIGlkPSJwYXRoODk2MjAiIGlua3NjYXBlOmNvbm5lY3Rvci1jdXJ2YXR1cmU9IjAiIHN0eWxlPSJmaWxsOiM1OTU5NTk7IiBkPSJNMCw3NC43NWwzLjk4LTcuOTdoOS4xOGwzLjk4LDcuOTdsLTMuOTgsNy45NiAgICAgSDMuOThMMCw3NC43NXoiLz4mI3hhOwkJPC9nPiYjeGE7CQk8ZyBpZD0ic2hhcGUxOTU5LTE0IiB0cmFuc2Zvcm09InRyYW5zbGF0ZSgyOS45OTYyLC01MC4yNDExKSI+JiN4YTsJCQk8dGl0bGUgaWQ9InRpdGxlODk2MjMiPlNoZWV0LjE5NTk8L3RpdGxlPiYjeGE7CQkJPHBhdGggaWQ9InBhdGg4OTYyNSIgaW5rc2NhcGU6Y29ubmVjdG9yLWN1cnZhdHVyZT0iMCIgc3R5bGU9ImZpbGw6IzU5NTk1OTsiIGQ9Ik0wLDc0Ljc1bDMuOTgtNy45N2g5Ljc5bDMuOTgsNy45N2wtMy45OCw3Ljk2ICAgICBIMy45OEwwLDc0Ljc1eiIvPiYjeGE7CQk8L2c+JiN4YTsJCTxnIGlkPSJzaGFwZTE5NjAtMTYiIHRyYW5zZm9ybT0idHJhbnNsYXRlKDQ0LjY4ODIsLTQyLjI3NjEpIj4mI3hhOwkJCTx0aXRsZSBpZD0idGl0bGU4OTYyOCI+U2hlZXQuMTk2MDwvdGl0bGU+JiN4YTsJCQk8cGF0aCBpZD0icGF0aDg5NjMwIiBpbmtzY2FwZTpjb25uZWN0b3ItY3VydmF0dXJlPSIwIiBzdHlsZT0iZmlsbDojN0Y3RjdGOyIgZD0iTTAsNzUuMDZsMy44My03LjY2aDkuNDhsMy44Myw3LjY2bC0zLjgzLDcuNjUgICAgIEgzLjgzTDAsNzUuMDZ6Ii8+JiN4YTsJCTwvZz4mI3hhOwkJPGcgaWQ9InNoYXBlMTk2MS0xOCIgdHJhbnNmb3JtPSJ0cmFuc2xhdGUoNTkuMzgwMiwtNjcuMzk2NykiPiYjeGE7CQkJPHRpdGxlIGlkPSJ0aXRsZTg5NjMzIj5TaGVldC4xOTYxPC90aXRsZT4mI3hhOwkJCTxwYXRoIGlkPSJwYXRoODk2MzUiIGlua3NjYXBlOmNvbm5lY3Rvci1jdXJ2YXR1cmU9IjAiIHN0eWxlPSJmaWxsOiM3RjdGN0Y7IiBkPSJNMCw3NS4wNmwzLjgzLTcuNjZoOS40OGwzLjgzLDcuNjZsLTMuODMsNy42NSAgICAgSDMuODNMMCw3NS4wNnoiLz4mI3hhOwkJPC9nPiYjeGE7CQk8ZyBpZD0ic2hhcGUxOTYyLTIwIiB0cmFuc2Zvcm09InRyYW5zbGF0ZSg3NC4wNzIyLC01OC44MTg5KSI+JiN4YTsJCQk8dGl0bGUgaWQ9InRpdGxlODk2MzgiPlNoZWV0LjE5NjI8L3RpdGxlPiYjeGE7CQkJPHBhdGggaWQ9InBhdGg4OTY0MCIgaW5rc2NhcGU6Y29ubmVjdG9yLWN1cnZhdHVyZT0iMCIgc3R5bGU9ImZpbGw6IzU5NTk1OTsiIGQ9Ik0wLDc0Ljc1bDMuOTgtNy45N2g5LjE4bDMuOTgsNy45N2wtMy45OCw3Ljk2ICAgICBIMy45OEwwLDc0Ljc1eiIvPiYjeGE7CQk8L2c+JiN4YTsJCTxnIGlkPSJzaGFwZTE5NjMtMjIiIHRyYW5zZm9ybT0idHJhbnNsYXRlKDU5LjM4MDIsLTUwLjI0MTEpIj4mI3hhOwkJCTx0aXRsZSBpZD0idGl0bGU4OTY0MyI+U2hlZXQuMTk2MzwvdGl0bGU+JiN4YTsJCQk8cGF0aCBpZD0icGF0aDg5NjQ1IiBpbmtzY2FwZTpjb25uZWN0b3ItY3VydmF0dXJlPSIwIiBzdHlsZT0iZmlsbDojNTk1OTU5OyIgZD0iTTAsNzQuNzVsMy45OC03Ljk3aDkuMThsMy45OCw3Ljk3bC0zLjk4LDcuOTYgICAgIEgzLjk4TDAsNzQuNzV6Ii8+JiN4YTsJCTwvZz4mI3hhOwkJPGcgaWQ9InNoYXBlMTk2NC0yNCIgdHJhbnNmb3JtPSJ0cmFuc2xhdGUoNzQuMDcyMiwtNDIuMjc2MSkiPiYjeGE7CQkJPHRpdGxlIGlkPSJ0aXRsZTg5NjQ4Ij5TaGVldC4xOTY0PC90aXRsZT4mI3hhOwkJCTxwYXRoIGlkPSJwYXRoODk2NTAiIGlua3NjYXBlOmNvbm5lY3Rvci1jdXJ2YXR1cmU9IjAiIHN0eWxlPSJmaWxsOiM3RjdGN0Y7IiBkPSJNMCw3NS4wNmwzLjgzLTcuNjZoOS40OGwzLjgzLDcuNjZsLTMuODMsNy42NSAgICAgSDMuODNMMCw3NS4wNnoiLz4mI3hhOwkJPC9nPiYjeGE7CQk8ZyBpZD0ic2hhcGUxOTY1LTI2IiB0cmFuc2Zvcm09InRyYW5zbGF0ZSg4OC4xNTIxLC02Ny4zOTY3KSI+JiN4YTsJCQk8dGl0bGUgaWQ9InRpdGxlODk2NTMiPlNoZWV0LjE5NjU8L3RpdGxlPiYjeGE7CQkJPHBhdGggaWQ9InBhdGg4OTY1NSIgaW5rc2NhcGU6Y29ubmVjdG9yLWN1cnZhdHVyZT0iMCIgc3R5bGU9ImZpbGw6IzdGN0Y3RjsiIGQ9Ik0wLDc1LjA2bDMuODMtNy42Nmg5LjQ4bDMuODMsNy42NmwtMy44Myw3LjY1ICAgICBIMy44M0wwLDc1LjA2eiIvPiYjeGE7CQk8L2c+JiN4YTsJCTxnIGlkPSJzaGFwZTE5NjYtMjgiIHRyYW5zZm9ybT0idHJhbnNsYXRlKDEwMi44NDQsLTU4LjgxODkpIj4mI3hhOwkJCTx0aXRsZSBpZD0idGl0bGU4OTY1OCI+U2hlZXQuMTk2NjwvdGl0bGU+JiN4YTsJCQk8cGF0aCBpZD0icGF0aDg5NjYwIiBpbmtzY2FwZTpjb25uZWN0b3ItY3VydmF0dXJlPSIwIiBzdHlsZT0iZmlsbDojNTk1OTU5OyIgZD0iTTAsNzQuNzVsMy45OC03Ljk3aDkuMThsMy45OCw3Ljk3bC0zLjk4LDcuOTYgICAgIEgzLjk4TDAsNzQuNzV6Ii8+JiN4YTsJCTwvZz4mI3hhOwkJPGcgaWQ9InNoYXBlMTk2Ny0zMCIgdHJhbnNmb3JtPSJ0cmFuc2xhdGUoODguMTUyMSwtNTAuMjQxMSkiPiYjeGE7CQkJPHRpdGxlIGlkPSJ0aXRsZTg5NjYzIj5TaGVldC4xOTY3PC90aXRsZT4mI3hhOwkJCTxwYXRoIGlkPSJwYXRoODk2NjUiIGlua3NjYXBlOmNvbm5lY3Rvci1jdXJ2YXR1cmU9IjAiIHN0eWxlPSJmaWxsOiM1OTU5NTk7IiBkPSJNMCw3NC43NWwzLjk4LTcuOTdoOS4xOGwzLjk4LDcuOTdsLTMuOTgsNy45NiAgICAgSDMuOThMMCw3NC43NXoiLz4mI3hhOwkJPC9nPiYjeGE7CQk8ZyBpZD0ic2hhcGUxOTY4LTMyIiB0cmFuc2Zvcm09InRyYW5zbGF0ZSgxMDIuODQ0LC00Mi4yNzYxKSI+JiN4YTsJCQk8dGl0bGUgaWQ9InRpdGxlODk2NjgiPlNoZWV0LjE5Njg8L3RpdGxlPiYjeGE7CQkJPHBhdGggaWQ9InBhdGg4OTY3MCIgaW5rc2NhcGU6Y29ubmVjdG9yLWN1cnZhdHVyZT0iMCIgc3R5bGU9ImZpbGw6IzdGN0Y3RjsiIGQ9Ik0wLDc1LjA2bDMuODMtNy42Nmg5LjQ4bDMuODMsNy42NmwtMy44Myw3LjY1ICAgICBIMy44M0wwLDc1LjA2eiIvPiYjeGE7CQk8L2c+JiN4YTsJCTxnIGlkPSJzaGFwZTE5NjktMzQiIHRyYW5zZm9ybT0idHJhbnNsYXRlKDExNi45MjQsLTY3LjM5NjcpIj4mI3hhOwkJCTx0aXRsZSBpZD0idGl0bGU4OTY3MyI+U2hlZXQuMTk2OTwvdGl0bGU+JiN4YTsJCQk8cGF0aCBpZD0icGF0aDg5Njc1IiBpbmtzY2FwZTpjb25uZWN0b3ItY3VydmF0dXJlPSIwIiBzdHlsZT0iZmlsbDojN0Y3RjdGOyIgZD0iTTAsNzUuMDZsMy44My03LjY2aDEwLjFsMy44Miw3LjY2bC0zLjgyLDcuNjUgICAgIEgzLjgzTDAsNzUuMDZ6Ii8+JiN4YTsJCTwvZz4mI3hhOwkJPGcgaWQ9InNoYXBlMTk3MC0zNiIgdHJhbnNmb3JtPSJ0cmFuc2xhdGUoMTMxLjYxNiwtNTguODE4OSkiPiYjeGE7CQkJPHRpdGxlIGlkPSJ0aXRsZTg5Njc4Ij5TaGVldC4xOTcwPC90aXRsZT4mI3hhOwkJCTxwYXRoIGlkPSJwYXRoODk2ODAiIGlua3NjYXBlOmNvbm5lY3Rvci1jdXJ2YXR1cmU9IjAiIHN0eWxlPSJmaWxsOiM1OTU5NTk7IiBkPSJNMCw3NC43NWwzLjk4LTcuOTdoOS4xOGwzLjk4LDcuOTdsLTMuOTgsNy45NiAgICAgSDMuOThMMCw3NC43NXoiLz4mI3hhOwkJPC9nPiYjeGE7CQk8ZyBpZD0ic2hhcGUxOTcxLTM4IiB0cmFuc2Zvcm09InRyYW5zbGF0ZSgxMTYuOTI0LC01MC4yNDExKSI+JiN4YTsJCQk8dGl0bGUgaWQ9InRpdGxlODk2ODMiPlNoZWV0LjE5NzE8L3RpdGxlPiYjeGE7CQkJPHBhdGggaWQ9InBhdGg4OTY4NSIgaW5rc2NhcGU6Y29ubmVjdG9yLWN1cnZhdHVyZT0iMCIgc3R5bGU9ImZpbGw6IzU5NTk1OTsiIGQ9Ik0wLDc0Ljc1bDMuOTgtNy45N2g5Ljc5bDMuOTgsNy45N2wtMy45OCw3Ljk2ICAgICBIMy45OEwwLDc0Ljc1eiIvPiYjeGE7CQk8L2c+JiN4YTsJCTxnIGlkPSJzaGFwZTE5NzItNDAiIHRyYW5zZm9ybT0idHJhbnNsYXRlKDEzMS42MTYsLTQyLjI3NjEpIj4mI3hhOwkJCTx0aXRsZSBpZD0idGl0bGU4OTY4OCI+U2hlZXQuMTk3MjwvdGl0bGU+JiN4YTsJCQk8cGF0aCBpZD0icGF0aDg5NjkwIiBpbmtzY2FwZTpjb25uZWN0b3ItY3VydmF0dXJlPSIwIiBzdHlsZT0iZmlsbDojN0Y3RjdGOyIgZD0iTTAsNzUuMDZsMy44My03LjY2aDkuNDhsMy44Myw3LjY2bC0zLjgzLDcuNjUgICAgIEgzLjgzTDAsNzUuMDZ6Ii8+JiN4YTsJCTwvZz4mI3hhOwkJPGcgaWQ9InNoYXBlMTk3My00MiIgdHJhbnNmb3JtPSJ0cmFuc2xhdGUoMTQ1LjY5NiwtNjcuMzk2NykiPiYjeGE7CQkJPHRpdGxlIGlkPSJ0aXRsZTg5NjkzIj5TaGVldC4xOTczPC90aXRsZT4mI3hhOwkJCTxwYXRoIGlkPSJwYXRoODk2OTUiIGlua3NjYXBlOmNvbm5lY3Rvci1jdXJ2YXR1cmU9IjAiIHN0eWxlPSJmaWxsOiM3RjdGN0Y7IiBkPSJNMCw3NS4wNmwzLjgzLTcuNjZoOS40OGwzLjgzLDcuNjZsLTMuODMsNy42NSAgICAgSDMuODNMMCw3NS4wNnoiLz4mI3hhOwkJPC9nPiYjeGE7CQk8ZyBpZD0ic2hhcGUxOTc0LTQ0IiB0cmFuc2Zvcm09InRyYW5zbGF0ZSgxNDUuNjk2LC01MC4yNDExKSI+JiN4YTsJCQk8dGl0bGUgaWQ9InRpdGxlODk2OTgiPlNoZWV0LjE5NzQ8L3RpdGxlPiYjeGE7CQkJPHBhdGggaWQ9InBhdGg4OTcwMCIgaW5rc2NhcGU6Y29ubmVjdG9yLWN1cnZhdHVyZT0iMCIgc3R5bGU9ImZpbGw6IzU5NTk1OTsiIGQ9Ik0wLDc0Ljc1bDMuOTgtNy45N2g5LjE4bDMuOTgsNy45N2wtMy45OCw3Ljk2ICAgICBIMy45OEwwLDc0Ljc1eiIvPiYjeGE7CQk8L2c+JiN4YTsJCTxnIGlkPSJzaGFwZTE5NzUtNDYiIHRyYW5zZm9ybT0idHJhbnNsYXRlKDEuMjI0MzMsLTMxLjI0NzUpIj4mI3hhOwkJCTx0aXRsZSBpZD0idGl0bGU4OTcwMyI+U2hlZXQuMTk3NTwvdGl0bGU+JiN4YTsJCQk8cGF0aCBpZD0icGF0aDg5NzA1IiBpbmtzY2FwZTpjb25uZWN0b3ItY3VydmF0dXJlPSIwIiBzdHlsZT0iZmlsbDojM0Y1NzY1OyIgZD0iTTAsNzQuNzVsMy45OC03Ljk3aDkuMThsMy45OCw3Ljk3bC0zLjk4LDcuOTYgICAgIEgzLjk4TDAsNzQuNzV6Ii8+JiN4YTsJCTwvZz4mI3hhOwkJPGcgaWQ9InNoYXBlMTk3Ni00OCIgdHJhbnNmb3JtPSJ0cmFuc2xhdGUoMjkuOTk2MiwtMzEuMjQ3NSkiPiYjeGE7CQkJPHRpdGxlIGlkPSJ0aXRsZTg5NzA4Ij5TaGVldC4xOTc2PC90aXRsZT4mI3hhOwkJCTxwYXRoIGlkPSJwYXRoODk3MTAiIGlua3NjYXBlOmNvbm5lY3Rvci1jdXJ2YXR1cmU9IjAiIHN0eWxlPSJmaWxsOiMzRjU3NjU7IiBkPSJNMCw3NC43NWwzLjk4LTcuOTdoOS4xOGwzLjk4LDcuOTdsLTMuOTgsNy45NiAgICAgSDMuOThMMCw3NC43NXoiLz4mI3hhOwkJPC9nPiYjeGE7CQk8ZyBpZD0ic2hhcGUxOTc3LTUwIiB0cmFuc2Zvcm09InRyYW5zbGF0ZSg1OS4zODAyLC0zMS4yNDc1KSI+JiN4YTsJCQk8dGl0bGUgaWQ9InRpdGxlODk3MTMiPlNoZWV0LjE5Nzc8L3RpdGxlPiYjeGE7CQkJPHBhdGggaWQ9InBhdGg4OTcxNSIgaW5rc2NhcGU6Y29ubmVjdG9yLWN1cnZhdHVyZT0iMCIgc3R5bGU9ImZpbGw6IzNGNTc2NTsiIGQ9Ik0wLDc0Ljc1bDMuOTgtNy45N2g5LjE4bDMuOTgsNy45N2wtMy45OCw3Ljk2ICAgICBIMy45OEwwLDc0Ljc1eiIvPiYjeGE7CQk8L2c+JiN4YTsJCTxnIGlkPSJzaGFwZTE5NzgtNTIiIHRyYW5zZm9ybT0idHJhbnNsYXRlKDg4LjE1MjEsLTMxLjI0NzUpIj4mI3hhOwkJCTx0aXRsZSBpZD0idGl0bGU4OTcxOCI+U2hlZXQuMTk3ODwvdGl0bGU+JiN4YTsJCQk8cGF0aCBpZD0icGF0aDg5NzIwIiBpbmtzY2FwZTpjb25uZWN0b3ItY3VydmF0dXJlPSIwIiBzdHlsZT0iZmlsbDojM0Y1NzY1OyIgZD0iTTAsNzQuNzVsMy45OC03Ljk3aDkuMThsMy45OCw3Ljk3bC0zLjk4LDcuOTYgICAgIEgzLjk4TDAsNzQuNzV6Ii8+JiN4YTsJCTwvZz4mI3hhOwkJPGcgaWQ9InNoYXBlMTk3OS01NCIgdHJhbnNmb3JtPSJ0cmFuc2xhdGUoMTE3LjUzNiwtMzEuMjQ3NSkiPiYjeGE7CQkJPHRpdGxlIGlkPSJ0aXRsZTg5NzIzIj5TaGVldC4xOTc5PC90aXRsZT4mI3hhOwkJCTxwYXRoIGlkPSJwYXRoODk3MjUiIGlua3NjYXBlOmNvbm5lY3Rvci1jdXJ2YXR1cmU9IjAiIHN0eWxlPSJmaWxsOiMzRjU3NjU7IiBkPSJNMCw3NC43NWwzLjk4LTcuOTdoOS4xOGwzLjk4LDcuOTdsLTMuOTgsNy45NiAgICAgSDMuOThMMCw3NC43NXoiLz4mI3hhOwkJPC9nPiYjeGE7CQk8ZyBpZD0ic2hhcGUxOTgwLTU2IiB0cmFuc2Zvcm09InRyYW5zbGF0ZSgxNDUuNjk2LC0zMS4yNDc1KSI+JiN4YTsJCQk8dGl0bGUgaWQ9InRpdGxlODk3MjgiPlNoZWV0LjE5ODA8L3RpdGxlPiYjeGE7CQkJPHBhdGggaWQ9InBhdGg4OTczMCIgaW5rc2NhcGU6Y29ubmVjdG9yLWN1cnZhdHVyZT0iMCIgc3R5bGU9ImZpbGw6IzNGNTc2NTsiIGQ9Ik0wLDc0Ljc1bDMuOTgtNy45N2g5Ljc5bDMuOTgsNy45N2wtMy45OCw3Ljk2ICAgICBIMy45OEwwLDc0Ljc1eiIvPiYjeGE7CQk8L2c+JiN4YTsJCTxnIGlkPSJzaGFwZTE5ODEtNTgiPiYjeGE7CQkJPHRpdGxlIGlkPSJ0aXRsZTg5NzMzIj5TaGVldC4xOTgxPC90aXRsZT4mI3hhOwkJCTxwYXRoIGlkPSJwYXRoODk3MzUiIGlua3NjYXBlOmNvbm5lY3Rvci1jdXJ2YXR1cmU9IjAiIHN0eWxlPSJmaWxsOiMzRjU3NjU7IiBkPSJNMCw0My41djM5LjIxaDE2NC45OVY0My41SDB6Ii8+JiN4YTsJCTwvZz4mI3hhOwk8L2c+JiN4YTs8L2c+JiN4YTs8L3N2Zz4=;fontSize=14;fontColor=#004C99;fillColor=#9494FF;html=1;" vertex="1" parent="1">
          <mxGeometry x="1050.5" y="561" width="90" height="45.27" as="geometry" />
        </mxCell>
        <mxCell id="JQ6tBwWLcFrwbUFlZFzO-2111" value="udev" style="shape=image;verticalLabelPosition=bottom;labelBackgroundColor=none;verticalAlign=top;aspect=fixed;imageAspect=0;image=data:image/svg+xml,PHN2ZyB4bWxuczpjYz0iaHR0cDovL2NyZWF0aXZlY29tbW9ucy5vcmcvbnMjIiB4bWxuczpkYz0iaHR0cDovL3B1cmwub3JnL2RjL2VsZW1lbnRzLzEuMS8iIHhtbG5zOmlua3NjYXBlPSJodHRwOi8vd3d3Lmlua3NjYXBlLm9yZy9uYW1lc3BhY2VzL2lua3NjYXBlIiB4bWxuczpyZGY9Imh0dHA6Ly93d3cudzMub3JnLzE5OTkvMDIvMjItcmRmLXN5bnRheC1ucyMiIHhtbG5zOnNvZGlwb2RpPSJodHRwOi8vc29kaXBvZGkuc291cmNlZm9yZ2UubmV0L0RURC9zb2RpcG9kaS0wLmR0ZCIgeG1sbnM6c3ZnPSJodHRwOi8vd3d3LnczLm9yZy8yMDAwL3N2ZyIgeG1sbnM9Imh0dHA6Ly93d3cudzMub3JnLzIwMDAvc3ZnIiB4bWxuczp4bGluaz0iaHR0cDovL3d3dy53My5vcmcvMTk5OS94bGluayIgdmVyc2lvbj0iMS4xIiBpZD0ic3ZnNjg3OTEiIGlua3NjYXBlOnZlcnNpb249IjAuOTIuMyAoMjQwNTU0NiwgMjAxOC0wMy0xMSkiIHNvZGlwb2RpOmRvY25hbWU9ImxvYl9hZGFwdGVycy5zdmciIHg9IjBweCIgeT0iMHB4IiB2aWV3Qm94PSIwIDAgNDMuNSA1MS4zOCIgc3R5bGU9ImVuYWJsZS1iYWNrZ3JvdW5kOm5ldyAwIDAgNDMuNSA1MS4zODsiIHhtbDpzcGFjZT0icHJlc2VydmUiPiYjeGE7PHNvZGlwb2RpOm5hbWVkdmlldyBib3JkZXJjb2xvcj0iIzY2NjY2NiIgYm9yZGVyb3BhY2l0eT0iMSIgZml0LW1hcmdpbi1ib3R0b209IjAiIGZpdC1tYXJnaW4tbGVmdD0iMCIgZml0LW1hcmdpbi1yaWdodD0iMCIgZml0LW1hcmdpbi10b3A9IjAiIGdyaWR0b2xlcmFuY2U9IjEwIiBndWlkZXRvbGVyYW5jZT0iMTAiIGlkPSJuYW1lZHZpZXc2ODc5MyIgaW5rc2NhcGU6Y3VycmVudC1sYXllcj0ic3ZnNjg3OTEiIGlua3NjYXBlOmN4PSIyNy44MTQwOTkiIGlua3NjYXBlOmN5PSIzMC42NjgyMDgiIGlua3NjYXBlOnBhZ2VvcGFjaXR5PSIwIiBpbmtzY2FwZTpwYWdlc2hhZG93PSIyIiBpbmtzY2FwZTp3aW5kb3ctaGVpZ2h0PSIxMDE3IiBpbmtzY2FwZTp3aW5kb3ctbWF4aW1pemVkPSIxIiBpbmtzY2FwZTp3aW5kb3ctd2lkdGg9IjE5MjAiIGlua3NjYXBlOndpbmRvdy14PSItOCIgaW5rc2NhcGU6d2luZG93LXk9Ii04IiBpbmtzY2FwZTp6b29tPSI4LjcxOTA0OTEiIG9iamVjdHRvbGVyYW5jZT0iMTAiIHBhZ2Vjb2xvcj0iI2ZmZmZmZiIgc2hvd2dyaWQ9ImZhbHNlIj4mI3hhOwk8L3NvZGlwb2RpOm5hbWVkdmlldz4mI3hhOzxnIGlkPSJnNjg3ODkiIHRyYW5zZm9ybT0idHJhbnNsYXRlKC0wLjI1LC0xLjEwMjY2KSI+JiN4YTsJPHRpdGxlIGlkPSJ0aXRsZTY4NzcxIj5QYWdlLTE8L3RpdGxlPiYjeGE7CTxnIGlkPSJncm91cDQwMTctMSIgdHJhbnNmb3JtPSJ0cmFuc2xhdGUoMC4yNSwtMC4yNSkiPiYjeGE7CQk8dGl0bGUgaWQ9InRpdGxlNjg3NzMiPkxPQiBBZGFwdGVyczwvdGl0bGU+JiN4YTsJCTxnIGlkPSJzaGFwZTQwMTgtMiI+JiN4YTsJCQk8dGl0bGUgaWQ9InRpdGxlNjg3NzUiPlNoZWV0LjQwMTg8L3RpdGxlPiYjeGE7CQkJPHBhdGggaWQ9InBhdGg2ODc3NyIgaW5rc2NhcGU6Y29ubmVjdG9yLWN1cnZhdHVyZT0iMCIgc3R5bGU9ImZpbGw6IzNGNTc2NTsiIGQ9Ik00My41LDQ3LjQ4di0xLjVoLTE1YzAtMC44Mi0wLjY3LTEuNS0xLjUtMS41ICAgICBoLTIuMjV2LTguMjVoLTEuNXY4LjI1aC0zdi04LjI1aC0xLjV2OC4yNUgxNi41Yy0wLjgzLDAtMS41LDAuNjgtMS41LDEuNUgwdjEuNWgxNXYyLjI1SDB2MS41aDE1YzAsMC44MywwLjY3LDEuNSwxLjUsMS41SDI3ICAgICBjMC44MywwLDEuNS0wLjY3LDEuNS0xLjVoMTV2LTEuNWgtMTV2LTIuMjVINDMuNXogTTI3LDUxLjIzSDE2LjV2LTUuMjVIMjdWNTEuMjN6Ii8+JiN4YTsJCTwvZz4mI3hhOwkJPGcgaWQ9Imdyb3VwNDAxOS00IiB0cmFuc2Zvcm09InRyYW5zbGF0ZSg4LjI1LC0xNS4wMTUzKSI+JiN4YTsJCQk8dGl0bGUgaWQ9InRpdGxlNjg3ODAiPkJ1aWxkaW5nPC90aXRsZT4mI3hhOwkJCTxnIGlkPSJzaGFwZTQwMjAtNSIgdHJhbnNmb3JtPSJ0cmFuc2xhdGUoMS4xMDIwNCwtMS4xMDIwNCkiPiYjeGE7CQkJCTx0aXRsZSBpZD0idGl0bGU2ODc4MiI+U2hlZXQuNDAyMDwvdGl0bGU+JiN4YTsJCQkJPHBhdGggaWQ9InBhdGg2ODc4NCIgaW5rc2NhcGU6Y29ubmVjdG9yLWN1cnZhdHVyZT0iMCIgc3R5bGU9ImZpbGw6IzNGNTc2NTsiIGQ9Ik0wLDE3LjQ3djM1LjI2aDI0LjhWMTcuNDdIMHogTTcuNzEsNDMuMzdIMy44NiAgICAgIHYtNS41MWgzLjg1VjQzLjM3eiBNNy43MSwzNS4xSDMuODZ2LTUuNTFoMy44NVYzNS4xeiBNNy43MSwyNi44NEgzLjg2di01LjUxaDMuODVWMjYuODR6IE0xNC4zMyw0My4zN2gtMy44NnYtNS41MWgzLjg2VjQzLjM3eiAgICAgICBNMTQuMzMsMzUuMWgtMy44NnYtNS41MWgzLjg2VjM1LjF6IE0xNC4zMywyNi44NGgtMy44NnYtNS41MWgzLjg2VjI2Ljg0eiBNMjAuOTQsNDMuMzdoLTMuODZ2LTUuNTFoMy44NlY0My4zN3ogTTIwLjk0LDM1LjEgICAgICBoLTMuODZ2LTUuNTFoMy44NlYzNS4xeiBNMjAuOTQsMjYuODRoLTMuODZ2LTUuNTFoMy44NlYyNi44NHoiLz4mI3hhOwkJCTwvZz4mI3hhOwkJPC9nPiYjeGE7CTwvZz4mI3hhOzwvZz4mI3hhOzwvc3ZnPg==;fontSize=14;fontColor=#004C99;fillColor=#9494FF;html=1;" vertex="1" parent="1">
          <mxGeometry x="1073.5" y="730" width="44" height="51" as="geometry" />
        </mxCell>
        <mxCell id="JQ6tBwWLcFrwbUFlZFzO-2112" value="Cgroup/KVM" style="shape=image;verticalLabelPosition=bottom;labelBackgroundColor=none;verticalAlign=top;aspect=fixed;imageAspect=0;image=data:image/svg+xml,PHN2ZyB4bWxuczpjYz0iaHR0cDovL2NyZWF0aXZlY29tbW9ucy5vcmcvbnMjIiB4bWxuczpkYz0iaHR0cDovL3B1cmwub3JnL2RjL2VsZW1lbnRzLzEuMS8iIHhtbG5zOmlua3NjYXBlPSJodHRwOi8vd3d3Lmlua3NjYXBlLm9yZy9uYW1lc3BhY2VzL2lua3NjYXBlIiB4bWxuczpyZGY9Imh0dHA6Ly93d3cudzMub3JnLzE5OTkvMDIvMjItcmRmLXN5bnRheC1ucyMiIHhtbG5zOnNvZGlwb2RpPSJodHRwOi8vc29kaXBvZGkuc291cmNlZm9yZ2UubmV0L0RURC9zb2RpcG9kaS0wLmR0ZCIgeG1sbnM6c3ZnPSJodHRwOi8vd3d3LnczLm9yZy8yMDAwL3N2ZyIgeG1sbnM9Imh0dHA6Ly93d3cudzMub3JnLzIwMDAvc3ZnIiB4bWxuczp4bGluaz0iaHR0cDovL3d3dy53My5vcmcvMTk5OS94bGluayIgdmVyc2lvbj0iMS4xIiBpZD0ic3ZnNjgzNjciIGlua3NjYXBlOnZlcnNpb249IjAuOTIuMyAoMjQwNTU0NiwgMjAxOC0wMy0xMSkiIHNvZGlwb2RpOmRvY25hbWU9ImludGVncmF0aW9uXzEuc3ZnIiB4PSIwcHgiIHk9IjBweCIgdmlld0JveD0iMCAwIDI5LjczIDI5Ljc1IiBzdHlsZT0iZW5hYmxlLWJhY2tncm91bmQ6bmV3IDAgMCAyOS43MyAyOS43NTsiIHhtbDpzcGFjZT0icHJlc2VydmUiPiYjeGE7PHNvZGlwb2RpOm5hbWVkdmlldyBib3JkZXJjb2xvcj0iIzY2NjY2NiIgYm9yZGVyb3BhY2l0eT0iMSIgZml0LW1hcmdpbi1ib3R0b209IjAiIGZpdC1tYXJnaW4tbGVmdD0iMCIgZml0LW1hcmdpbi1yaWdodD0iMCIgZml0LW1hcmdpbi10b3A9IjAiIGdyaWR0b2xlcmFuY2U9IjEwIiBndWlkZXRvbGVyYW5jZT0iMTAiIGlkPSJuYW1lZHZpZXc2ODM2OSIgaW5rc2NhcGU6Y3VycmVudC1sYXllcj0ic3ZnNjgzNjciIGlua3NjYXBlOmN4PSIyNC41NDUzMDYiIGlua3NjYXBlOmN5PSIxMC41NTkxODEiIGlua3NjYXBlOnBhZ2VvcGFjaXR5PSIwIiBpbmtzY2FwZTpwYWdlc2hhZG93PSIyIiBpbmtzY2FwZTp3aW5kb3ctaGVpZ2h0PSIxMDE3IiBpbmtzY2FwZTp3aW5kb3ctbWF4aW1pemVkPSIxIiBpbmtzY2FwZTp3aW5kb3ctd2lkdGg9IjE5MjAiIGlua3NjYXBlOndpbmRvdy14PSItOCIgaW5rc2NhcGU6d2luZG93LXk9Ii04IiBpbmtzY2FwZTp6b29tPSIxMC45Mjc4MTYiIG9iamVjdHRvbGVyYW5jZT0iMTAiIHBhZ2Vjb2xvcj0iI2ZmZmZmZiIgc2hvd2dyaWQ9ImZhbHNlIj4mI3hhOwk8L3NvZGlwb2RpOm5hbWVkdmlldz4mI3hhOzxnIGlkPSJnNjgzNjUiPiYjeGE7CTx0aXRsZSBpZD0idGl0bGU2ODM1OCI+UGFnZS0xPC90aXRsZT4mI3hhOwk8ZyBpZD0ic2hhcGU4NDAtMSI+JiN4YTsJCTx0aXRsZSBpZD0idGl0bGU2ODM2MCI+SW50ZWdyYXRpb24gIzE8L3RpdGxlPiYjeGE7CQk8cGF0aCBpZD0icGF0aDY4MzYyIiBpbmtzY2FwZTpjb25uZWN0b3ItY3VydmF0dXJlPSIwIiBzdHlsZT0iZmlsbDojM0Y1NzY1OyIgZD0iTTguOTQsMjkuNzVIMHYtNS45M2g4Ljk0VjI5Ljc1eiBNMjkuNzMsMjMuODIgICAgaC04Ljg5djUuOTNoOC44OVYyMy44MnogTTE5LjMzLDIzLjgyaC04Ljg5djUuOTNoOC44OVYyMy44MnogTTguOTQsOS41NUgwdjUuOThoOC45NFY5LjU1eiBNMjkuNzMsMC42aC04Ljg5djUuOThoOC44OVYwLjZ6ICAgICBNMTkuMzMsNi41OGgtOC44OXY1LjkzaDguODlWNi41OHogTTE0LjMxLDE2LjY5SDUuMzd2NS45OGg4Ljk0TDE0LjMxLDE2LjY5eiBNNC4xMiwxNi42OUgwdjUuOThoNC4xMkw0LjEyLDE2LjY5eiBNNC4xMiwyLjQxSDAgICAgdjUuOThoNC4xMkw0LjEyLDIuNDF6IE0yNC41LDE2LjY5aC04Ljg4djUuOThoOC44OFYxNi42OXogTTI5LjczLDE2LjY5aC0zLjkydjUuOThoMy45MlYxNi42OXogTTE0Ljg2LDUuNThsMy42Mi0zLjU3aC0yLjAxVjAgICAgaC0zLjE2djIuMDFIMTEuM0wxNC44Niw1LjU4eiBNMjUuMzEsMTQuNDJsMy41Ni0zLjU2aC0xLjk2VjguODVIMjMuN3YyLjAxaC0xLjk2TDI1LjMxLDE0LjQyeiIvPiYjeGE7CTwvZz4mI3hhOzwvZz4mI3hhOzwvc3ZnPg==;fontSize=14;fontColor=#004C99;fillColor=#9494FF;html=1;" vertex="1" parent="1">
          <mxGeometry x="1070.5" y="645" width="50" height="50" as="geometry" />
        </mxCell>
        <mxCell id="JQ6tBwWLcFrwbUFlZFzO-2113" value="vstorage&lt;br&gt;mount points" style="shape=image;verticalLabelPosition=bottom;labelBackgroundColor=none;verticalAlign=top;aspect=fixed;imageAspect=0;image=data:image/svg+xml,PHN2ZyB4bWxuczpjYz0iaHR0cDovL2NyZWF0aXZlY29tbW9ucy5vcmcvbnMjIiB4bWxuczpkYz0iaHR0cDovL3B1cmwub3JnL2RjL2VsZW1lbnRzLzEuMS8iIHhtbG5zOmlua3NjYXBlPSJodHRwOi8vd3d3Lmlua3NjYXBlLm9yZy9uYW1lc3BhY2VzL2lua3NjYXBlIiB4bWxuczpyZGY9Imh0dHA6Ly93d3cudzMub3JnLzE5OTkvMDIvMjItcmRmLXN5bnRheC1ucyMiIHhtbG5zOnNvZGlwb2RpPSJodHRwOi8vc29kaXBvZGkuc291cmNlZm9yZ2UubmV0L0RURC9zb2RpcG9kaS0wLmR0ZCIgeG1sbnM6c3ZnPSJodHRwOi8vd3d3LnczLm9yZy8yMDAwL3N2ZyIgeG1sbnM9Imh0dHA6Ly93d3cudzMub3JnLzIwMDAvc3ZnIiB4bWxuczp4bGluaz0iaHR0cDovL3d3dy53My5vcmcvMTk5OS94bGluayIgdmVyc2lvbj0iMS4xIiBpZD0ic3ZnNDUyOTgiIGlua3NjYXBlOnZlcnNpb249IjAuOTIuMyAoMjQwNTU0NiwgMjAxOC0wMy0xMSkiIHNvZGlwb2RpOmRvY25hbWU9ImZpbGVzLnN2ZyIgeD0iMHB4IiB5PSIwcHgiIHZpZXdCb3g9IjAgMCAzMy45OSAzOS4wNiIgc3R5bGU9ImVuYWJsZS1iYWNrZ3JvdW5kOm5ldyAwIDAgMzMuOTkgMzkuMDY7IiB4bWw6c3BhY2U9InByZXNlcnZlIj4mI3hhOzxzb2RpcG9kaTpuYW1lZHZpZXcgYm9yZGVyY29sb3I9IiM2NjY2NjYiIGJvcmRlcm9wYWNpdHk9IjEiIGZpdC1tYXJnaW4tYm90dG9tPSIwIiBmaXQtbWFyZ2luLWxlZnQ9IjAiIGZpdC1tYXJnaW4tcmlnaHQ9IjAiIGZpdC1tYXJnaW4tdG9wPSIwIiBncmlkdG9sZXJhbmNlPSIxMCIgZ3VpZGV0b2xlcmFuY2U9IjEwIiBpZD0ibmFtZWR2aWV3NDUzMDAiIGlua3NjYXBlOmN1cnJlbnQtbGF5ZXI9InN2ZzQ1Mjk4IiBpbmtzY2FwZTpjeD0iMjIuNjYyNTYxIiBpbmtzY2FwZTpjeT0iMjYuMjExMjIiIGlua3NjYXBlOnBhZ2VvcGFjaXR5PSIwIiBpbmtzY2FwZTpwYWdlc2hhZG93PSIyIiBpbmtzY2FwZTp3aW5kb3ctaGVpZ2h0PSIxMDE3IiBpbmtzY2FwZTp3aW5kb3ctbWF4aW1pemVkPSIxIiBpbmtzY2FwZTp3aW5kb3ctd2lkdGg9IjE5MjAiIGlua3NjYXBlOndpbmRvdy14PSItOCIgaW5rc2NhcGU6d2luZG93LXk9Ii04IiBpbmtzY2FwZTp6b29tPSIxNS45Mjg0OTYiIG9iamVjdHRvbGVyYW5jZT0iMTAiIHBhZ2Vjb2xvcj0iI2ZmZmZmZiIgc2hvd2dyaWQ9ImZhbHNlIj4mI3hhOwk8L3NvZGlwb2RpOm5hbWVkdmlldz4mI3hhOzxnIGlkPSJnNDUyOTYiIHRyYW5zZm9ybT0idHJhbnNsYXRlKC0wLjc1LC0xLjAwNzY5KSI+JiN4YTsJPHRpdGxlIGlkPSJ0aXRsZTQ1MjExIj5QYWdlLTE8L3RpdGxlPiYjeGE7CTxnIGlkPSJncm91cDQ1NjMtMSIgdHJhbnNmb3JtPSJ0cmFuc2xhdGUoMS41LC0xLjUpIj4mI3hhOwkJPHRpdGxlIGlkPSJ0aXRsZTQ1MjEzIj5GaWxlczwvdGl0bGU+JiN4YTsJCTxnIGlkPSJncm91cDQ1NjQtMiIgdHJhbnNmb3JtPSJ0cmFuc2xhdGUoMCwtNi4wOTIzMSkiPiYjeGE7CQkJPHRpdGxlIGlkPSJ0aXRsZTQ1MjE1Ij5nMTU5MTA8L3RpdGxlPiYjeGE7CQkJPGcgaWQ9InNoYXBlNDU2NS0zIiB0cmFuc2Zvcm09InRyYW5zbGF0ZSgxMy4yLC0yMS44MzA4KSI+JiN4YTsJCQkJPHRpdGxlIGlkPSJ0aXRsZTQ1MjE3Ij5wb2x5Z29uMTU5MDA8L3RpdGxlPiYjeGE7CQkJCTxwYXRoIGlkPSJwYXRoNDUyMTkiIGlua3NjYXBlOmNvbm5lY3Rvci1jdXJ2YXR1cmU9IjAiIHN0eWxlPSJmaWxsOiNFNUU1RTU7IiBkPSJNMTAuNjYsNDAuODJIMFYzMC42N0wxMC42Niw0MC44MnoiLz4mI3hhOwkJCTwvZz4mI3hhOwkJCTxnIGlkPSJzaGFwZTQ1NjYtNSIgdHJhbnNmb3JtPSJ0cmFuc2xhdGUoMS4wMTUzOCwtMS4wMTUzOCkiPiYjeGE7CQkJCTx0aXRsZSBpZD0idGl0bGU0NTIyMiI+cmVjdDE1OTAyPC90aXRsZT4mI3hhOwkJCQk8cmVjdCBpZD0icmVjdDQ1MjI0IiB4PSIwIiB5PSIxMC4zNiIgc3R5bGU9ImZpbGw6I0ZGRkZGRjsiIHdpZHRoPSIxMi4xOCIgaGVpZ2h0PSIzMC40NiIvPiYjeGE7CQkJPC9nPiYjeGE7CQkJPGcgaWQ9InNoYXBlNDU2Ny03Ij4mI3hhOwkJCQk8dGl0bGUgaWQ9InRpdGxlNDUyMjciPnBhdGgxNTkwNDwvdGl0bGU+JiN4YTsJCQkJJiN4YTsJCQkJCTxwYXRoIGlkPSJwYXRoNDUyMjkiIGlua3NjYXBlOmNvbm5lY3Rvci1jdXJ2YXR1cmU9IjAiIHN0eWxlPSJmaWxsOm5vbmU7c3Ryb2tlOiM1NTZBOEE7c3Ryb2tlLXdpZHRoOjEuNTtzdHJva2UtbWl0ZXJsaW1pdDozOyIgZD0iICAgICAgTTEzLjE0LDkuMzVIMC41MUMwLjIzLDkuMzUsMCw5LjU4LDAsOS44NmwwLDMwLjQ2YzAsMC4yOCwwLjIzLDAuNTEsMC41MSwwLjUxbDIyLjM0LTAuMDFjMC4yOCwwLDAuNTEtMC4yMywwLjUxLTAuNTEgICAgICBsLTAuMDEtMjEuMTNMMTMuMTQsOS4zNXoiLz4mI3hhOwkJCTwvZz4mI3hhOwkJCTxnIGlkPSJzaGFwZTQ1NjgtOSIgdHJhbnNmb3JtPSJ0cmFuc2xhdGUoMC41MDc2OTIsLTAuNTA3NjkyKSI+JiN4YTsJCQkJPHRpdGxlIGlkPSJ0aXRsZTQ1MjMyIj5yZWN0MTU5MDY8L3RpdGxlPiYjeGE7CQkJCTxyZWN0IGlkPSJyZWN0NDUyMzQiIHg9IjAiIHk9IjEwLjM2IiBzdHlsZT0iZmlsbDojRTVFNUU1OyIgd2lkdGg9IjguMTIiIGhlaWdodD0iMzAuNDYiLz4mI3hhOwkJCTwvZz4mI3hhOwkJCTxnIGlkPSJzaGFwZTQ1NjktMTEiIHRyYW5zZm9ybT0idHJhbnNsYXRlKDEzLjIsLTIxLjU3NjkpIj4mI3hhOwkJCQk8dGl0bGUgaWQ9InRpdGxlNDUyMzciPnBvbHlsaW5lMTU5MDg8L3RpdGxlPiYjeGE7CQkJCTxwYXRoIGlkPSJwYXRoNDUyMzkiIGlua3NjYXBlOmNvbm5lY3Rvci1jdXJ2YXR1cmU9IjAiIHN0eWxlPSJmaWxsOm5vbmU7IiBkPSJNMCwzMC42N3YxMC4xNWgxMC42NkwwLDMwLjY3eiIvPiYjeGE7CQkJCSYjeGE7CQkJCQk8cGF0aCBpZD0icGF0aDQ1MjQxIiBpbmtzY2FwZTpjb25uZWN0b3ItY3VydmF0dXJlPSIwIiBzdHlsZT0iZmlsbDpub25lO3N0cm9rZTojNTU2QThBO3N0cm9rZS13aWR0aDoxLjU7c3Ryb2tlLW1pdGVybGltaXQ6MzsiIGQ9IiAgICAgIE0wLDMwLjY3djEwLjE1aDEwLjY2Ii8+JiN4YTsJCQk8L2c+JiN4YTsJCTwvZz4mI3hhOwkJPGcgaWQ9Imdyb3VwNDU3MC0xNCIgdHJhbnNmb3JtPSJ0cmFuc2xhdGUoOS4xMzg0NikiPiYjeGE7CQkJPHRpdGxlIGlkPSJ0aXRsZTQ1MjQ1Ij5nMTU5MzA8L3RpdGxlPiYjeGE7CQkJPGcgaWQ9InNoYXBlNDU3MS0xNSI+JiN4YTsJCQkJPHRpdGxlIGlkPSJ0aXRsZTQ1MjQ3Ij5wb2x5Z29uMTU5MTI8L3RpdGxlPiYjeGE7CQkJCTxwYXRoIGlkPSJwYXRoNDUyNDkiIGlua3NjYXBlOmNvbm5lY3Rvci1jdXJ2YXR1cmU9IjAiIHN0eWxlPSJmaWxsOiNGRkZGRkY7IiBkPSJNMjMuODYsNDAuODJIMFY4Ljg0aDEzLjM1bDEwLjUxLDEwLjAxVjQwLjgyeiIvPiYjeGE7CQkJPC9nPiYjeGE7CQkJPGcgaWQ9InNoYXBlNDU3Mi0xNyIgdHJhbnNmb3JtPSJ0cmFuc2xhdGUoMTMuMiwtMjEuODMwOCkiPiYjeGE7CQkJCTx0aXRsZSBpZD0idGl0bGU0NTI1MiI+cG9seWdvbjE1OTE0PC90aXRsZT4mI3hhOwkJCQk8cGF0aCBpZD0icGF0aDQ1MjU0IiBpbmtzY2FwZTpjb25uZWN0b3ItY3VydmF0dXJlPSIwIiBzdHlsZT0iZmlsbDojNTVEMkY2OyIgZD0iTTEwLjY2LDQwLjgySDBWMzAuNjdMMTAuNjYsNDAuODJ6Ii8+JiN4YTsJCQk8L2c+JiN4YTsJCQk8ZyBpZD0ic2hhcGU0NTczLTE5Ij4mI3hhOwkJCQk8dGl0bGUgaWQ9InRpdGxlNDUyNTciPnBhdGgxNTkxNjwvdGl0bGU+JiN4YTsJCQkJJiN4YTsJCQkJCTxwYXRoIGlkPSJwYXRoNDUyNTkiIGlua3NjYXBlOmNvbm5lY3Rvci1jdXJ2YXR1cmU9IjAiIHN0eWxlPSJmaWxsOm5vbmU7c3Ryb2tlOiM1NTZBOEE7c3Ryb2tlLXdpZHRoOjEuNTtzdHJva2UtbWl0ZXJsaW1pdDozOyIgZD0iICAgICAgTTEzLjM5LDkuMzVIMC43NEMwLjQ3LDkuMzUsMCw5LjMxLDAsOS41OHYzMC41YzAuMDksMC4zNiwwLjM4LDAuNjUsMC43NCwwLjc0aDIyLjM4YzAuMjcsMCwwLjIzLTAuNDcsMC4yMy0wLjc0VjE4LjkzICAgICAgTDEzLjM5LDkuMzV6Ii8+JiN4YTsJCQk8L2c+JiN4YTsJCQk8ZyBpZD0ic2hhcGU0NTc0LTIxIiB0cmFuc2Zvcm09InRyYW5zbGF0ZSgwLjUwNzY5MiwtMC41MDc2OTIpIj4mI3hhOwkJCQk8dGl0bGUgaWQ9InRpdGxlNDUyNjIiPnJlY3QxNTkxODwvdGl0bGU+JiN4YTsJCQkJPHJlY3QgaWQ9InJlY3Q0NTI2NCIgeD0iMCIgeT0iMTAuMzYiIHN0eWxlPSJmaWxsOiNFNUU1RTU7IiB3aWR0aD0iOC4xMiIgaGVpZ2h0PSIzMC40NiIvPiYjeGE7CQkJPC9nPiYjeGE7CQkJPGcgaWQ9InNoYXBlNDU3NS0yMyIgdHJhbnNmb3JtPSJ0cmFuc2xhdGUoMTIuNjkyMywtMjEuMzIzMSkiPiYjeGE7CQkJCTx0aXRsZSBpZD0idGl0bGU0NTI2NyI+cG9seWxpbmUxNTkyMDwvdGl0bGU+JiN4YTsJCQkJPHBhdGggaWQ9InBhdGg0NTI2OSIgaW5rc2NhcGU6Y29ubmVjdG9yLWN1cnZhdHVyZT0iMCIgc3R5bGU9ImZpbGw6bm9uZTsiIGQ9Ik0wLDMwLjY3djEwLjE1aDEwLjY2TDAsMzAuNjd6Ii8+JiN4YTsJCQkJJiN4YTsJCQkJCTxwYXRoIGlkPSJwYXRoNDUyNzEiIGlua3NjYXBlOmNvbm5lY3Rvci1jdXJ2YXR1cmU9IjAiIHN0eWxlPSJmaWxsOm5vbmU7c3Ryb2tlOiM1NTZBOEE7c3Ryb2tlLXdpZHRoOjEuNTtzdHJva2UtbWl0ZXJsaW1pdDozOyIgZD0iICAgICAgTTAsMzAuNjd2MTAuMTVoMTAuNjYiLz4mI3hhOwkJCTwvZz4mI3hhOwkJCTxnIGlkPSJzaGFwZTQ1NzYtMjYiIHRyYW5zZm9ybT0idHJhbnNsYXRlKDMuNTUzODUsLTIwLjgxNTQpIj4mI3hhOwkJCQk8dGl0bGUgaWQ9InRpdGxlNDUyNzQiPmxpbmUxNTkyMjwvdGl0bGU+JiN4YTsJCQkJJiN4YTsJCQkJCTxwYXRoIGlkPSJwYXRoNDUyNzYiIGlua3NjYXBlOmNvbm5lY3Rvci1jdXJ2YXR1cmU9IjAiIHN0eWxlPSJmaWxsOm5vbmU7c3Ryb2tlOiNBN0E5QUM7c3Ryb2tlLXdpZHRoOjEuNTtzdHJva2UtbWl0ZXJsaW1pdDozOyIgZD0iICAgICAgTTAsNDAuODJoNi42Ii8+JiN4YTsJCQk8L2c+JiN4YTsJCQk8ZyBpZD0ic2hhcGU0NTc3LTI5IiB0cmFuc2Zvcm09InRyYW5zbGF0ZSgzLjU1Mzg1LC0xNi4yNDYyKSI+JiN4YTsJCQkJPHRpdGxlIGlkPSJ0aXRsZTQ1Mjc5Ij5saW5lMTU5MjQ8L3RpdGxlPiYjeGE7CQkJCSYjeGE7CQkJCQk8cGF0aCBpZD0icGF0aDQ1MjgxIiBpbmtzY2FwZTpjb25uZWN0b3ItY3VydmF0dXJlPSIwIiBzdHlsZT0iZmlsbDpub25lO3N0cm9rZTojQTdBOUFDO3N0cm9rZS13aWR0aDoxLjU7c3Ryb2tlLW1pdGVybGltaXQ6MzsiIGQ9IiAgICAgIE0wLDQwLjgyaDE2LjI1Ii8+JiN4YTsJCQk8L2c+JiN4YTsJCQk8ZyBpZD0ic2hhcGU0NTc4LTMyIiB0cmFuc2Zvcm09InRyYW5zbGF0ZSgzLjU1Mzg1LC0xMS42NzY5KSI+JiN4YTsJCQkJPHRpdGxlIGlkPSJ0aXRsZTQ1Mjg0Ij5saW5lMTU5MjY8L3RpdGxlPiYjeGE7CQkJCSYjeGE7CQkJCQk8cGF0aCBpZD0icGF0aDQ1Mjg2IiBpbmtzY2FwZTpjb25uZWN0b3ItY3VydmF0dXJlPSIwIiBzdHlsZT0iZmlsbDpub25lO3N0cm9rZTojQTdBOUFDO3N0cm9rZS13aWR0aDoxLjU7c3Ryb2tlLW1pdGVybGltaXQ6MzsiIGQ9IiAgICAgIE0wLDQwLjgyaDE2LjI1Ii8+JiN4YTsJCQk8L2c+JiN4YTsJCQk8ZyBpZD0ic2hhcGU0NTc5LTM1IiB0cmFuc2Zvcm09InRyYW5zbGF0ZSgzLjU1Mzg1LC03LjEwNzY5KSI+JiN4YTsJCQkJPHRpdGxlIGlkPSJ0aXRsZTQ1Mjg5Ij5saW5lMTU5Mjg8L3RpdGxlPiYjeGE7CQkJCSYjeGE7CQkJCQk8cGF0aCBpZD0icGF0aDQ1MjkxIiBpbmtzY2FwZTpjb25uZWN0b3ItY3VydmF0dXJlPSIwIiBzdHlsZT0iZmlsbDpub25lO3N0cm9rZTojQTdBOUFDO3N0cm9rZS13aWR0aDoxLjU7c3Ryb2tlLW1pdGVybGltaXQ6MzsiIGQ9IiAgICAgIE0wLDQwLjgyaDE2LjI1Ii8+JiN4YTsJCQk8L2c+JiN4YTsJCTwvZz4mI3hhOwk8L2c+JiN4YTs8L2c+JiN4YTs8L3N2Zz4=;fontSize=14;fontColor=#004C99;fillColor=#9494FF;html=1;" vertex="1" parent="1">
          <mxGeometry x="1081" y="380" width="34" height="39" as="geometry" />
        </mxCell>
        <mxCell id="JQ6tBwWLcFrwbUFlZFzO-2114" value="Virtualization" style="rounded=1;whiteSpace=wrap;html=1;dashed=1;strokeColor=none;strokeWidth=2;fillColor=#FFFFFF;fontFamily=Helvetica;fontSize=14;fontColor=#FFB366;opacity=75;verticalAlign=top;fontStyle=1" vertex="1" parent="1">
          <mxGeometry x="866" y="188" width="140" height="142" as="geometry" />
        </mxCell>
        <mxCell id="JQ6tBwWLcFrwbUFlZFzO-2115" value="libvirt&lt;br&gt;qemu/qemu-img&lt;br&gt;openvswitch" style="verticalLabelPosition=bottom;html=1;verticalAlign=top;strokeColor=none;fillColor=#009900;shape=mxgraph.azure.server_rack;dashed=1;fontFamily=Helvetica;fontSize=14;fontColor=#004C99" vertex="1" parent="1">
          <mxGeometry x="909.5" y="218" width="50" height="40" as="geometry" />
        </mxCell>
        <mxCell id="JQ6tBwWLcFrwbUFlZFzO-2213" style="edgeStyle=orthogonalEdgeStyle;curved=1;rounded=0;orthogonalLoop=1;jettySize=auto;html=1;exitX=0;exitY=0.75;exitDx=0;exitDy=0;entryX=0.645;entryY=0.093;entryDx=0;entryDy=0;entryPerimeter=0;fontSize=12;fontColor=#004C99;strokeColor=default;strokeWidth=2;fillColor=default;" edge="1" parent="1" source="JQ6tBwWLcFrwbUFlZFzO-2120" target="2050">
          <mxGeometry relative="1" as="geometry" />
        </mxCell>
        <mxCell id="JQ6tBwWLcFrwbUFlZFzO-2217" value="" style="edgeStyle=orthogonalEdgeStyle;curved=1;rounded=0;orthogonalLoop=1;jettySize=auto;html=1;fontSize=12;fontColor=#004C99;startArrow=none;startFill=0;strokeColor=default;strokeWidth=2;fillColor=default;entryX=0;entryY=0.5;entryDx=0;entryDy=0;" edge="1" parent="1" source="JQ6tBwWLcFrwbUFlZFzO-2120" target="JQ6tBwWLcFrwbUFlZFzO-2106">
          <mxGeometry relative="1" as="geometry" />
        </mxCell>
        <mxCell id="JQ6tBwWLcFrwbUFlZFzO-2218" style="edgeStyle=orthogonalEdgeStyle;curved=1;rounded=0;orthogonalLoop=1;jettySize=auto;html=1;exitX=1;exitY=0.5;exitDx=0;exitDy=0;fontSize=12;fontColor=#004C99;startArrow=none;startFill=0;strokeColor=default;strokeWidth=2;fillColor=default;" edge="1" parent="1" source="JQ6tBwWLcFrwbUFlZFzO-2120" target="2055">
          <mxGeometry relative="1" as="geometry" />
        </mxCell>
        <mxCell id="JQ6tBwWLcFrwbUFlZFzO-2120" value="vstorage-ui-agent" style="rounded=1;whiteSpace=wrap;html=1;dashed=1;strokeColor=none;strokeWidth=2;fillColor=#FFFFFF;fontFamily=Helvetica;fontSize=14;fontColor=#FFB366;opacity=75;verticalAlign=top;fontStyle=1" vertex="1" parent="1">
          <mxGeometry x="656" y="394" width="140" height="180" as="geometry" />
        </mxCell>
        <mxCell id="JQ6tBwWLcFrwbUFlZFzO-2121" value="system&lt;br&gt;management" style="verticalLabelPosition=bottom;html=1;verticalAlign=top;strokeColor=none;fillColor=#3399FF;shape=mxgraph.azure.cloud;dashed=1;fontSize=14;fontColor=#004C99" vertex="1" parent="1">
          <mxGeometry x="701" y="421" width="50" height="32.5" as="geometry" />
        </mxCell>
        <mxCell id="JQ6tBwWLcFrwbUFlZFzO-2219" style="edgeStyle=orthogonalEdgeStyle;curved=1;rounded=0;orthogonalLoop=1;jettySize=auto;html=1;exitX=1;exitY=0.5;exitDx=0;exitDy=0;fontSize=12;fontColor=#004C99;startArrow=none;startFill=0;strokeColor=default;strokeWidth=2;fillColor=default;" edge="1" parent="1" source="JQ6tBwWLcFrwbUFlZFzO-2123" target="JQ6tBwWLcFrwbUFlZFzO-2114">
          <mxGeometry relative="1" as="geometry" />
        </mxCell>
        <mxCell id="JQ6tBwWLcFrwbUFlZFzO-2123" value="nova-compute&lt;br&gt;cinder-volume&lt;br&gt;neutron-ovs-agent" style="rounded=1;whiteSpace=wrap;html=1;dashed=1;strokeColor=none;strokeWidth=2;fillColor=#FFFFFF;fontFamily=Helvetica;fontSize=14;fontColor=#FFB366;opacity=75;verticalAlign=top;fontStyle=1" vertex="1" parent="1">
          <mxGeometry x="656" y="188" width="140" height="193" as="geometry" />
        </mxCell>
        <mxCell id="JQ6tBwWLcFrwbUFlZFzO-2125" value="Virtual Machines&lt;br&gt;Virtual Disks&lt;br&gt;Virtual Interfaces" style="verticalLabelPosition=bottom;html=1;verticalAlign=top;strokeColor=none;fillColor=#009900;shape=mxgraph.azure.virtual_machine;dashed=1;fontSize=14;fontColor=#004C99" vertex="1" parent="1">
          <mxGeometry x="701" y="260" width="50" height="40" as="geometry" />
        </mxCell>
        <mxCell id="JQ6tBwWLcFrwbUFlZFzO-2130" value="Storage services&lt;br&gt;management" style="verticalLabelPosition=bottom;html=1;verticalAlign=top;strokeColor=none;fillColor=#999900;shape=mxgraph.azure.server_rack;dashed=1;fontFamily=Helvetica;fontSize=14;fontColor=#004C99" vertex="1" parent="1">
          <mxGeometry x="701" y="497" width="50" height="34" as="geometry" />
        </mxCell>
        <mxCell id="JQ6tBwWLcFrwbUFlZFzO-2135" value="" style="shape=mxgraph.arrows.two_way_arrow_horizontal;html=1;verticalLabelPosition=bottom;verticalAlign=top;strokeWidth=2;strokeColor=none;dashed=1;fillColor=#FFFFFF;fontFamily=Verdana;fontSize=12;fontColor=#00BEF2" vertex="1" parent="1">
          <mxGeometry x="987" y="120" width="80" height="39" as="geometry" />
        </mxCell>
        <mxCell id="JQ6tBwWLcFrwbUFlZFzO-2209" style="edgeStyle=orthogonalEdgeStyle;curved=1;rounded=0;orthogonalLoop=1;jettySize=auto;html=1;exitX=0;exitY=0.5;exitDx=0;exitDy=0;entryX=1;entryY=0.58;entryDx=0;entryDy=0;entryPerimeter=0;fontSize=12;fontColor=#004C99;strokeColor=default;strokeWidth=2;fillColor=default;" edge="1" parent="1" source="JQ6tBwWLcFrwbUFlZFzO-2138" target="2050">
          <mxGeometry relative="1" as="geometry" />
        </mxCell>
        <mxCell id="JQ6tBwWLcFrwbUFlZFzO-2138" value="S3/NS/OS&lt;br&gt;iSCSI targets&lt;br&gt;" style="rounded=1;whiteSpace=wrap;html=1;dashed=1;strokeColor=none;strokeWidth=2;fillColor=#FFFFFF;fontFamily=Helvetica;fontSize=14;fontColor=#FFB366;opacity=75;verticalAlign=top;fontStyle=1" vertex="1" parent="1">
          <mxGeometry x="661" y="604" width="140" height="196" as="geometry" />
        </mxCell>
        <mxCell id="JQ6tBwWLcFrwbUFlZFzO-2145" value="vinfra" style="shape=image;verticalLabelPosition=bottom;labelBackgroundColor=none;verticalAlign=top;aspect=fixed;imageAspect=0;image=data:image/svg+xml,PHN2ZyB4bWxuczpjYz0iaHR0cDovL2NyZWF0aXZlY29tbW9ucy5vcmcvbnMjIiB4bWxuczpkYz0iaHR0cDovL3B1cmwub3JnL2RjL2VsZW1lbnRzLzEuMS8iIHhtbG5zOmlua3NjYXBlPSJodHRwOi8vd3d3Lmlua3NjYXBlLm9yZy9uYW1lc3BhY2VzL2lua3NjYXBlIiB4bWxuczpyZGY9Imh0dHA6Ly93d3cudzMub3JnLzE5OTkvMDIvMjItcmRmLXN5bnRheC1ucyMiIHhtbG5zOnNvZGlwb2RpPSJodHRwOi8vc29kaXBvZGkuc291cmNlZm9yZ2UubmV0L0RURC9zb2RpcG9kaS0wLmR0ZCIgeG1sbnM6c3ZnPSJodHRwOi8vd3d3LnczLm9yZy8yMDAwL3N2ZyIgeG1sbnM9Imh0dHA6Ly93d3cudzMub3JnLzIwMDAvc3ZnIiB4bWxuczp4bGluaz0iaHR0cDovL3d3dy53My5vcmcvMTk5OS94bGluayIgdmVyc2lvbj0iMS4xIiBpZD0ic3ZnMTE5MTYwIiBpbmtzY2FwZTp2ZXJzaW9uPSIwLjkyLjMgKDI0MDU1NDYsIDIwMTgtMDMtMTEpIiBzb2RpcG9kaTpkb2NuYW1lPSJhenVyZV9jbGlfMi5zdmciIHg9IjBweCIgeT0iMHB4IiB2aWV3Qm94PSIwIDAgNDggMzcuNSIgc3R5bGU9ImVuYWJsZS1iYWNrZ3JvdW5kOm5ldyAwIDAgNDggMzcuNTsiIHhtbDpzcGFjZT0icHJlc2VydmUiPiYjeGE7PHNvZGlwb2RpOm5hbWVkdmlldyBib3JkZXJjb2xvcj0iIzY2NjY2NiIgYm9yZGVyb3BhY2l0eT0iMSIgZml0LW1hcmdpbi1ib3R0b209IjAiIGZpdC1tYXJnaW4tbGVmdD0iMCIgZml0LW1hcmdpbi1yaWdodD0iMCIgZml0LW1hcmdpbi10b3A9IjAiIGdyaWR0b2xlcmFuY2U9IjEwIiBndWlkZXRvbGVyYW5jZT0iMTAiIGlkPSJuYW1lZHZpZXcxMTkxNjIiIGlua3NjYXBlOmN1cnJlbnQtbGF5ZXI9InN2ZzExOTE2MCIgaW5rc2NhcGU6Y3g9IjMyIiBpbmtzY2FwZTpjeT0iMjUiIGlua3NjYXBlOnBhZ2VvcGFjaXR5PSIwIiBpbmtzY2FwZTpwYWdlc2hhZG93PSIyIiBpbmtzY2FwZTp3aW5kb3ctaGVpZ2h0PSIxMDE3IiBpbmtzY2FwZTp3aW5kb3ctbWF4aW1pemVkPSIxIiBpbmtzY2FwZTp3aW5kb3ctd2lkdGg9IjE5MjAiIGlua3NjYXBlOndpbmRvdy14PSItOCIgaW5rc2NhcGU6d2luZG93LXk9Ii04IiBpbmtzY2FwZTp6b29tPSIxNi42NzMwNjciIG9iamVjdHRvbGVyYW5jZT0iMTAiIHBhZ2Vjb2xvcj0iI2ZmZmZmZiIgc2hvd2dyaWQ9ImZhbHNlIj4mI3hhOwk8L3NvZGlwb2RpOm5hbWVkdmlldz4mI3hhOzxnIGlkPSJnMTE5MTU4IiB0cmFuc2Zvcm09InRyYW5zbGF0ZSgtMC43NSwtMC43NSkiPiYjeGE7CTx0aXRsZSBpZD0idGl0bGUxMTkxMDUiPlBhZ2UtMTwvdGl0bGU+JiN4YTsJPGcgaWQ9Imdyb3VwMTM0Mi0xIiB0cmFuc2Zvcm09InRyYW5zbGF0ZSgwLjc1LC0wLjc1KSI+JiN4YTsJCTx0aXRsZSBpZD0idGl0bGUxMTkxMDciPkF6dXJlIENMSSAjMjwvdGl0bGU+JiN4YTsJCTxnIGlkPSJncm91cDEzNDMtMiI+JiN4YTsJCQk8dGl0bGUgaWQ9InRpdGxlMTE5MTA5Ij5nODI3NTwvdGl0bGU+JiN4YTsJCQk8ZyBpZD0ic2hhcGUxMzQ0LTMiPiYjeGE7CQkJCTx0aXRsZSBpZD0idGl0bGUxMTkxMTEiPnBhdGg4MjQyPC90aXRsZT4mI3hhOwkJCQk8cGF0aCBpZD0icGF0aDExOTExMyIgaW5rc2NhcGU6Y29ubmVjdG9yLWN1cnZhdHVyZT0iMCIgc3R5bGU9ImZpbGw6IzgwQkNFQjsiIGQ9Ik00OCw0LjVWMzlIMFY0LjVjMC0xLjY2LDEuMzQtMywzLTNoNDIgICAgICBDNDYuNjYsMS41LDQ4LDIuODQsNDgsNC41eiIvPiYjeGE7CQkJPC9nPiYjeGE7CQkJPGcgaWQ9InNoYXBlMTM0NS01IiB0cmFuc2Zvcm09InRyYW5zbGF0ZSgzLC0zMi4yNSkiPiYjeGE7CQkJCTx0aXRsZSBpZD0idGl0bGUxMTkxMTYiPmNpcmNsZTgyNDQ8L3RpdGxlPiYjeGE7CQkJCTxjaXJjbGUgaWQ9ImVsbGlwc2UxMTkxMTgiIHN0eWxlPSJmaWxsOiM0MTQwNDI7IiBjeD0iMS41IiBjeT0iMzcuNSIgcj0iMS41Ii8+JiN4YTsJCQk8L2c+JiN4YTsJCQk8ZyBpZD0ic2hhcGUxMzQ2LTciIHRyYW5zZm9ybT0idHJhbnNsYXRlKDcuNSwtMzIuMjUpIj4mI3hhOwkJCQk8dGl0bGUgaWQ9InRpdGxlMTE5MTIxIj5jaXJjbGU4MjQ2PC90aXRsZT4mI3hhOwkJCQk8Y2lyY2xlIGlkPSJlbGxpcHNlMTE5MTIzIiBzdHlsZT0iZmlsbDojNDE0MDQyOyIgY3g9IjEuNSIgY3k9IjM3LjUiIHI9IjEuNSIvPiYjeGE7CQkJPC9nPiYjeGE7CQkJPGcgaWQ9InNoYXBlMTM0Ny05IiB0cmFuc2Zvcm09InRyYW5zbGF0ZSgxMiwtMzIuMjUpIj4mI3hhOwkJCQk8dGl0bGUgaWQ9InRpdGxlMTE5MTI2Ij5jaXJjbGU4MjQ4PC90aXRsZT4mI3hhOwkJCQk8Y2lyY2xlIGlkPSJlbGxpcHNlMTE5MTI4IiBzdHlsZT0iZmlsbDojNDE0MDQyOyIgY3g9IjEuNSIgY3k9IjM3LjUiIHI9IjEuNSIvPiYjeGE7CQkJPC9nPiYjeGE7CQkJPGcgaWQ9InNoYXBlMTM0OC0xMSIgdHJhbnNmb3JtPSJ0cmFuc2xhdGUoMTUuNzUsLTUuMjUpIj4mI3hhOwkJCQk8dGl0bGUgaWQ9InRpdGxlMTE5MTMxIj5wYXRoODI1MDwvdGl0bGU+JiN4YTsJCQkJPHBhdGggaWQ9InBhdGgxMTkxMzMiIGlua3NjYXBlOmNvbm5lY3Rvci1jdXJ2YXR1cmU9IjAiIHN0eWxlPSJmaWxsOiNBQUQyRjI7IiBkPSJNMzIuMjUsOS43NVYzOWwtMy0zbC0xLjUtMTguNzVsLTE4LTAuNzUgICAgICBMMCw2Ljc1aDI5LjI1QzMwLjkxLDYuNzUsMzIuMjUsOC4wOSwzMi4yNSw5Ljc1eiIvPiYjeGE7CQkJPC9nPiYjeGE7CQkJPGcgaWQ9InNoYXBlMTM0OS0xMyIgdHJhbnNmb3JtPSJ0cmFuc2xhdGUoMi4yNSwtMi4yNSkiPiYjeGE7CQkJCTx0aXRsZSBpZD0idGl0bGUxMTkxMzYiPnJlY3Q4MjUyPC90aXRsZT4mI3hhOwkJCQk8cmVjdCBpZD0icmVjdDExOTEzOCIgeT0iMTAuNSIgc3R5bGU9ImZpbGw6IzIzMUYyMDsiIHdpZHRoPSI0My41IiBoZWlnaHQ9IjI4LjUiLz4mI3hhOwkJCTwvZz4mI3hhOwkJCTxnIGlkPSJzaGFwZTEzNTAtMTUiIHRyYW5zZm9ybT0idHJhbnNsYXRlKDUuMTgyNSwtMjAuMDAyNSkiPiYjeGE7CQkJCTx0aXRsZSBpZD0idGl0bGUxMTkxNDEiPnBhdGg4MjU0PC90aXRsZT4mI3hhOwkJCQk8cGF0aCBpZD0icGF0aDExOTE0MyIgaW5rc2NhcGU6Y29ubmVjdG9yLWN1cnZhdHVyZT0iMCIgc3R5bGU9ImZpbGw6I0ZGRkZGRjsiIGQ9Ik0yLjM4LDM3Ljk2VjM5aC0wLjZ2LTEgICAgICBjLTAuNiwwLjAyLTEuMTktMC4xMi0xLjcxLTAuNDFWMzYuNWMwLjIzLDAuMTksMC41LDAuMzMsMC43OCwwLjQyYzAuMywwLjExLDAuNjEsMC4xNywwLjkzLDAuMTdWMzUgICAgICBjLTAuNTUtMC4yMS0xLjA0LTAuNTQtMS40NS0wLjk2Yy0wLjIyLTAuMy0wLjM0LTAuNjYtMC4zMy0xLjAzYy0wLjAxLTAuNDYsMC4xNy0wLjkxLDAuNS0xLjIzYzAuMzQtMC4zNSwwLjc5LTAuNTcsMS4yOC0wLjYyICAgICAgdi0wLjg1aDAuNTl2MC44NGMwLjQ3LTAuMDIsMC45NSwwLjA3LDEuMzgsMC4yN3YxLjAyQzMuMzUsMzIuMTYsMi44NywzMiwyLjM4LDMydjIuMjVjMC41NCwwLjIsMS4wMywwLjUxLDEuNDQsMC45MSAgICAgIGMwLjU1LDAuNjUsMC41LDEuNjEtMC4xLDIuMkMzLjM1LDM3LjcsMi44OCwzNy45MSwyLjM4LDM3Ljk2eiBNMS43OSwzMy45NHYtMS44OWMtMC4yMiwwLjAzLTAuNDIsMC4xNC0wLjU3LDAuMyAgICAgIEMxLjA4LDMyLjUxLDEsMzIuNzEsMS4wMSwzMi45MkMxLDMzLjEzLDEuMDYsMzMuMzMsMS4xOCwzMy41QzEuMzUsMzMuNjgsMS41NSwzMy44MywxLjc5LDMzLjk0TDEuNzksMzMuOTR6IE0yLjM4LDM1LjI2djEuODMgICAgICBjMC41NC0wLjExLDAuODEtMC4zOSwwLjgxLTAuODRDMy4xOSwzNS44MSwyLjkyLDM1LjQ4LDIuMzgsMzUuMjZ6Ii8+JiN4YTsJCQk8L2c+JiN4YTsJCQk8ZyBpZD0ic2hhcGUxMzUxLTE3IiB0cmFuc2Zvcm09InRyYW5zbGF0ZSg5LjkwNzUsLTE5LjU5KSI+JiN4YTsJCQkJPHRpdGxlIGlkPSJ0aXRsZTExOTE0NiI+cGF0aDgyNTY8L3RpdGxlPiYjeGE7CQkJCTxyZWN0IGlkPSJyZWN0MTE5MTQ4IiB4PSIwIiB5PSIzOC40NCIgc3R5bGU9ImZpbGw6I0ZGRkZGRjsiIHdpZHRoPSI0LjA1IiBoZWlnaHQ9IjAuNTYiLz4mI3hhOwkJCTwvZz4mI3hhOwkJCTxnIGlkPSJzaGFwZTEzNTItMTkiIHRyYW5zZm9ybT0idHJhbnNsYXRlKDIyLjUsLTcuNSkiPiYjeGE7CQkJCTx0aXRsZSBpZD0idGl0bGUxMTkxNTEiPnBvbHlnb244MjU4PC90aXRsZT4mI3hhOwkJCQk8cGF0aCBpZD0icGF0aDExOTE1MyIgaW5rc2NhcGU6Y29ubmVjdG9yLWN1cnZhdHVyZT0iMCIgc3R5bGU9ImZpbGw6IzQxNDA0MjsiIGQ9Ik0wLDE1Ljc1aDIzLjI1VjM5TDAsMTUuNzV6Ii8+JiN4YTsJCQk8L2c+JiN4YTsJCTwvZz4mI3hhOwk8L2c+JiN4YTs8L2c+JiN4YTs8L3N2Zz4=;fontSize=20;fontColor=#004C99;fillColor=#9494FF;html=1;" vertex="1" parent="1">
          <mxGeometry x="77.05" y="361" width="90.95" height="72" as="geometry" />
        </mxCell>
        <mxCell id="JQ6tBwWLcFrwbUFlZFzO-2146" value="Storage" style="verticalLabelPosition=bottom;html=1;verticalAlign=top;strokeColor=none;fillColor=#999900;shape=mxgraph.azure.server_rack;dashed=1;fontFamily=Helvetica;fontSize=14;fontColor=#004C99" vertex="1" parent="1">
          <mxGeometry x="244.5" y="402.64" width="50" height="34" as="geometry" />
        </mxCell>
        <mxCell id="JQ6tBwWLcFrwbUFlZFzO-2153" value="" style="arrow;html=1;endArrow=block;endFill=1;strokeColor=none;strokeWidth=4;fontFamily=Helvetica;fontSize=36;fontColor=#FFB366;fillColor=#FFB366;entryX=-0.018;entryY=0.233;entryDx=0;entryDy=0;exitX=0.87;exitY=0.65;exitDx=0;exitDy=0;exitPerimeter=0;entryPerimeter=0;" edge="1" parent="1" source="2041" target="2068">
          <mxGeometry width="100" height="100" relative="1" as="geometry">
            <mxPoint x="160" y="271" as="sourcePoint" />
            <mxPoint x="210" y="271" as="targetPoint" />
            <Array as="points">
              <mxPoint x="190" y="320" />
            </Array>
          </mxGeometry>
        </mxCell>
        <mxCell id="JQ6tBwWLcFrwbUFlZFzO-2154" value="iSCSC Initiator" style="shape=image;verticalLabelPosition=bottom;labelBackgroundColor=none;verticalAlign=top;aspect=fixed;imageAspect=0;image=data:image/svg+xml,PHN2ZyB4bWxuczpjYz0iaHR0cDovL2NyZWF0aXZlY29tbW9ucy5vcmcvbnMjIiB4bWxuczpkYz0iaHR0cDovL3B1cmwub3JnL2RjL2VsZW1lbnRzLzEuMS8iIHhtbG5zOmlua3NjYXBlPSJodHRwOi8vd3d3Lmlua3NjYXBlLm9yZy9uYW1lc3BhY2VzL2lua3NjYXBlIiB4bWxuczpyZGY9Imh0dHA6Ly93d3cudzMub3JnLzE5OTkvMDIvMjItcmRmLXN5bnRheC1ucyMiIHhtbG5zOnNvZGlwb2RpPSJodHRwOi8vc29kaXBvZGkuc291cmNlZm9yZ2UubmV0L0RURC9zb2RpcG9kaS0wLmR0ZCIgeG1sbnM6c3ZnPSJodHRwOi8vd3d3LnczLm9yZy8yMDAwL3N2ZyIgeG1sbnM9Imh0dHA6Ly93d3cudzMub3JnLzIwMDAvc3ZnIiB4bWxuczp4bGluaz0iaHR0cDovL3d3dy53My5vcmcvMTk5OS94bGluayIgdmVyc2lvbj0iMS4xIiBpZD0ic3ZnMzY5MzQiIGlua3NjYXBlOnZlcnNpb249IjAuOTIuMyAoMjQwNTU0NiwgMjAxOC0wMy0xMSkiIHNvZGlwb2RpOmRvY25hbWU9InRhYmxldF80LnN2ZyIgeD0iMHB4IiB5PSIwcHgiIHZpZXdCb3g9IjAgMCAzOC41NyA1My45MiIgc3R5bGU9ImVuYWJsZS1iYWNrZ3JvdW5kOm5ldyAwIDAgMzguNTcgNTMuOTI7IiB4bWw6c3BhY2U9InByZXNlcnZlIj4mI3hhOzxzb2RpcG9kaTpuYW1lZHZpZXcgYm9yZGVyY29sb3I9IiM2NjY2NjYiIGJvcmRlcm9wYWNpdHk9IjEiIGZpdC1tYXJnaW4tYm90dG9tPSIwIiBmaXQtbWFyZ2luLWxlZnQ9IjAiIGZpdC1tYXJnaW4tcmlnaHQ9IjAiIGZpdC1tYXJnaW4tdG9wPSIwIiBncmlkdG9sZXJhbmNlPSIxMCIgZ3VpZGV0b2xlcmFuY2U9IjEwIiBpZD0ibmFtZWR2aWV3MzY5MzYiIGlua3NjYXBlOmN1cnJlbnQtbGF5ZXI9InN2ZzM2OTM0IiBpbmtzY2FwZTpjeD0iMjUuNzExMDA5IiBpbmtzY2FwZTpjeT0iMzUuOTQ4NDgxIiBpbmtzY2FwZTpwYWdlb3BhY2l0eT0iMCIgaW5rc2NhcGU6cGFnZXNoYWRvdz0iMiIgaW5rc2NhcGU6d2luZG93LWhlaWdodD0iMTAxNyIgaW5rc2NhcGU6d2luZG93LW1heGltaXplZD0iMSIgaW5rc2NhcGU6d2luZG93LXdpZHRoPSIxOTIwIiBpbmtzY2FwZTp3aW5kb3cteD0iLTgiIGlua3NjYXBlOndpbmRvdy15PSItOCIgaW5rc2NhcGU6em9vbT0iMTIuMDYwMTI2IiBvYmplY3R0b2xlcmFuY2U9IjEwIiBwYWdlY29sb3I9IiNmZmZmZmYiIHNob3dncmlkPSJmYWxzZSI+JiN4YTsJPC9zb2RpcG9kaTpuYW1lZHZpZXc+JiN4YTs8ZyBpZD0iZzM2OTMyIj4mI3hhOwk8dGl0bGUgaWQ9InRpdGxlMzY5MTIiPlBhZ2UtMTwvdGl0bGU+JiN4YTsJPGcgaWQ9Imdyb3VwMzI5NS0xIj4mI3hhOwkJPHRpdGxlIGlkPSJ0aXRsZTM2OTE0Ij5UYWJsZXQgIzQ8L3RpdGxlPiYjeGE7CQk8ZyBpZD0ic2hhcGUzMjk2LTIiPiYjeGE7CQkJPHRpdGxlIGlkPSJ0aXRsZTM2OTE2Ij5TaGVldC4zMjk2PC90aXRsZT4mI3hhOwkJCTxwYXRoIGlkPSJwYXRoMzY5MTgiIGlua3NjYXBlOmNvbm5lY3Rvci1jdXJ2YXR1cmU9IjAiIHN0eWxlPSJmaWxsOiMzRjU3NjU7IiBkPSJNMzYuMTIsMEMyLjY0LDAsMi42NCwwLDIuNjQsMCAgICAgQzEuMzQsMCwwLDAuODgsMCwyLjIyYzAsNTAuMjQsMCw0OS42NywwLDQ5LjY3YzAsMS4wMywxLjM0LDIuMDMsMi42NCwyLjAzYzMzLjQ4LDAsMzMuNDgsMCwzMy40OCwwYzEuMywwLDIuNDUtMSwyLjQ1LTIuMDMgICAgIGMwLTUwLjI4LDAtNDkuNjcsMC00OS42N0MzOC41NywwLjg4LDM3LjQyLDAsMzYuMTIsMHoiLz4mI3hhOwkJPC9nPiYjeGE7CQk8ZyBpZD0ic2hhcGUzMjk3LTQiIHRyYW5zZm9ybT0idHJhbnNsYXRlKDMuNjczLC0zLjY3NjE4KSI+JiN4YTsJCQk8dGl0bGUgaWQ9InRpdGxlMzY5MjEiPlNoZWV0LjMyOTc8L3RpdGxlPiYjeGE7CQkJPHBhdGggaWQ9InBhdGgzNjkyMyIgaW5rc2NhcGU6Y29ubmVjdG9yLWN1cnZhdHVyZT0iMCIgc3R5bGU9ImZpbGw6I0ZGRkZGRjsiIGQ9Ik0wLDYuNzRoMzEuMjJ2NDcuMThIMFY2Ljc0eiIvPiYjeGE7CQk8L2c+JiN4YTsJCTxnIGlkPSJzaGFwZTMyOTgtNiIgdHJhbnNmb3JtPSJ0cmFuc2xhdGUoMTIuMjQzMywtMS44MzgwOSkiPiYjeGE7CQkJPHRpdGxlIGlkPSJ0aXRsZTM2OTI2Ij5TaGVldC4zMjk4PC90aXRsZT4mI3hhOwkJCTxwYXRoIGlkPSJwYXRoMzY5MjgiIGlua3NjYXBlOmNvbm5lY3Rvci1jdXJ2YXR1cmU9IjAiIHN0eWxlPSJmaWxsOiNGRkZGRkY7IiBkPSJNMTMuODEsNTMuOTJjLTEzLjM1LDAtMTMuMzUsMC0xMy4zNSwwICAgICBDMC4xNSw1My45MiwwLDUzLjgsMCw1My42OWwwLDBjMC0wLjIzLDAuMTUtMC4zOSwwLjQ2LTAuMzljMTMuMzUsMCwxMy4zNSwwLDEzLjM1LDBjMC4xNiwwLDAuMjcsMC4xNiwwLjI3LDAuMzlsMCwwICAgICBDMTQuMDgsNTMuOCwxMy45Nyw1My45MiwxMy44MSw1My45MnoiLz4mI3hhOwkJPC9nPiYjeGE7CTwvZz4mI3hhOzwvZz4mI3hhOzwvc3ZnPg==;fontSize=20;fontColor=#004C99;fillColor=#9494FF;html=1;imageBackground=#999900;opacity=50;" vertex="1" parent="1">
          <mxGeometry x="94.75" y="735" width="39" height="54" as="geometry" />
        </mxCell>
        <mxCell id="JQ6tBwWLcFrwbUFlZFzO-2159" value="S3 buckets&lt;br&gt;iSCSI volumes&lt;br&gt;NFS shares&lt;br&gt;Backups" style="verticalLabelPosition=bottom;html=1;verticalAlign=top;strokeColor=none;fillColor=#999900;shape=mxgraph.azure.server_rack;dashed=1;fontFamily=Helvetica;fontSize=14;fontColor=#004C99" vertex="1" parent="1">
          <mxGeometry x="701" y="666" width="50" height="34" as="geometry" />
        </mxCell>
        <mxCell id="JQ6tBwWLcFrwbUFlZFzO-2204" style="edgeStyle=orthogonalEdgeStyle;curved=1;rounded=0;orthogonalLoop=1;jettySize=auto;html=1;exitX=1;exitY=0.5;exitDx=0;exitDy=0;entryX=0;entryY=0.75;entryDx=0;entryDy=0;fontSize=12;fontColor=#004C99;strokeColor=default;strokeWidth=2;fillColor=default;" edge="1" parent="1" source="JQ6tBwWLcFrwbUFlZFzO-2160" target="JQ6tBwWLcFrwbUFlZFzO-2097">
          <mxGeometry relative="1" as="geometry" />
        </mxCell>
        <mxCell id="JQ6tBwWLcFrwbUFlZFzO-2227" style="edgeStyle=orthogonalEdgeStyle;curved=1;rounded=0;orthogonalLoop=1;jettySize=auto;html=1;exitX=0.5;exitY=0;exitDx=0;exitDy=0;fontSize=12;fontColor=#004C99;startArrow=none;startFill=0;strokeColor=default;strokeWidth=2;fillColor=default;" edge="1" parent="1" source="JQ6tBwWLcFrwbUFlZFzO-2160" target="2063">
          <mxGeometry relative="1" as="geometry" />
        </mxCell>
        <mxCell id="JQ6tBwWLcFrwbUFlZFzO-2160" value="Identity" style="rounded=1;whiteSpace=wrap;html=1;dashed=1;strokeColor=none;strokeWidth=2;fillColor=#FFFFFF;fontFamily=Helvetica;fontSize=14;fontColor=#FFB366;opacity=75;verticalAlign=top;fontStyle=1" vertex="1" parent="1">
          <mxGeometry x="345.25" y="519.86" width="86" height="138.14" as="geometry" />
        </mxCell>
        <mxCell id="JQ6tBwWLcFrwbUFlZFzO-2161" value="Keystone" style="verticalLabelPosition=bottom;html=1;verticalAlign=top;strokeColor=none;fillColor=#3399FF;shape=mxgraph.azure.azure_active_directory;dashed=1;fontFamily=Helvetica;fontSize=14;fontColor=#004C99" vertex="1" parent="1">
          <mxGeometry x="364.5" y="564" width="47.5" height="50" as="geometry" />
        </mxCell>
        <mxCell id="JQ6tBwWLcFrwbUFlZFzO-2223" style="edgeStyle=orthogonalEdgeStyle;curved=1;rounded=0;orthogonalLoop=1;jettySize=auto;html=1;entryX=0.25;entryY=1;entryDx=0;entryDy=0;fontSize=12;fontColor=#004C99;startArrow=none;startFill=0;strokeColor=default;strokeWidth=2;fillColor=default;" edge="1" parent="1" source="JQ6tBwWLcFrwbUFlZFzO-2162" target="JQ6tBwWLcFrwbUFlZFzO-2103">
          <mxGeometry relative="1" as="geometry" />
        </mxCell>
        <mxCell id="JQ6tBwWLcFrwbUFlZFzO-2162" value="ABGW API" style="rounded=1;whiteSpace=wrap;html=1;dashed=1;strokeColor=none;strokeWidth=2;fillColor=#FFFFFF;fontFamily=Helvetica;fontSize=14;fontColor=#FFB366;opacity=75;verticalAlign=top;fontStyle=1" vertex="1" parent="1">
          <mxGeometry x="227" y="810" width="83" height="97" as="geometry" />
        </mxCell>
        <mxCell id="JQ6tBwWLcFrwbUFlZFzO-2163" value="Backup" style="verticalLabelPosition=bottom;html=1;verticalAlign=top;strokeColor=none;fillColor=#999900;shape=mxgraph.azure.azure_active_directory;dashed=1;fontFamily=Helvetica;fontSize=14;fontColor=#004C99" vertex="1" parent="1">
          <mxGeometry x="242.25" y="830" width="47.5" height="50" as="geometry" />
        </mxCell>
        <mxCell id="JQ6tBwWLcFrwbUFlZFzO-2168" value="Users" style="shape=image;verticalLabelPosition=bottom;labelBackgroundColor=none;verticalAlign=top;aspect=fixed;imageAspect=0;image=data:image/svg+xml,PHN2ZyB4bWxuczpjYz0iaHR0cDovL2NyZWF0aXZlY29tbW9ucy5vcmcvbnMjIiB4bWxuczpkYz0iaHR0cDovL3B1cmwub3JnL2RjL2VsZW1lbnRzLzEuMS8iIHhtbG5zOmlua3NjYXBlPSJodHRwOi8vd3d3Lmlua3NjYXBlLm9yZy9uYW1lc3BhY2VzL2lua3NjYXBlIiB4bWxuczpyZGY9Imh0dHA6Ly93d3cudzMub3JnLzE5OTkvMDIvMjItcmRmLXN5bnRheC1ucyMiIHhtbG5zOnNvZGlwb2RpPSJodHRwOi8vc29kaXBvZGkuc291cmNlZm9yZ2UubmV0L0RURC9zb2RpcG9kaS0wLmR0ZCIgeG1sbnM6c3ZnPSJodHRwOi8vd3d3LnczLm9yZy8yMDAwL3N2ZyIgeG1sbnM9Imh0dHA6Ly93d3cudzMub3JnLzIwMDAvc3ZnIiB4bWxuczp4bGluaz0iaHR0cDovL3d3dy53My5vcmcvMTk5OS94bGluayIgdmVyc2lvbj0iMS4xIiBpZD0ic3ZnMTAwNzM2IiBpbmtzY2FwZTp2ZXJzaW9uPSIwLjkyLjMgKDI0MDU1NDYsIDIwMTgtMDMtMTEpIiBzb2RpcG9kaTpkb2NuYW1lPSJ1c2Vycy5zdmciIHg9IjBweCIgeT0iMHB4IiB2aWV3Qm94PSIwIDAgMTkyLjEyIDIyNC45MSIgc3R5bGU9ImVuYWJsZS1iYWNrZ3JvdW5kOm5ldyAwIDAgMTkyLjEyIDIyNC45MTsiIHhtbDpzcGFjZT0icHJlc2VydmUiPiYjeGE7PHNvZGlwb2RpOm5hbWVkdmlldyBib3JkZXJjb2xvcj0iIzY2NjY2NiIgYm9yZGVyb3BhY2l0eT0iMSIgZml0LW1hcmdpbi1ib3R0b209IjAiIGZpdC1tYXJnaW4tbGVmdD0iMCIgZml0LW1hcmdpbi1yaWdodD0iMCIgZml0LW1hcmdpbi10b3A9IjAiIGdyaWR0b2xlcmFuY2U9IjEwIiBndWlkZXRvbGVyYW5jZT0iMTAiIGlkPSJuYW1lZHZpZXcxMDA3MzgiIGlua3NjYXBlOmN1cnJlbnQtbGF5ZXI9InN2ZzEwMDczNiIgaW5rc2NhcGU6Y3g9IjIwMS40NDcwNiIgaW5rc2NhcGU6Y3k9IjczLjk2NDI1MyIgaW5rc2NhcGU6cGFnZW9wYWNpdHk9IjAiIGlua3NjYXBlOnBhZ2VzaGFkb3c9IjIiIGlua3NjYXBlOndpbmRvdy1oZWlnaHQ9IjEwMTciIGlua3NjYXBlOndpbmRvdy1tYXhpbWl6ZWQ9IjEiIGlua3NjYXBlOndpbmRvdy13aWR0aD0iMTkyMCIgaW5rc2NhcGU6d2luZG93LXg9Ii04IiBpbmtzY2FwZTp3aW5kb3cteT0iLTgiIGlua3NjYXBlOnpvb209IjEuNDQ1NTY5IiBvYmplY3R0b2xlcmFuY2U9IjEwIiBwYWdlY29sb3I9IiNmZmZmZmYiIHNob3dncmlkPSJmYWxzZSI+JiN4YTsJPC9zb2RpcG9kaTpuYW1lZHZpZXc+JiN4YTs8ZyBpZD0iZzEwMDczNCIgdHJhbnNmb3JtPSJ0cmFuc2xhdGUoLTQuOTkwNTY4MWUtNywwLjAwNDQ1NzEzKSI+JiN4YTsJPHRpdGxlIGlkPSJ0aXRsZTEwMDU4NCI+UGFnZS0xPC90aXRsZT4mI3hhOwk8ZyBpZD0iZ3JvdXA1NTkzLTEiIHRyYW5zZm9ybT0idHJhbnNsYXRlKDAuMTQ5OTk5LC0wLjE0OTk5OSkiPiYjeGE7CQk8dGl0bGUgaWQ9InRpdGxlMTAwNTg2Ij5Vc2VyczwvdGl0bGU+JiN4YTsJCTxnIGlkPSJzaGFwZTU1OTQtMiIgdHJhbnNmb3JtPSJ0cmFuc2xhdGUoMjguNDk5MiwtMTM2LjY4MSkiPiYjeGE7CQkJPHRpdGxlIGlkPSJ0aXRsZTEwMDU4OCI+U2hlZXQuNTU5NDwvdGl0bGU+JiN4YTsJCQk8cGF0aCBpZD0icGF0aDEwMDU5MCIgaW5rc2NhcGU6Y29ubmVjdG9yLWN1cnZhdHVyZT0iMCIgc3R5bGU9ImZpbGw6IzZENDgyOTsiIGQ9Ik0wLDIyNC45MXYtMjguNDRoNDcuMzR2MjguNDRIMHoiLz4mI3hhOwkJPC9nPiYjeGE7CQk8ZyBpZD0ic2hhcGU1NTk1LTQiIHRyYW5zZm9ybT0idHJhbnNsYXRlKDAuMTE5OTk3LC0zMC42MDAyKSI+JiN4YTsJCQk8dGl0bGUgaWQ9InRpdGxlMTAwNTkzIj5TaGVldC41NTk1PC90aXRsZT4mI3hhOwkJCTxwYXRoIGlkPSJwYXRoMTAwNTk1IiBpbmtzY2FwZTpjb25uZWN0b3ItY3VydmF0dXJlPSIwIiBzdHlsZT0iZmlsbDojNDBDNUFGOyIgZD0iTTIyLjAyLDExMC4zMWg2MC4yNCAgICAgYzEyLjEyLDAsMjIuMDIsMTAuOCwyMi4wMiwyMy41MnYxOS42Mkg4Mi4zMnY3MS40NkgyMi4wOHYtNzEuNDZIMHYtMTkuNTZsMCwwYzAtMTIuNzgsOS45LTIzLjUyLDIyLjAyLTIzLjUyVjExMC4zMXoiLz4mI3hhOwkJPC9nPiYjeGE7CQk8ZyBpZD0ic2hhcGU1NTk2LTYiIHRyYW5zZm9ybT0idHJhbnNsYXRlKDg3LjE3NzYsLTQzLjA4MDMpIj4mI3hhOwkJCTx0aXRsZSBpZD0idGl0bGUxMDA1OTgiPlNoZWV0LjU1OTY8L3RpdGxlPiYjeGE7CQkJPHBhdGggaWQ9InBhdGgxMDA2MDAiIGlua3NjYXBlOmNvbm5lY3Rvci1jdXJ2YXR1cmU9IjAiIHN0eWxlPSJmaWxsOiNFMEJCOEQ7IiBkPSJNMTQuODIsMjI0Ljg1aDI0LjY2di0xOC44NEgxNy4yMnYtNDAuMDhIMCAgICAgdjQ0LjE2bDAsMGMwLjA2LDguMTYsNi42NiwxNC43NiwxNC44MiwxNC44MlYyMjQuODV6Ii8+JiN4YTsJCTwvZz4mI3hhOwkJPGcgaWQ9InNoYXBlNTU5Ny04Ij4mI3hhOwkJCTx0aXRsZSBpZD0idGl0bGUxMDA2MDMiPlNoZWV0LjU1OTc8L3RpdGxlPiYjeGE7CQkJPHBhdGggaWQ9InBhdGgxMDA2MDUiIGlua3NjYXBlOmNvbm5lY3Rvci1jdXJ2YXR1cmU9IjAiIHN0eWxlPSJmaWxsOiNFMEJCOEQ7IiBkPSJNMCwxMjIuODVoMTcuMjJ2MTAyLjA2SDBWMTIyLjg1eiIvPiYjeGE7CQk8L2c+JiN4YTsJCTxnIGlkPSJzaGFwZTU1OTgtMTAiPiYjeGE7CQkJPHRpdGxlIGlkPSJ0aXRsZTEwMDYwOCI+U2hlZXQuNTU5ODwvdGl0bGU+JiN4YTsJCQkmI3hhOwkJCQk8cGF0aCBpZD0icGF0aDEwMDYxMCIgaW5rc2NhcGU6Y29ubmVjdG9yLWN1cnZhdHVyZT0iMCIgc3R5bGU9ImZpbGw6bm9uZTtzdHJva2U6I0ZGRkZGRjtzdHJva2Utd2lkdGg6MC4zO3N0cm9rZS1saW5lY2FwOnJvdW5kO3N0cm9rZS1saW5lam9pbjpyb3VuZDtzdHJva2UtbWl0ZXJsaW1pdDozOyIgZD0iICAgICBNMCwxMjIuODVoMTcuMjJ2MTAyLjA2SDBWMTIyLjg1eiIvPiYjeGE7CQk8L2c+JiN4YTsJCTxnIGlkPSJzaGFwZTU1OTktMTIiIHRyYW5zZm9ybT0idHJhbnNsYXRlKDExMi40OTcsLTY4LjQwMDUpIj4mI3hhOwkJCTx0aXRsZSBpZD0idGl0bGUxMDA2MTMiPlNoZWV0LjU1OTk8L3RpdGxlPiYjeGE7CQkJPHBhdGggaWQ9InBhdGgxMDA2MTUiIGlua3NjYXBlOmNvbm5lY3Rvci1jdXJ2YXR1cmU9IjAiIHN0eWxlPSJmaWxsOiMzRjU3NjU7IiBkPSJNNzkuMzIsMTg2LjUxbC0yMC44OCwzOC40SDBsMjAuNTgtMzguNCAgICAgTDc5LjMyLDE4Ni41MXoiLz4mI3hhOwkJPC9nPiYjeGE7CQk8ZyBpZD0ic2hhcGU1NjAwLTE0IiB0cmFuc2Zvcm09InRyYW5zbGF0ZSgxMTIuNDk3LC02OC40MDA1KSI+JiN4YTsJCQk8dGl0bGUgaWQ9InRpdGxlMTAwNjE4Ij5TaGVldC41NjAwPC90aXRsZT4mI3hhOwkJCSYjeGE7CQkJCTxwYXRoIGlkPSJwYXRoMTAwNjIwIiBpbmtzY2FwZTpjb25uZWN0b3ItY3VydmF0dXJlPSIwIiBzdHlsZT0iZmlsbDpub25lO3N0cm9rZTojRkZGRkZGO3N0cm9rZS13aWR0aDowLjM7c3Ryb2tlLWxpbmVjYXA6cm91bmQ7c3Ryb2tlLWxpbmVqb2luOnJvdW5kO3N0cm9rZS1taXRlcmxpbWl0OjM7IiBkPSIgICAgIE03OS4zMiwxODYuNTFsLTIwLjg4LDM4LjRIMGwyMC41OC0zOC40TDc5LjMyLDE4Ni41MXoiLz4mI3hhOwkJPC9nPiYjeGE7CQk8ZyBpZD0ic2hhcGU1NjAxLTE2IiB0cmFuc2Zvcm09InRyYW5zbGF0ZSgwLC05Ny4wMjA4KSI+JiN4YTsJCQk8dGl0bGUgaWQ9InRpdGxlMTAwNjIzIj5TaGVldC41NjAxPC90aXRsZT4mI3hhOwkJCTxwYXRoIGlkPSJwYXRoMTAwNjI1IiBpbmtzY2FwZTpjb25uZWN0b3ItY3VydmF0dXJlPSIwIiBzdHlsZT0iZmlsbDojQzM5ODZGOyIgZD0iTTE3LjIyLDIyNC45MXYtNS4wNEgwdjUuMDRIMTcuMjJ6Ii8+JiN4YTsJCTwvZz4mI3hhOwkJPGcgaWQ9InNoYXBlNTYwMi0xOCIgdHJhbnNmb3JtPSJ0cmFuc2xhdGUoMCwtOTcuMDIwOCkiPiYjeGE7CQkJPHRpdGxlIGlkPSJ0aXRsZTEwMDYyOCI+U2hlZXQuNTYwMjwvdGl0bGU+JiN4YTsJCQkmI3hhOwkJCQk8cGF0aCBpZD0icGF0aDEwMDYzMCIgaW5rc2NhcGU6Y29ubmVjdG9yLWN1cnZhdHVyZT0iMCIgc3R5bGU9ImZpbGw6bm9uZTtzdHJva2U6I0ZGRkZGRjtzdHJva2Utd2lkdGg6MC4zO3N0cm9rZS1saW5lY2FwOnJvdW5kO3N0cm9rZS1saW5lam9pbjpyb3VuZDtzdHJva2UtbWl0ZXJsaW1pdDozOyIgZD0iICAgICBNMTcuMjIsMjI0Ljkxdi01LjA0SDB2NS4wNEgxNy4yMnoiLz4mI3hhOwkJPC9nPiYjeGE7CQk8ZyBpZD0ic2hhcGU1NjAzLTIwIiB0cmFuc2Zvcm09InRyYW5zbGF0ZSg4Ny4xNzc2LC05Ny4wMjA4KSI+JiN4YTsJCQk8dGl0bGUgaWQ9InRpdGxlMTAwNjMzIj5TaGVldC41NjAzPC90aXRsZT4mI3hhOwkJCTxwYXRoIGlkPSJwYXRoMTAwNjM1IiBpbmtzY2FwZTpjb25uZWN0b3ItY3VydmF0dXJlPSIwIiBzdHlsZT0iZmlsbDojQzM5ODZGOyIgZD0iTTE3LjIyLDIyNC45MXYtNS4wNEgwdjUuMDRIMTcuMjJ6Ii8+JiN4YTsJCTwvZz4mI3hhOwkJPGcgaWQ9InNoYXBlNTYwNC0yMiIgdHJhbnNmb3JtPSJ0cmFuc2xhdGUoODcuMTc3NiwtOTcuMDIwOCkiPiYjeGE7CQkJPHRpdGxlIGlkPSJ0aXRsZTEwMDYzOCI+U2hlZXQuNTYwNDwvdGl0bGU+JiN4YTsJCQkmI3hhOwkJCQk8cGF0aCBpZD0icGF0aDEwMDY0MCIgaW5rc2NhcGU6Y29ubmVjdG9yLWN1cnZhdHVyZT0iMCIgc3R5bGU9ImZpbGw6bm9uZTtzdHJva2U6I0ZGRkZGRjtzdHJva2Utd2lkdGg6MC4zO3N0cm9rZS1saW5lY2FwOnJvdW5kO3N0cm9rZS1saW5lam9pbjpyb3VuZDtzdHJva2UtbWl0ZXJsaW1pdDozOyIgZD0iICAgICBNMTcuMjIsMjI0Ljkxdi01LjA0SDB2NS4wNEgxNy4yMnoiLz4mI3hhOwkJPC9nPiYjeGE7CQk8ZyBpZD0ic2hhcGU1NjA1LTI0IiB0cmFuc2Zvcm09InRyYW5zbGF0ZSg0MS44Nzg5LC0xMzcuNTgxKSI+JiN4YTsJCQk8dGl0bGUgaWQ9InRpdGxlMTAwNjQzIj5TaGVldC41NjA1PC90aXRsZT4mI3hhOwkJCTxwYXRoIGlkPSJwYXRoMTAwNjQ1IiBpbmtzY2FwZTpjb25uZWN0b3ItY3VydmF0dXJlPSIwIiBzdHlsZT0iZmlsbDojRTFCQzhGOyIgZD0iTTAsMTkxLjQzaDIwLjI4djI3Ljg0bC0xMC4zMiw1LjY0TDAsMjE5LjI3ICAgICBWMTkxLjQzeiIvPiYjeGE7CQk8L2c+JiN4YTsJCTxnIGlkPSJzaGFwZTU2MDYtMjYiIHRyYW5zZm9ybT0idHJhbnNsYXRlKDIzLjM5OTQsLTE4MC40MjEpIj4mI3hhOwkJCTx0aXRsZSBpZD0idGl0bGUxMDA2NDgiPlNoZWV0LjU2MDY8L3RpdGxlPiYjeGE7CQkJPHBhdGggaWQ9InBhdGgxMDA2NTAiIGlua3NjYXBlOmNvbm5lY3Rvci1jdXJ2YXR1cmU9IjAiIHN0eWxlPSJmaWxsOiNDNDk5NzA7IiBkPSJNNTcuNzIsMjIxLjc5YzAsMS42Mi0xLjIsMy0yLjgyLDMuMTJIMi44OCAgICAgYy0xLjYyLTAuMTItMi44OC0xLjUtMi44OC0zLjEydi02LjI0YzAtMS41NiwxLjMyLTIuODIsMi44OC0yLjgySDU0LjljMS41NiwwLDIuODIsMS4yNiwyLjgyLDIuODJWMjIxLjc5eiIvPiYjeGE7CQk8L2c+JiN4YTsJCTxnIGlkPSJzaGFwZTU2MDctMjgiIHRyYW5zZm9ybT0idHJhbnNsYXRlKDQyLjExODksLTEzNy41ODEpIj4mI3hhOwkJCTx0aXRsZSBpZD0idGl0bGUxMDA2NTMiPlNoZWV0LjU2MDc8L3RpdGxlPiYjeGE7CQkJJiN4YTsJCQkJPHBhdGggaWQ9InBhdGgxMDA2NTUiIGlua3NjYXBlOmNvbm5lY3Rvci1jdXJ2YXR1cmU9IjAiIHN0eWxlPSJmaWxsOm5vbmU7c3Ryb2tlOiNGRkZGRkY7c3Ryb2tlLXdpZHRoOjAuNDg7c3Ryb2tlLWxpbmVjYXA6cm91bmQ7c3Ryb2tlLWxpbmVqb2luOnJvdW5kO3N0cm9rZS1taXRlcmxpbWl0OjM7IiBkPSIgICAgIE0wLDE5MS40M2gyMC4yOHYyNy44NGwtMTAuMjYsNS42NEwwLDIxOS4yN1YxOTEuNDN6Ii8+JiN4YTsJCTwvZz4mI3hhOwkJPGcgaWQ9InNoYXBlNTYwOC0zMCIgdHJhbnNmb3JtPSJ0cmFuc2xhdGUoNDIuMTE4OSwtMTUzLjU0MSkiPiYjeGE7CQkJPHRpdGxlIGlkPSJ0aXRsZTEwMDY1OCI+U2hlZXQuNTYwODwvdGl0bGU+JiN4YTsJCQk8cGF0aCBpZD0icGF0aDEwMDY2MCIgaW5rc2NhcGU6Y29ubmVjdG9yLWN1cnZhdHVyZT0iMCIgc3R5bGU9ImZpbGw6I0M0OTk3MDsiIGQ9Ik0wLDIyMy43MWMzLjMsMC45LDYuNjYsMS4zMiwxMC4wMiwxLjIgICAgIGMzLjQ4LDAuMDYsNi45LTAuMzYsMTAuMjYtMS4ydi0xNi4zMkgwVjIyMy43MXoiLz4mI3hhOwkJPC9nPiYjeGE7CQk8ZyBpZD0ic2hhcGU1NjA5LTMyIiB0cmFuc2Zvcm09InRyYW5zbGF0ZSgyOC43MzkyLC0xNTcuMzIxKSI+JiN4YTsJCQk8dGl0bGUgaWQ9InRpdGxlMTAwNjYzIj5TaGVldC41NjA5PC90aXRsZT4mI3hhOwkJCTxwYXRoIGlkPSJwYXRoMTAwNjY1IiBpbmtzY2FwZTpjb25uZWN0b3ItY3VydmF0dXJlPSIwIiBzdHlsZT0iZmlsbDojRTFCQzhGOyIgZD0iTTAsMTc5Ljk3djM3LjE0YzYuNzgsNC45OCwxNC45NCw3LjY4LDIzLjQsNy44ICAgICBjOC41OC0wLjEyLDE2Ljk4LTIuODIsMjQtNy44di0zNy4xNEgweiIvPiYjeGE7CQk8L2c+JiN4YTsJCTxnIGlkPSJzaGFwZTU2MTAtMzQiIHRyYW5zZm9ybT0idHJhbnNsYXRlKDI4LjQzOTIsLTE4OS4xMjEpIj4mI3hhOwkJCTx0aXRsZSBpZD0idGl0bGUxMDA2NjgiPlNoZWV0LjU2MTA8L3RpdGxlPiYjeGE7CQkJPHBhdGggaWQ9InBhdGgxMDA2NzAiIGlua3NjYXBlOmNvbm5lY3Rvci1jdXJ2YXR1cmU9IjAiIHN0eWxlPSJmaWxsOiM2RDQ4Mjk7IiBkPSJNMzMuNjYsMTkxLjQ5Yy0zLTEuNS02LjMtMi4yOC05LjY2LTIuMjIgICAgIGMtMTMuMi0wLjEyLTI0LDEwLjU2LTI0LDIzLjc2djExLjg4QzE3Ljc2LDIyMi42OSwzMS44LDIwOC45NSwzMy42NiwxOTEuNDl6Ii8+JiN4YTsJCTwvZz4mI3hhOwkJPGcgaWQ9InNoYXBlNTYxMS0zNiIgdHJhbnNmb3JtPSJ0cmFuc2xhdGUoNDIuNDc4OSwtMTg5LjEyMSkiPiYjeGE7CQkJPHRpdGxlIGlkPSJ0aXRsZTEwMDY3MyI+U2hlZXQuNTYxMTwvdGl0bGU+JiN4YTsJCQk8cGF0aCBpZD0icGF0aDEwMDY3NSIgaW5rc2NhcGU6Y29ubmVjdG9yLWN1cnZhdHVyZT0iMCIgc3R5bGU9ImZpbGw6IzZENDgyOTsiIGQ9Ik0wLDE5MS40OWMzLjA2LTEuNTYsNi40OC0yLjI4LDkuOTYtMi4yMiAgICAgYzEzLjA4LDAsMjMuNywxMC42MiwyMy43LDIzLjc2djExLjg4QzE2LjE0LDIyMi43NSwyLjI4LDIwOS4wMSwwLDE5MS40OXoiLz4mI3hhOwkJPC9nPiYjeGE7CQk8ZyBpZD0ic2hhcGU1NjEyLTM4IiB0cmFuc2Zvcm09InRyYW5zbGF0ZSg0Mi4xMTg5LC0xNjYuMDgxKSI+JiN4YTsJCQk8dGl0bGUgaWQ9InRpdGxlMTAwNjc4Ij5TaGVldC41NjEyPC90aXRsZT4mI3hhOwkJCTxwYXRoIGlkPSJwYXRoMTAwNjgwIiBpbmtzY2FwZTpjb25uZWN0b3ItY3VydmF0dXJlPSIwIiBzdHlsZT0iZmlsbDojRkZGRkZGOyIgZD0iTTAsMjE5LjkzYzIuNDYsMy4yNCw2LjMsNS4xLDEwLjMyLDQuOTggICAgIGMzLjk2LDAuMDYsNy42OC0xLjgsMTAuMDItNC45OEgweiIvPiYjeGE7CQk8L2c+JiN4YTsJCTxnIGlkPSJzaGFwZTU2MTMtNDAiIHRyYW5zZm9ybT0idHJhbnNsYXRlKDQ5LjAxODcsLTE3NS4zODEpIj4mI3hhOwkJCTx0aXRsZSBpZD0idGl0bGUxMDA2ODMiPlNoZWV0LjU2MTM8L3RpdGxlPiYjeGE7CQkJPHBhdGggaWQ9InBhdGgxMDA2ODUiIGlua3NjYXBlOmNvbm5lY3Rvci1jdXJ2YXR1cmU9IjAiIHN0eWxlPSJmaWxsOiNDNDk5NzA7IiBkPSJNMCwyMjMuMzVjMC44NCwwLjk2LDIuMSwxLjU2LDMuNDIsMS41NiAgICAgYzEuMjYsMCwyLjQtMC42LDMuMTItMS41NkgweiIvPiYjeGE7CQk8L2c+JiN4YTsJCTxnIGlkPSJzaGFwZTU2MTQtNDIiIHRyYW5zZm9ybT0idHJhbnNsYXRlKDM5LjU4MzksLTE4NS4xMDEpIj4mI3hhOwkJCTx0aXRsZSBpZD0idGl0bGUxMDA2ODgiPlNoZWV0LjU2MTQ8L3RpdGxlPiYjeGE7CQkJPHBhdGggaWQ9InBhdGgxMDA2OTAiIGlua3NjYXBlOmNvbm5lY3Rvci1jdXJ2YXR1cmU9IjAiIHN0eWxlPSJmaWxsOiMzMzMzMzM7IiBkPSJNMy40MywyMjMuMzVjLTAuMDYsMC45Ni0wLjksMS42Mi0xLjg2LDEuNTYgICAgIGMtMi4wOSwwLTIuMDktMy4xMiwwLTMuMTJDMi41MywyMjEuNzMsMy4zNywyMjIuMzksMy40MywyMjMuMzV6Ii8+JiN4YTsJCTwvZz4mI3hhOwkJPGcgaWQ9InNoYXBlNTYxNS00NCIgdHJhbnNmb3JtPSJ0cmFuc2xhdGUoNjEuNzgzMywtMTg1LjEwMSkiPiYjeGE7CQkJPHRpdGxlIGlkPSJ0aXRsZTEwMDY5MyI+U2hlZXQuNTYxNTwvdGl0bGU+JiN4YTsJCQk8cGF0aCBpZD0icGF0aDEwMDY5NSIgaW5rc2NhcGU6Y29ubmVjdG9yLWN1cnZhdHVyZT0iMCIgc3R5bGU9ImZpbGw6IzMzMzMzMzsiIGQ9Ik0zLjQzLDIyMy4zNWMtMC4xMiwwLjk2LTAuOTYsMS42Mi0xLjg2LDEuNTYgICAgIGMtMi4wOSwwLTIuMDktMy4xMiwwLTMuMTJDMi40NywyMjEuNzMsMy4zMSwyMjIuMzksMy40MywyMjMuMzV6Ii8+JiN4YTsJCTwvZz4mI3hhOwkJPGcgaWQ9InNoYXBlNTYxNi00NiIgdHJhbnNmb3JtPSJ0cmFuc2xhdGUoNDYuNDk4NywtODYuNzYwNykiPiYjeGE7CQkJPHRpdGxlIGlkPSJ0aXRsZTEwMDY5OCI+U2hlZXQuNTYxNjwvdGl0bGU+JiN4YTsJCQk8cGF0aCBpZD0icGF0aDEwMDcwMCIgaW5rc2NhcGU6Y29ubmVjdG9yLWN1cnZhdHVyZT0iMCIgc3R5bGU9ImZpbGw6I0ZGRkZGRjsiIGQ9Ik0wLDIwNS45NWgxMS41MnYxOC45NkgwVjIwNS45NXoiLz4mI3hhOwkJPC9nPiYjeGE7CQk8ZyBpZD0ic2hhcGU1NjE3LTQ4IiB0cmFuc2Zvcm09InRyYW5zbGF0ZSg0My4xMzg4LC0xMDUuMzYxKSI+JiN4YTsJCQk8dGl0bGUgaWQ9InRpdGxlMTAwNzAzIj5TaGVldC41NjE3PC90aXRsZT4mI3hhOwkJCSYjeGE7CQkJCTxwYXRoIGlkPSJwYXRoMTAwNzA1IiBpbmtzY2FwZTpjb25uZWN0b3ItY3VydmF0dXJlPSIwIiBzdHlsZT0iZmlsbDpub25lO3N0cm9rZTojRkZGRkZGO3N0cm9rZS13aWR0aDowLjc4O3N0cm9rZS1saW5lY2FwOnJvdW5kO3N0cm9rZS1saW5lam9pbjpyb3VuZDtzdHJva2UtbWl0ZXJsaW1pdDozOyIgZD0iICAgICBNMy45LDIyNC45MUwwLDE4Ny41OSIvPiYjeGE7CQk8L2c+JiN4YTsJCTxnIGlkPSJzaGFwZTU2MTgtNTEiIHRyYW5zZm9ybT0idHJhbnNsYXRlKDU3LjUzODQsLTEwNS40ODEpIj4mI3hhOwkJCTx0aXRsZSBpZD0idGl0bGUxMDA3MDgiPlNoZWV0LjU2MTg8L3RpdGxlPiYjeGE7CQkJJiN4YTsJCQkJPHBhdGggaWQ9InBhdGgxMDA3MTAiIGlua3NjYXBlOmNvbm5lY3Rvci1jdXJ2YXR1cmU9IjAiIHN0eWxlPSJmaWxsOm5vbmU7c3Ryb2tlOiNGRkZGRkY7c3Ryb2tlLXdpZHRoOjAuNzg7c3Ryb2tlLWxpbmVjYXA6cm91bmQ7c3Ryb2tlLWxpbmVqb2luOnJvdW5kO3N0cm9rZS1taXRlcmxpbWl0OjM7IiBkPSIgICAgIE0wLDIyNC45MWwzLjg0LTM3LjIiLz4mI3hhOwkJPC9nPiYjeGE7CQk8ZyBpZD0ic2hhcGU1NjE5LTU0IiB0cmFuc2Zvcm09InRyYW5zbGF0ZSg0OC42NTg3LC05Ni40ODA3KSI+JiN4YTsJCQk8dGl0bGUgaWQ9InRpdGxlMTAwNzEzIj5TaGVldC41NjE5PC90aXRsZT4mI3hhOwkJCTxwYXRoIGlkPSJwYXRoMTAwNzE1IiBpbmtzY2FwZTpjb25uZWN0b3ItY3VydmF0dXJlPSIwIiBzdHlsZT0iZmlsbDojRjA1MTI1OyIgZD0iTTAsMjIxLjQ5aDMuNDJ2My40MkgwVjIyMS40OXoiLz4mI3hhOwkJPC9nPiYjeGE7CQk8ZyBpZD0ic2hhcGU1NjIwLTU2IiB0cmFuc2Zvcm09InRyYW5zbGF0ZSg1Mi40OTg2LC05Ni40ODA3KSI+JiN4YTsJCQk8dGl0bGUgaWQ9InRpdGxlMTAwNzE4Ij5TaGVldC41NjIwPC90aXRsZT4mI3hhOwkJCTxwYXRoIGlkPSJwYXRoMTAwNzIwIiBpbmtzY2FwZTpjb25uZWN0b3ItY3VydmF0dXJlPSIwIiBzdHlsZT0iZmlsbDojN0ZCQjQyOyIgZD0iTTAsMjIxLjQ5aDMuNDJ2My40MkgwVjIyMS40OXoiLz4mI3hhOwkJPC9nPiYjeGE7CQk8ZyBpZD0ic2hhcGU1NjIxLTU4IiB0cmFuc2Zvcm09InRyYW5zbGF0ZSg1Mi40OTg2LC05Mi42NDA3KSI+JiN4YTsJCQk8dGl0bGUgaWQ9InRpdGxlMTAwNzIzIj5TaGVldC41NjIxPC90aXRsZT4mI3hhOwkJCTxwYXRoIGlkPSJwYXRoMTAwNzI1IiBpbmtzY2FwZTpjb25uZWN0b3ItY3VydmF0dXJlPSIwIiBzdHlsZT0iZmlsbDojRkRCODEzOyIgZD0iTTAsMjIxLjQ5aDMuNDJ2My40MkgwVjIyMS40OXoiLz4mI3hhOwkJPC9nPiYjeGE7CQk8ZyBpZD0ic2hhcGU1NjIyLTYwIiB0cmFuc2Zvcm09InRyYW5zbGF0ZSg0OC42NTg3LC05Mi42NDA3KSI+JiN4YTsJCQk8dGl0bGUgaWQ9InRpdGxlMTAwNzI4Ij5TaGVldC41NjIyPC90aXRsZT4mI3hhOwkJCTxwYXRoIGlkPSJwYXRoMTAwNzMwIiBpbmtzY2FwZTpjb25uZWN0b3ItY3VydmF0dXJlPSIwIiBzdHlsZT0iZmlsbDojMzJBMERBOyIgZD0iTTAsMjIxLjQ5aDMuNDJ2My40MkgwVjIyMS40OXoiLz4mI3hhOwkJPC9nPiYjeGE7CTwvZz4mI3hhOzwvZz4mI3hhOzwvc3ZnPg==;fontSize=20;fontColor=#004C99;fillColor=#9494FF;html=1;" vertex="1" parent="1">
          <mxGeometry x="246" y="466.97" width="52.93" height="62.03" as="geometry" />
        </mxCell>
        <mxCell id="JQ6tBwWLcFrwbUFlZFzO-2176" value="" style="arrow;html=1;endArrow=block;endFill=1;strokeColor=none;strokeWidth=4;fontFamily=Helvetica;fontSize=36;fontColor=#FFB366;fillColor=#FFB366;" edge="1" parent="1">
          <mxGeometry width="100" height="100" relative="1" as="geometry">
            <mxPoint x="172.5" y="399.08000000000004" as="sourcePoint" />
            <mxPoint x="226.5" y="399.58" as="targetPoint" />
          </mxGeometry>
        </mxCell>
        <mxCell id="JQ6tBwWLcFrwbUFlZFzO-2177" value="" style="arrow;html=1;endArrow=block;endFill=1;strokeColor=none;strokeWidth=4;fontFamily=Helvetica;fontSize=36;fontColor=#FFB366;fillColor=#FFB366;" edge="1" parent="1">
          <mxGeometry width="100" height="100" relative="1" as="geometry">
            <mxPoint x="135.03" y="492.5800000000001" as="sourcePoint" />
            <mxPoint x="215.03" y="492.5800000000001" as="targetPoint" />
          </mxGeometry>
        </mxCell>
        <mxCell id="JQ6tBwWLcFrwbUFlZFzO-2222" style="edgeStyle=orthogonalEdgeStyle;curved=1;rounded=0;orthogonalLoop=1;jettySize=auto;html=1;exitX=1;exitY=0.5;exitDx=0;exitDy=0;entryX=0.298;entryY=1.003;entryDx=0;entryDy=0;entryPerimeter=0;fontSize=12;fontColor=#004C99;startArrow=none;startFill=0;strokeColor=default;strokeWidth=2;fillColor=default;" edge="1" parent="1" source="JQ6tBwWLcFrwbUFlZFzO-2178" target="JQ6tBwWLcFrwbUFlZFzO-2138">
          <mxGeometry relative="1" as="geometry" />
        </mxCell>
        <mxCell id="JQ6tBwWLcFrwbUFlZFzO-2178" value="iSCSI" style="rounded=1;whiteSpace=wrap;html=1;dashed=1;strokeColor=none;strokeWidth=2;fillColor=#FFFFFF;fontFamily=Helvetica;fontSize=14;fontColor=#FFB366;opacity=75;verticalAlign=top;fontStyle=1" vertex="1" parent="1">
          <mxGeometry x="224.5" y="700" width="83" height="100.5" as="geometry" />
        </mxCell>
        <mxCell id="JQ6tBwWLcFrwbUFlZFzO-2179" value="iSCSI" style="verticalLabelPosition=bottom;html=1;verticalAlign=top;strokeColor=none;fillColor=#999900;shape=mxgraph.azure.azure_active_directory;dashed=1;fontFamily=Helvetica;fontSize=14;fontColor=#004C99" vertex="1" parent="1">
          <mxGeometry x="239.75" y="727.5" width="47.5" height="50" as="geometry" />
        </mxCell>
        <mxCell id="JQ6tBwWLcFrwbUFlZFzO-2180" value="Backup client" style="shape=image;verticalLabelPosition=bottom;labelBackgroundColor=none;verticalAlign=top;aspect=fixed;imageAspect=0;image=data:image/svg+xml,PHN2ZyB4bWxuczpjYz0iaHR0cDovL2NyZWF0aXZlY29tbW9ucy5vcmcvbnMjIiB4bWxuczpkYz0iaHR0cDovL3B1cmwub3JnL2RjL2VsZW1lbnRzLzEuMS8iIHhtbG5zOmlua3NjYXBlPSJodHRwOi8vd3d3Lmlua3NjYXBlLm9yZy9uYW1lc3BhY2VzL2lua3NjYXBlIiB4bWxuczpyZGY9Imh0dHA6Ly93d3cudzMub3JnLzE5OTkvMDIvMjItcmRmLXN5bnRheC1ucyMiIHhtbG5zOnNvZGlwb2RpPSJodHRwOi8vc29kaXBvZGkuc291cmNlZm9yZ2UubmV0L0RURC9zb2RpcG9kaS0wLmR0ZCIgeG1sbnM6c3ZnPSJodHRwOi8vd3d3LnczLm9yZy8yMDAwL3N2ZyIgeG1sbnM9Imh0dHA6Ly93d3cudzMub3JnLzIwMDAvc3ZnIiB4bWxuczp4bGluaz0iaHR0cDovL3d3dy53My5vcmcvMTk5OS94bGluayIgdmVyc2lvbj0iMS4xIiBpZD0ic3ZnMzY5MzQiIGlua3NjYXBlOnZlcnNpb249IjAuOTIuMyAoMjQwNTU0NiwgMjAxOC0wMy0xMSkiIHNvZGlwb2RpOmRvY25hbWU9InRhYmxldF80LnN2ZyIgeD0iMHB4IiB5PSIwcHgiIHZpZXdCb3g9IjAgMCAzOC41NyA1My45MiIgc3R5bGU9ImVuYWJsZS1iYWNrZ3JvdW5kOm5ldyAwIDAgMzguNTcgNTMuOTI7IiB4bWw6c3BhY2U9InByZXNlcnZlIj4mI3hhOzxzb2RpcG9kaTpuYW1lZHZpZXcgYm9yZGVyY29sb3I9IiM2NjY2NjYiIGJvcmRlcm9wYWNpdHk9IjEiIGZpdC1tYXJnaW4tYm90dG9tPSIwIiBmaXQtbWFyZ2luLWxlZnQ9IjAiIGZpdC1tYXJnaW4tcmlnaHQ9IjAiIGZpdC1tYXJnaW4tdG9wPSIwIiBncmlkdG9sZXJhbmNlPSIxMCIgZ3VpZGV0b2xlcmFuY2U9IjEwIiBpZD0ibmFtZWR2aWV3MzY5MzYiIGlua3NjYXBlOmN1cnJlbnQtbGF5ZXI9InN2ZzM2OTM0IiBpbmtzY2FwZTpjeD0iMjUuNzExMDA5IiBpbmtzY2FwZTpjeT0iMzUuOTQ4NDgxIiBpbmtzY2FwZTpwYWdlb3BhY2l0eT0iMCIgaW5rc2NhcGU6cGFnZXNoYWRvdz0iMiIgaW5rc2NhcGU6d2luZG93LWhlaWdodD0iMTAxNyIgaW5rc2NhcGU6d2luZG93LW1heGltaXplZD0iMSIgaW5rc2NhcGU6d2luZG93LXdpZHRoPSIxOTIwIiBpbmtzY2FwZTp3aW5kb3cteD0iLTgiIGlua3NjYXBlOndpbmRvdy15PSItOCIgaW5rc2NhcGU6em9vbT0iMTIuMDYwMTI2IiBvYmplY3R0b2xlcmFuY2U9IjEwIiBwYWdlY29sb3I9IiNmZmZmZmYiIHNob3dncmlkPSJmYWxzZSI+JiN4YTsJPC9zb2RpcG9kaTpuYW1lZHZpZXc+JiN4YTs8ZyBpZD0iZzM2OTMyIj4mI3hhOwk8dGl0bGUgaWQ9InRpdGxlMzY5MTIiPlBhZ2UtMTwvdGl0bGU+JiN4YTsJPGcgaWQ9Imdyb3VwMzI5NS0xIj4mI3hhOwkJPHRpdGxlIGlkPSJ0aXRsZTM2OTE0Ij5UYWJsZXQgIzQ8L3RpdGxlPiYjeGE7CQk8ZyBpZD0ic2hhcGUzMjk2LTIiPiYjeGE7CQkJPHRpdGxlIGlkPSJ0aXRsZTM2OTE2Ij5TaGVldC4zMjk2PC90aXRsZT4mI3hhOwkJCTxwYXRoIGlkPSJwYXRoMzY5MTgiIGlua3NjYXBlOmNvbm5lY3Rvci1jdXJ2YXR1cmU9IjAiIHN0eWxlPSJmaWxsOiMzRjU3NjU7IiBkPSJNMzYuMTIsMEMyLjY0LDAsMi42NCwwLDIuNjQsMCAgICAgQzEuMzQsMCwwLDAuODgsMCwyLjIyYzAsNTAuMjQsMCw0OS42NywwLDQ5LjY3YzAsMS4wMywxLjM0LDIuMDMsMi42NCwyLjAzYzMzLjQ4LDAsMzMuNDgsMCwzMy40OCwwYzEuMywwLDIuNDUtMSwyLjQ1LTIuMDMgICAgIGMwLTUwLjI4LDAtNDkuNjcsMC00OS42N0MzOC41NywwLjg4LDM3LjQyLDAsMzYuMTIsMHoiLz4mI3hhOwkJPC9nPiYjeGE7CQk8ZyBpZD0ic2hhcGUzMjk3LTQiIHRyYW5zZm9ybT0idHJhbnNsYXRlKDMuNjczLC0zLjY3NjE4KSI+JiN4YTsJCQk8dGl0bGUgaWQ9InRpdGxlMzY5MjEiPlNoZWV0LjMyOTc8L3RpdGxlPiYjeGE7CQkJPHBhdGggaWQ9InBhdGgzNjkyMyIgaW5rc2NhcGU6Y29ubmVjdG9yLWN1cnZhdHVyZT0iMCIgc3R5bGU9ImZpbGw6I0ZGRkZGRjsiIGQ9Ik0wLDYuNzRoMzEuMjJ2NDcuMThIMFY2Ljc0eiIvPiYjeGE7CQk8L2c+JiN4YTsJCTxnIGlkPSJzaGFwZTMyOTgtNiIgdHJhbnNmb3JtPSJ0cmFuc2xhdGUoMTIuMjQzMywtMS44MzgwOSkiPiYjeGE7CQkJPHRpdGxlIGlkPSJ0aXRsZTM2OTI2Ij5TaGVldC4zMjk4PC90aXRsZT4mI3hhOwkJCTxwYXRoIGlkPSJwYXRoMzY5MjgiIGlua3NjYXBlOmNvbm5lY3Rvci1jdXJ2YXR1cmU9IjAiIHN0eWxlPSJmaWxsOiNGRkZGRkY7IiBkPSJNMTMuODEsNTMuOTJjLTEzLjM1LDAtMTMuMzUsMC0xMy4zNSwwICAgICBDMC4xNSw1My45MiwwLDUzLjgsMCw1My42OWwwLDBjMC0wLjIzLDAuMTUtMC4zOSwwLjQ2LTAuMzljMTMuMzUsMCwxMy4zNSwwLDEzLjM1LDBjMC4xNiwwLDAuMjcsMC4xNiwwLjI3LDAuMzlsMCwwICAgICBDMTQuMDgsNTMuOCwxMy45Nyw1My45MiwxMy44MSw1My45MnoiLz4mI3hhOwkJPC9nPiYjeGE7CTwvZz4mI3hhOzwvZz4mI3hhOzwvc3ZnPg==;fontSize=20;fontColor=#004C99;fillColor=#9494FF;html=1;imageBackground=#999900;opacity=50;" vertex="1" parent="1">
          <mxGeometry x="94.75" y="820" width="39" height="54" as="geometry" />
        </mxCell>
        <mxCell id="JQ6tBwWLcFrwbUFlZFzO-2181" value="Compute" style="verticalLabelPosition=bottom;html=1;verticalAlign=top;strokeColor=none;fillColor=#009900;shape=mxgraph.azure.virtual_machine;dashed=1;fontSize=14;fontColor=#004C99" vertex="1" parent="1">
          <mxGeometry x="362" y="290.5" width="50" height="40" as="geometry" />
        </mxCell>
        <mxCell id="JQ6tBwWLcFrwbUFlZFzO-2224" style="edgeStyle=orthogonalEdgeStyle;curved=1;rounded=0;orthogonalLoop=1;jettySize=auto;html=1;exitX=1;exitY=0.75;exitDx=0;exitDy=0;entryX=0;entryY=0.885;entryDx=0;entryDy=0;entryPerimeter=0;fontSize=12;fontColor=#004C99;startArrow=none;startFill=0;strokeColor=default;strokeWidth=2;fillColor=default;" edge="1" parent="1" source="JQ6tBwWLcFrwbUFlZFzO-2183" target="JQ6tBwWLcFrwbUFlZFzO-2138">
          <mxGeometry relative="1" as="geometry" />
        </mxCell>
        <mxCell id="JQ6tBwWLcFrwbUFlZFzO-2183" value="S3 API" style="rounded=1;whiteSpace=wrap;html=1;dashed=1;strokeColor=none;strokeWidth=2;fillColor=#FFFFFF;fontFamily=Helvetica;fontSize=14;fontColor=#FFB366;opacity=75;verticalAlign=top;fontStyle=1" vertex="1" parent="1">
          <mxGeometry x="224.5" y="594.5" width="83" height="100.5" as="geometry" />
        </mxCell>
        <mxCell id="JQ6tBwWLcFrwbUFlZFzO-2184" value="OSTOR" style="verticalLabelPosition=bottom;html=1;verticalAlign=top;strokeColor=none;fillColor=#999900;shape=mxgraph.azure.azure_active_directory;dashed=1;fontFamily=Helvetica;fontSize=14;fontColor=#004C99" vertex="1" parent="1">
          <mxGeometry x="239.75" y="622" width="47.5" height="50" as="geometry" />
        </mxCell>
        <mxCell id="JQ6tBwWLcFrwbUFlZFzO-2185" value="" style="arrow;html=1;endArrow=block;endFill=1;strokeColor=none;strokeWidth=4;fontFamily=Helvetica;fontSize=36;fontColor=#FFB366;fillColor=#FFB366;entryX=0;entryY=0.5;entryDx=0;entryDy=0;" edge="1" parent="1" source="JQ6tBwWLcFrwbUFlZFzO-2187" target="JQ6tBwWLcFrwbUFlZFzO-2160">
          <mxGeometry width="100" height="100" relative="1" as="geometry">
            <mxPoint x="168" y="580.0000000000001" as="sourcePoint" />
            <mxPoint x="248" y="580.0000000000001" as="targetPoint" />
          </mxGeometry>
        </mxCell>
        <mxCell id="JQ6tBwWLcFrwbUFlZFzO-2186" value="" style="arrow;html=1;endArrow=block;endFill=1;strokeColor=none;strokeWidth=4;fontFamily=Helvetica;fontSize=36;fontColor=#FFB366;fillColor=#FFB366;entryX=-0.03;entryY=0.082;entryDx=0;entryDy=0;entryPerimeter=0;exitX=1;exitY=0.25;exitDx=0;exitDy=0;" edge="1" parent="1" source="JQ6tBwWLcFrwbUFlZFzO-2189" target="2059">
          <mxGeometry width="100" height="100" relative="1" as="geometry">
            <mxPoint x="175" y="205.0000000000002" as="sourcePoint" />
            <mxPoint x="255" y="205.0000000000002" as="targetPoint" />
          </mxGeometry>
        </mxCell>
        <mxCell id="JQ6tBwWLcFrwbUFlZFzO-2187" value="OpenStack client" style="shape=image;verticalLabelPosition=bottom;labelBackgroundColor=none;verticalAlign=top;aspect=fixed;imageAspect=0;image=data:image/svg+xml,PHN2ZyB4bWxuczpjYz0iaHR0cDovL2NyZWF0aXZlY29tbW9ucy5vcmcvbnMjIiB4bWxuczpkYz0iaHR0cDovL3B1cmwub3JnL2RjL2VsZW1lbnRzLzEuMS8iIHhtbG5zOmlua3NjYXBlPSJodHRwOi8vd3d3Lmlua3NjYXBlLm9yZy9uYW1lc3BhY2VzL2lua3NjYXBlIiB4bWxuczpyZGY9Imh0dHA6Ly93d3cudzMub3JnLzE5OTkvMDIvMjItcmRmLXN5bnRheC1ucyMiIHhtbG5zOnNvZGlwb2RpPSJodHRwOi8vc29kaXBvZGkuc291cmNlZm9yZ2UubmV0L0RURC9zb2RpcG9kaS0wLmR0ZCIgeG1sbnM6c3ZnPSJodHRwOi8vd3d3LnczLm9yZy8yMDAwL3N2ZyIgeG1sbnM9Imh0dHA6Ly93d3cudzMub3JnLzIwMDAvc3ZnIiB4bWxuczp4bGluaz0iaHR0cDovL3d3dy53My5vcmcvMTk5OS94bGluayIgdmVyc2lvbj0iMS4xIiBpZD0ic3ZnMzY5MzQiIGlua3NjYXBlOnZlcnNpb249IjAuOTIuMyAoMjQwNTU0NiwgMjAxOC0wMy0xMSkiIHNvZGlwb2RpOmRvY25hbWU9InRhYmxldF80LnN2ZyIgeD0iMHB4IiB5PSIwcHgiIHZpZXdCb3g9IjAgMCAzOC41NyA1My45MiIgc3R5bGU9ImVuYWJsZS1iYWNrZ3JvdW5kOm5ldyAwIDAgMzguNTcgNTMuOTI7IiB4bWw6c3BhY2U9InByZXNlcnZlIj4mI3hhOzxzb2RpcG9kaTpuYW1lZHZpZXcgYm9yZGVyY29sb3I9IiM2NjY2NjYiIGJvcmRlcm9wYWNpdHk9IjEiIGZpdC1tYXJnaW4tYm90dG9tPSIwIiBmaXQtbWFyZ2luLWxlZnQ9IjAiIGZpdC1tYXJnaW4tcmlnaHQ9IjAiIGZpdC1tYXJnaW4tdG9wPSIwIiBncmlkdG9sZXJhbmNlPSIxMCIgZ3VpZGV0b2xlcmFuY2U9IjEwIiBpZD0ibmFtZWR2aWV3MzY5MzYiIGlua3NjYXBlOmN1cnJlbnQtbGF5ZXI9InN2ZzM2OTM0IiBpbmtzY2FwZTpjeD0iMjUuNzExMDA5IiBpbmtzY2FwZTpjeT0iMzUuOTQ4NDgxIiBpbmtzY2FwZTpwYWdlb3BhY2l0eT0iMCIgaW5rc2NhcGU6cGFnZXNoYWRvdz0iMiIgaW5rc2NhcGU6d2luZG93LWhlaWdodD0iMTAxNyIgaW5rc2NhcGU6d2luZG93LW1heGltaXplZD0iMSIgaW5rc2NhcGU6d2luZG93LXdpZHRoPSIxOTIwIiBpbmtzY2FwZTp3aW5kb3cteD0iLTgiIGlua3NjYXBlOndpbmRvdy15PSItOCIgaW5rc2NhcGU6em9vbT0iMTIuMDYwMTI2IiBvYmplY3R0b2xlcmFuY2U9IjEwIiBwYWdlY29sb3I9IiNmZmZmZmYiIHNob3dncmlkPSJmYWxzZSI+JiN4YTsJPC9zb2RpcG9kaTpuYW1lZHZpZXc+JiN4YTs8ZyBpZD0iZzM2OTMyIj4mI3hhOwk8dGl0bGUgaWQ9InRpdGxlMzY5MTIiPlBhZ2UtMTwvdGl0bGU+JiN4YTsJPGcgaWQ9Imdyb3VwMzI5NS0xIj4mI3hhOwkJPHRpdGxlIGlkPSJ0aXRsZTM2OTE0Ij5UYWJsZXQgIzQ8L3RpdGxlPiYjeGE7CQk8ZyBpZD0ic2hhcGUzMjk2LTIiPiYjeGE7CQkJPHRpdGxlIGlkPSJ0aXRsZTM2OTE2Ij5TaGVldC4zMjk2PC90aXRsZT4mI3hhOwkJCTxwYXRoIGlkPSJwYXRoMzY5MTgiIGlua3NjYXBlOmNvbm5lY3Rvci1jdXJ2YXR1cmU9IjAiIHN0eWxlPSJmaWxsOiMzRjU3NjU7IiBkPSJNMzYuMTIsMEMyLjY0LDAsMi42NCwwLDIuNjQsMCAgICAgQzEuMzQsMCwwLDAuODgsMCwyLjIyYzAsNTAuMjQsMCw0OS42NywwLDQ5LjY3YzAsMS4wMywxLjM0LDIuMDMsMi42NCwyLjAzYzMzLjQ4LDAsMzMuNDgsMCwzMy40OCwwYzEuMywwLDIuNDUtMSwyLjQ1LTIuMDMgICAgIGMwLTUwLjI4LDAtNDkuNjcsMC00OS42N0MzOC41NywwLjg4LDM3LjQyLDAsMzYuMTIsMHoiLz4mI3hhOwkJPC9nPiYjeGE7CQk8ZyBpZD0ic2hhcGUzMjk3LTQiIHRyYW5zZm9ybT0idHJhbnNsYXRlKDMuNjczLC0zLjY3NjE4KSI+JiN4YTsJCQk8dGl0bGUgaWQ9InRpdGxlMzY5MjEiPlNoZWV0LjMyOTc8L3RpdGxlPiYjeGE7CQkJPHBhdGggaWQ9InBhdGgzNjkyMyIgaW5rc2NhcGU6Y29ubmVjdG9yLWN1cnZhdHVyZT0iMCIgc3R5bGU9ImZpbGw6I0ZGRkZGRjsiIGQ9Ik0wLDYuNzRoMzEuMjJ2NDcuMThIMFY2Ljc0eiIvPiYjeGE7CQk8L2c+JiN4YTsJCTxnIGlkPSJzaGFwZTMyOTgtNiIgdHJhbnNmb3JtPSJ0cmFuc2xhdGUoMTIuMjQzMywtMS44MzgwOSkiPiYjeGE7CQkJPHRpdGxlIGlkPSJ0aXRsZTM2OTI2Ij5TaGVldC4zMjk4PC90aXRsZT4mI3hhOwkJCTxwYXRoIGlkPSJwYXRoMzY5MjgiIGlua3NjYXBlOmNvbm5lY3Rvci1jdXJ2YXR1cmU9IjAiIHN0eWxlPSJmaWxsOiNGRkZGRkY7IiBkPSJNMTMuODEsNTMuOTJjLTEzLjM1LDAtMTMuMzUsMC0xMy4zNSwwICAgICBDMC4xNSw1My45MiwwLDUzLjgsMCw1My42OWwwLDBjMC0wLjIzLDAuMTUtMC4zOSwwLjQ2LTAuMzljMTMuMzUsMCwxMy4zNSwwLDEzLjM1LDBjMC4xNiwwLDAuMjcsMC4xNiwwLjI3LDAuMzlsMCwwICAgICBDMTQuMDgsNTMuOCwxMy45Nyw1My45MiwxMy44MSw1My45MnoiLz4mI3hhOwkJPC9nPiYjeGE7CTwvZz4mI3hhOzwvZz4mI3hhOzwvc3ZnPg==;fontSize=20;fontColor=#004C99;fillColor=#9494FF;html=1;imageBackground=#009900;opacity=50;" vertex="1" parent="1">
          <mxGeometry x="96.03" y="563" width="39" height="54" as="geometry" />
        </mxCell>
        <mxCell id="JQ6tBwWLcFrwbUFlZFzO-2188" value="S3 client" style="shape=image;verticalLabelPosition=bottom;labelBackgroundColor=none;verticalAlign=top;aspect=fixed;imageAspect=0;image=data:image/svg+xml,PHN2ZyB4bWxuczpjYz0iaHR0cDovL2NyZWF0aXZlY29tbW9ucy5vcmcvbnMjIiB4bWxuczpkYz0iaHR0cDovL3B1cmwub3JnL2RjL2VsZW1lbnRzLzEuMS8iIHhtbG5zOmlua3NjYXBlPSJodHRwOi8vd3d3Lmlua3NjYXBlLm9yZy9uYW1lc3BhY2VzL2lua3NjYXBlIiB4bWxuczpyZGY9Imh0dHA6Ly93d3cudzMub3JnLzE5OTkvMDIvMjItcmRmLXN5bnRheC1ucyMiIHhtbG5zOnNvZGlwb2RpPSJodHRwOi8vc29kaXBvZGkuc291cmNlZm9yZ2UubmV0L0RURC9zb2RpcG9kaS0wLmR0ZCIgeG1sbnM6c3ZnPSJodHRwOi8vd3d3LnczLm9yZy8yMDAwL3N2ZyIgeG1sbnM9Imh0dHA6Ly93d3cudzMub3JnLzIwMDAvc3ZnIiB4bWxuczp4bGluaz0iaHR0cDovL3d3dy53My5vcmcvMTk5OS94bGluayIgdmVyc2lvbj0iMS4xIiBpZD0ic3ZnMzY5MzQiIGlua3NjYXBlOnZlcnNpb249IjAuOTIuMyAoMjQwNTU0NiwgMjAxOC0wMy0xMSkiIHNvZGlwb2RpOmRvY25hbWU9InRhYmxldF80LnN2ZyIgeD0iMHB4IiB5PSIwcHgiIHZpZXdCb3g9IjAgMCAzOC41NyA1My45MiIgc3R5bGU9ImVuYWJsZS1iYWNrZ3JvdW5kOm5ldyAwIDAgMzguNTcgNTMuOTI7IiB4bWw6c3BhY2U9InByZXNlcnZlIj4mI3hhOzxzb2RpcG9kaTpuYW1lZHZpZXcgYm9yZGVyY29sb3I9IiM2NjY2NjYiIGJvcmRlcm9wYWNpdHk9IjEiIGZpdC1tYXJnaW4tYm90dG9tPSIwIiBmaXQtbWFyZ2luLWxlZnQ9IjAiIGZpdC1tYXJnaW4tcmlnaHQ9IjAiIGZpdC1tYXJnaW4tdG9wPSIwIiBncmlkdG9sZXJhbmNlPSIxMCIgZ3VpZGV0b2xlcmFuY2U9IjEwIiBpZD0ibmFtZWR2aWV3MzY5MzYiIGlua3NjYXBlOmN1cnJlbnQtbGF5ZXI9InN2ZzM2OTM0IiBpbmtzY2FwZTpjeD0iMjUuNzExMDA5IiBpbmtzY2FwZTpjeT0iMzUuOTQ4NDgxIiBpbmtzY2FwZTpwYWdlb3BhY2l0eT0iMCIgaW5rc2NhcGU6cGFnZXNoYWRvdz0iMiIgaW5rc2NhcGU6d2luZG93LWhlaWdodD0iMTAxNyIgaW5rc2NhcGU6d2luZG93LW1heGltaXplZD0iMSIgaW5rc2NhcGU6d2luZG93LXdpZHRoPSIxOTIwIiBpbmtzY2FwZTp3aW5kb3cteD0iLTgiIGlua3NjYXBlOndpbmRvdy15PSItOCIgaW5rc2NhcGU6em9vbT0iMTIuMDYwMTI2IiBvYmplY3R0b2xlcmFuY2U9IjEwIiBwYWdlY29sb3I9IiNmZmZmZmYiIHNob3dncmlkPSJmYWxzZSI+JiN4YTsJPC9zb2RpcG9kaTpuYW1lZHZpZXc+JiN4YTs8ZyBpZD0iZzM2OTMyIj4mI3hhOwk8dGl0bGUgaWQ9InRpdGxlMzY5MTIiPlBhZ2UtMTwvdGl0bGU+JiN4YTsJPGcgaWQ9Imdyb3VwMzI5NS0xIj4mI3hhOwkJPHRpdGxlIGlkPSJ0aXRsZTM2OTE0Ij5UYWJsZXQgIzQ8L3RpdGxlPiYjeGE7CQk8ZyBpZD0ic2hhcGUzMjk2LTIiPiYjeGE7CQkJPHRpdGxlIGlkPSJ0aXRsZTM2OTE2Ij5TaGVldC4zMjk2PC90aXRsZT4mI3hhOwkJCTxwYXRoIGlkPSJwYXRoMzY5MTgiIGlua3NjYXBlOmNvbm5lY3Rvci1jdXJ2YXR1cmU9IjAiIHN0eWxlPSJmaWxsOiMzRjU3NjU7IiBkPSJNMzYuMTIsMEMyLjY0LDAsMi42NCwwLDIuNjQsMCAgICAgQzEuMzQsMCwwLDAuODgsMCwyLjIyYzAsNTAuMjQsMCw0OS42NywwLDQ5LjY3YzAsMS4wMywxLjM0LDIuMDMsMi42NCwyLjAzYzMzLjQ4LDAsMzMuNDgsMCwzMy40OCwwYzEuMywwLDIuNDUtMSwyLjQ1LTIuMDMgICAgIGMwLTUwLjI4LDAtNDkuNjcsMC00OS42N0MzOC41NywwLjg4LDM3LjQyLDAsMzYuMTIsMHoiLz4mI3hhOwkJPC9nPiYjeGE7CQk8ZyBpZD0ic2hhcGUzMjk3LTQiIHRyYW5zZm9ybT0idHJhbnNsYXRlKDMuNjczLC0zLjY3NjE4KSI+JiN4YTsJCQk8dGl0bGUgaWQ9InRpdGxlMzY5MjEiPlNoZWV0LjMyOTc8L3RpdGxlPiYjeGE7CQkJPHBhdGggaWQ9InBhdGgzNjkyMyIgaW5rc2NhcGU6Y29ubmVjdG9yLWN1cnZhdHVyZT0iMCIgc3R5bGU9ImZpbGw6I0ZGRkZGRjsiIGQ9Ik0wLDYuNzRoMzEuMjJ2NDcuMThIMFY2Ljc0eiIvPiYjeGE7CQk8L2c+JiN4YTsJCTxnIGlkPSJzaGFwZTMyOTgtNiIgdHJhbnNmb3JtPSJ0cmFuc2xhdGUoMTIuMjQzMywtMS44MzgwOSkiPiYjeGE7CQkJPHRpdGxlIGlkPSJ0aXRsZTM2OTI2Ij5TaGVldC4zMjk4PC90aXRsZT4mI3hhOwkJCTxwYXRoIGlkPSJwYXRoMzY5MjgiIGlua3NjYXBlOmNvbm5lY3Rvci1jdXJ2YXR1cmU9IjAiIHN0eWxlPSJmaWxsOiNGRkZGRkY7IiBkPSJNMTMuODEsNTMuOTJjLTEzLjM1LDAtMTMuMzUsMC0xMy4zNSwwICAgICBDMC4xNSw1My45MiwwLDUzLjgsMCw1My42OWwwLDBjMC0wLjIzLDAuMTUtMC4zOSwwLjQ2LTAuMzljMTMuMzUsMCwxMy4zNSwwLDEzLjM1LDBjMC4xNiwwLDAuMjcsMC4xNiwwLjI3LDAuMzlsMCwwICAgICBDMTQuMDgsNTMuOCwxMy45Nyw1My45MiwxMy44MSw1My45MnoiLz4mI3hhOwkJPC9nPiYjeGE7CTwvZz4mI3hhOzwvZz4mI3hhOzwvc3ZnPg==;fontSize=20;fontColor=#004C99;fillColor=#9494FF;html=1;imageBackground=#999900;imageBorder=none;opacity=50;" vertex="1" parent="1">
          <mxGeometry x="94.75" y="652" width="39" height="54" as="geometry" />
        </mxCell>
        <mxCell id="JQ6tBwWLcFrwbUFlZFzO-2189" value="OpenStack client" style="shape=image;verticalLabelPosition=bottom;labelBackgroundColor=none;verticalAlign=top;aspect=fixed;imageAspect=0;image=data:image/svg+xml,PHN2ZyB4bWxuczpjYz0iaHR0cDovL2NyZWF0aXZlY29tbW9ucy5vcmcvbnMjIiB4bWxuczpkYz0iaHR0cDovL3B1cmwub3JnL2RjL2VsZW1lbnRzLzEuMS8iIHhtbG5zOmlua3NjYXBlPSJodHRwOi8vd3d3Lmlua3NjYXBlLm9yZy9uYW1lc3BhY2VzL2lua3NjYXBlIiB4bWxuczpyZGY9Imh0dHA6Ly93d3cudzMub3JnLzE5OTkvMDIvMjItcmRmLXN5bnRheC1ucyMiIHhtbG5zOnNvZGlwb2RpPSJodHRwOi8vc29kaXBvZGkuc291cmNlZm9yZ2UubmV0L0RURC9zb2RpcG9kaS0wLmR0ZCIgeG1sbnM6c3ZnPSJodHRwOi8vd3d3LnczLm9yZy8yMDAwL3N2ZyIgeG1sbnM9Imh0dHA6Ly93d3cudzMub3JnLzIwMDAvc3ZnIiB4bWxuczp4bGluaz0iaHR0cDovL3d3dy53My5vcmcvMTk5OS94bGluayIgdmVyc2lvbj0iMS4xIiBpZD0ic3ZnMzY5MzQiIGlua3NjYXBlOnZlcnNpb249IjAuOTIuMyAoMjQwNTU0NiwgMjAxOC0wMy0xMSkiIHNvZGlwb2RpOmRvY25hbWU9InRhYmxldF80LnN2ZyIgeD0iMHB4IiB5PSIwcHgiIHZpZXdCb3g9IjAgMCAzOC41NyA1My45MiIgc3R5bGU9ImVuYWJsZS1iYWNrZ3JvdW5kOm5ldyAwIDAgMzguNTcgNTMuOTI7IiB4bWw6c3BhY2U9InByZXNlcnZlIj4mI3hhOzxzb2RpcG9kaTpuYW1lZHZpZXcgYm9yZGVyY29sb3I9IiM2NjY2NjYiIGJvcmRlcm9wYWNpdHk9IjEiIGZpdC1tYXJnaW4tYm90dG9tPSIwIiBmaXQtbWFyZ2luLWxlZnQ9IjAiIGZpdC1tYXJnaW4tcmlnaHQ9IjAiIGZpdC1tYXJnaW4tdG9wPSIwIiBncmlkdG9sZXJhbmNlPSIxMCIgZ3VpZGV0b2xlcmFuY2U9IjEwIiBpZD0ibmFtZWR2aWV3MzY5MzYiIGlua3NjYXBlOmN1cnJlbnQtbGF5ZXI9InN2ZzM2OTM0IiBpbmtzY2FwZTpjeD0iMjUuNzExMDA5IiBpbmtzY2FwZTpjeT0iMzUuOTQ4NDgxIiBpbmtzY2FwZTpwYWdlb3BhY2l0eT0iMCIgaW5rc2NhcGU6cGFnZXNoYWRvdz0iMiIgaW5rc2NhcGU6d2luZG93LWhlaWdodD0iMTAxNyIgaW5rc2NhcGU6d2luZG93LW1heGltaXplZD0iMSIgaW5rc2NhcGU6d2luZG93LXdpZHRoPSIxOTIwIiBpbmtzY2FwZTp3aW5kb3cteD0iLTgiIGlua3NjYXBlOndpbmRvdy15PSItOCIgaW5rc2NhcGU6em9vbT0iMTIuMDYwMTI2IiBvYmplY3R0b2xlcmFuY2U9IjEwIiBwYWdlY29sb3I9IiNmZmZmZmYiIHNob3dncmlkPSJmYWxzZSI+JiN4YTsJPC9zb2RpcG9kaTpuYW1lZHZpZXc+JiN4YTs8ZyBpZD0iZzM2OTMyIj4mI3hhOwk8dGl0bGUgaWQ9InRpdGxlMzY5MTIiPlBhZ2UtMTwvdGl0bGU+JiN4YTsJPGcgaWQ9Imdyb3VwMzI5NS0xIj4mI3hhOwkJPHRpdGxlIGlkPSJ0aXRsZTM2OTE0Ij5UYWJsZXQgIzQ8L3RpdGxlPiYjeGE7CQk8ZyBpZD0ic2hhcGUzMjk2LTIiPiYjeGE7CQkJPHRpdGxlIGlkPSJ0aXRsZTM2OTE2Ij5TaGVldC4zMjk2PC90aXRsZT4mI3hhOwkJCTxwYXRoIGlkPSJwYXRoMzY5MTgiIGlua3NjYXBlOmNvbm5lY3Rvci1jdXJ2YXR1cmU9IjAiIHN0eWxlPSJmaWxsOiMzRjU3NjU7IiBkPSJNMzYuMTIsMEMyLjY0LDAsMi42NCwwLDIuNjQsMCAgICAgQzEuMzQsMCwwLDAuODgsMCwyLjIyYzAsNTAuMjQsMCw0OS42NywwLDQ5LjY3YzAsMS4wMywxLjM0LDIuMDMsMi42NCwyLjAzYzMzLjQ4LDAsMzMuNDgsMCwzMy40OCwwYzEuMywwLDIuNDUtMSwyLjQ1LTIuMDMgICAgIGMwLTUwLjI4LDAtNDkuNjcsMC00OS42N0MzOC41NywwLjg4LDM3LjQyLDAsMzYuMTIsMHoiLz4mI3hhOwkJPC9nPiYjeGE7CQk8ZyBpZD0ic2hhcGUzMjk3LTQiIHRyYW5zZm9ybT0idHJhbnNsYXRlKDMuNjczLC0zLjY3NjE4KSI+JiN4YTsJCQk8dGl0bGUgaWQ9InRpdGxlMzY5MjEiPlNoZWV0LjMyOTc8L3RpdGxlPiYjeGE7CQkJPHBhdGggaWQ9InBhdGgzNjkyMyIgaW5rc2NhcGU6Y29ubmVjdG9yLWN1cnZhdHVyZT0iMCIgc3R5bGU9ImZpbGw6I0ZGRkZGRjsiIGQ9Ik0wLDYuNzRoMzEuMjJ2NDcuMThIMFY2Ljc0eiIvPiYjeGE7CQk8L2c+JiN4YTsJCTxnIGlkPSJzaGFwZTMyOTgtNiIgdHJhbnNmb3JtPSJ0cmFuc2xhdGUoMTIuMjQzMywtMS44MzgwOSkiPiYjeGE7CQkJPHRpdGxlIGlkPSJ0aXRsZTM2OTI2Ij5TaGVldC4zMjk4PC90aXRsZT4mI3hhOwkJCTxwYXRoIGlkPSJwYXRoMzY5MjgiIGlua3NjYXBlOmNvbm5lY3Rvci1jdXJ2YXR1cmU9IjAiIHN0eWxlPSJmaWxsOiNGRkZGRkY7IiBkPSJNMTMuODEsNTMuOTJjLTEzLjM1LDAtMTMuMzUsMC0xMy4zNSwwICAgICBDMC4xNSw1My45MiwwLDUzLjgsMCw1My42OWwwLDBjMC0wLjIzLDAuMTUtMC4zOSwwLjQ2LTAuMzljMTMuMzUsMCwxMy4zNSwwLDEzLjM1LDBjMC4xNiwwLDAuMjcsMC4xNiwwLjI3LDAuMzlsMCwwICAgICBDMTQuMDgsNTMuOCwxMy45Nyw1My45MiwxMy44MSw1My45MnoiLz4mI3hhOwkJPC9nPiYjeGE7CTwvZz4mI3hhOzwvZz4mI3hhOzwvc3ZnPg==;fontSize=20;fontColor=#004C99;fillColor=#9494FF;html=1;imageBackground=#009900;opacity=50;" vertex="1" parent="1">
          <mxGeometry x="95.03" y="191" width="39" height="54" as="geometry" />
        </mxCell>
        <mxCell id="JQ6tBwWLcFrwbUFlZFzO-2190" value="" style="arrow;html=1;endArrow=block;endFill=1;strokeColor=none;strokeWidth=4;fontFamily=Helvetica;fontSize=36;fontColor=#FFB366;fillColor=#FFB366;entryX=0.006;entryY=0.281;entryDx=0;entryDy=0;entryPerimeter=0;exitX=1;exitY=0.25;exitDx=0;exitDy=0;" edge="1" parent="1" target="JQ6tBwWLcFrwbUFlZFzO-2120">
          <mxGeometry width="100" height="100" relative="1" as="geometry">
            <mxPoint x="328.0000000000007" y="436.6400000000001" as="sourcePoint" />
            <mxPoint x="536.6400000000001" y="437.885" as="targetPoint" />
          </mxGeometry>
        </mxCell>
        <mxCell id="JQ6tBwWLcFrwbUFlZFzO-2221" style="edgeStyle=orthogonalEdgeStyle;curved=1;rounded=0;orthogonalLoop=1;jettySize=auto;html=1;exitX=1;exitY=0.5;exitDx=0;exitDy=0;fontSize=12;fontColor=#004C99;startArrow=none;startFill=0;strokeColor=default;strokeWidth=2;fillColor=default;entryX=0;entryY=0.5;entryDx=0;entryDy=0;" edge="1" parent="1" source="JQ6tBwWLcFrwbUFlZFzO-2120" target="JQ6tBwWLcFrwbUFlZFzO-2103">
          <mxGeometry relative="1" as="geometry">
            <mxPoint x="806" y="487" as="sourcePoint" />
            <mxPoint x="877" y="863.75" as="targetPoint" />
          </mxGeometry>
        </mxCell>
        <mxCell id="JQ6tBwWLcFrwbUFlZFzO-2226" value="" style="shape=mxgraph.arrows.two_way_arrow_horizontal;html=1;verticalLabelPosition=bottom;verticalAlign=top;strokeWidth=2;strokeColor=none;dashed=1;fillColor=#FFFFFF;fontFamily=Verdana;fontSize=12;fontColor=#00BEF2" vertex="1" parent="1">
          <mxGeometry x="412" y="130.5" width="67" height="39" as="geometry" />
        </mxCell>
        <mxCell id="JQ6tBwWLcFrwbUFlZFzO-2100" value="coredns" style="shape=image;verticalLabelPosition=top;labelBackgroundColor=none;verticalAlign=bottom;aspect=fixed;imageAspect=0;image=data:image/svg+xml,PHN2ZyB4bWxuczpjYz0iaHR0cDovL2NyZWF0aXZlY29tbW9ucy5vcmcvbnMjIiB4bWxuczpkYz0iaHR0cDovL3B1cmwub3JnL2RjL2VsZW1lbnRzLzEuMS8iIHhtbG5zOmlua3NjYXBlPSJodHRwOi8vd3d3Lmlua3NjYXBlLm9yZy9uYW1lc3BhY2VzL2lua3NjYXBlIiB4bWxuczpyZGY9Imh0dHA6Ly93d3cudzMub3JnLzE5OTkvMDIvMjItcmRmLXN5bnRheC1ucyMiIHhtbG5zOnNvZGlwb2RpPSJodHRwOi8vc29kaXBvZGkuc291cmNlZm9yZ2UubmV0L0RURC9zb2RpcG9kaS0wLmR0ZCIgeG1sbnM6c3ZnPSJodHRwOi8vd3d3LnczLm9yZy8yMDAwL3N2ZyIgeG1sbnM9Imh0dHA6Ly93d3cudzMub3JnLzIwMDAvc3ZnIiB4bWxuczp4bGluaz0iaHR0cDovL3d3dy53My5vcmcvMTk5OS94bGluayIgdmVyc2lvbj0iMS4xIiBpZD0ic3ZnMTQ0OTk0IiBpbmtzY2FwZTp2ZXJzaW9uPSIwLjkyLjMgKDI0MDU1NDYsIDIwMTgtMDMtMTEpIiBzb2RpcG9kaTpkb2NuYW1lPSJkbnMuc3ZnIiB4PSIwcHgiIHk9IjBweCIgdmlld0JveD0iMCAwIDcyLjAxIDcyLjAxIiBzdHlsZT0iZW5hYmxlLWJhY2tncm91bmQ6bmV3IDAgMCA3Mi4wMSA3Mi4wMTsiIHhtbDpzcGFjZT0icHJlc2VydmUiPiYjeGE7PHNvZGlwb2RpOm5hbWVkdmlldyBib3JkZXJjb2xvcj0iIzY2NjY2NiIgYm9yZGVyb3BhY2l0eT0iMSIgZml0LW1hcmdpbi1ib3R0b209IjAiIGZpdC1tYXJnaW4tbGVmdD0iMCIgZml0LW1hcmdpbi1yaWdodD0iMCIgZml0LW1hcmdpbi10b3A9IjAiIGdyaWR0b2xlcmFuY2U9IjEwIiBndWlkZXRvbGVyYW5jZT0iMTAiIGlkPSJuYW1lZHZpZXcxNDQ5OTYiIGlua3NjYXBlOmN1cnJlbnQtbGF5ZXI9InN2ZzE0NDk5NCIgaW5rc2NhcGU6Y3g9IjQ2LjE2MTYzMSIgaW5rc2NhcGU6Y3k9IjQ5Ljg0NzM4IiBpbmtzY2FwZTpwYWdlb3BhY2l0eT0iMCIgaW5rc2NhcGU6cGFnZXNoYWRvdz0iMiIgaW5rc2NhcGU6d2luZG93LWhlaWdodD0iMTAxNyIgaW5rc2NhcGU6d2luZG93LW1heGltaXplZD0iMSIgaW5rc2NhcGU6d2luZG93LXdpZHRoPSIxOTIwIiBpbmtzY2FwZTp3aW5kb3cteD0iLTgiIGlua3NjYXBlOndpbmRvdy15PSItOCIgaW5rc2NhcGU6em9vbT0iOC41MjU1MTY2IiBvYmplY3R0b2xlcmFuY2U9IjEwIiBwYWdlY29sb3I9IiNmZmZmZmYiIHNob3dncmlkPSJmYWxzZSI+JiN4YTsJPC9zb2RpcG9kaTpuYW1lZHZpZXc+JiN4YTs8ZyBpZD0iZzE0NDk5MiIgdHJhbnNmb3JtPSJ0cmFuc2xhdGUoLTMuNTE1LC0zLjUxMDMpIj4mI3hhOwk8dGl0bGUgaWQ9InRpdGxlMTQ0OTU3Ij5QYWdlLTE8L3RpdGxlPiYjeGE7CTxnIGlkPSJncm91cDgzMzItMSIgdHJhbnNmb3JtPSJ0cmFuc2xhdGUoMCwtMC43NSkiPiYjeGE7CQk8dGl0bGUgaWQ9InRpdGxlMTQ0OTU5Ij5ETlM8L3RpdGxlPiYjeGE7CQk8ZyBpZD0ic2hhcGU4MzMzLTIiIHRyYW5zZm9ybT0idHJhbnNsYXRlKDMuNTE1MzcpIj4mI3hhOwkJCTx0aXRsZSBpZD0idGl0bGUxNDQ5NjEiPlNoZWV0LjgzMzM8L3RpdGxlPiYjeGE7CQkJPGNpcmNsZSBpZD0iZWxsaXBzZTE0NDk2MyIgc3R5bGU9ImZpbGw6IzAwNzJDNjsiIGN4PSIzNiIgY3k9IjQwLjI3IiByPSIzNiIvPiYjeGE7CQk8L2c+JiN4YTsJCTxnIGlkPSJzaGFwZTgzMzQtNCIgdHJhbnNmb3JtPSJ0cmFuc2xhdGUoMCwtMTAuNTQ0NykiPiYjeGE7CQkJPHRpdGxlIGlkPSJ0aXRsZTE0NDk2NiI+U2hlZXQuODMzNDwvdGl0bGU+JiN4YTsJCQk8cGF0aCBpZD0icGF0aDE0NDk2OCIgaW5rc2NhcGU6Y29ubmVjdG9yLWN1cnZhdHVyZT0iMCIgc3R5bGU9ImZpbGw6I0ZGRkZGRjtmaWxsLW9wYWNpdHk6MC4yOyIgZD0iTTE0LjA2LDc2LjI3ICAgICBDMCw2Mi4yMSwwLDM5LjQxLDE0LjA2LDI1LjM1czM2Ljg2LTE0LjA2LDUwLjkyLDBMMTQuMDYsNzYuMjd6Ii8+JiN4YTsJCTwvZz4mI3hhOwkJPGcgaWQ9InNoYXBlODMzNS02IiB0cmFuc2Zvcm09InRyYW5zbGF0ZSg2LjM5NTY0LC0zLjAxODUyKSI+JiN4YTsJCQk8dGl0bGUgaWQ9InRpdGxlMTQ0OTcxIj5TaGVldC44MzM1PC90aXRsZT4mI3hhOwkJCTxwYXRoIGlkPSJwYXRoMTQ0OTczIiBpbmtzY2FwZTpjb25uZWN0b3ItY3VydmF0dXJlPSIwIiBzdHlsZT0iZmlsbDojRkZGRkZGO2ZpbGwtb3BhY2l0eTowLjg7IiBkPSJNNjYuMjUsNDMuMjggICAgIGMwLTcuNDItMi41Mi0xNC41Ny03LjE2LTIwLjRsLTAuMjYtMC4yN2MtMC4xNC0wLjEzLTAuMTQtMC4yNi0wLjI3LTAuNGwtMi4xMi0yLjI1Yy02LjIzLTYuMzYtMTQuNDQtOS44LTIzLjMyLTkuOCAgICAgYzAsMCwwLDAtMC4xMywwaC0wLjEzYy04Ljc1LDAuMTMtMTYuODMsMy40NC0yMy4wNiw5LjY3bC0yLjI1LDIuMzhjLTAuMTMsMC4xNC0wLjEzLDAuMjctMC4yNiwwLjRsLTAuMjcsMC4xMyAgICAgQzIuNTIsMjguNTcsMCwzNS44NiwwLDQzLjI4czIuNTIsMTQuNTcsNy4xNSwyMC40bDAuMjcsMC4yN2MwLjEzLDAuMTMsMC4xMywwLjI2LDAuMjYsMC40TDkuOCw2Ni42ICAgICBjNi4yMyw2LjIzLDE0LjMxLDkuNjcsMjMuMDYsOS42N2gwLjEzYzAsMCwwLDAsMC4xMywwYzguNzUsMCwxNy4wOS0zLjQ0LDIzLjMyLTkuNjdsMi4xMi0yLjM5YzAuMTMtMC4xMywwLjEzLTAuMjYsMC4yNy0wLjM5ICAgICBsMC4yNi0wLjI3QzYzLjczLDU3Ljk5LDY2LjI1LDUwLjcsNjYuMjUsNDMuMjh6IE01Mi44NiwyMS42OGMtMC4xMywwLTAuMjYsMC4xNC0wLjM5LDAuMTRjLTAuMjcsMC4xMy0wLjUzLDAuMjYtMC42NywwLjI2ICAgICBjLTAuNTMsMC4yNy0xLjE5LDAuNC0xLjg1LDAuNjZjLTAuMTMsMC0wLjI3LDAuMTQtMC40LDAuMTRjLTAuNzksMC4yNi0xLjQ2LDAuMzktMi4yNSwwLjY2Yy0wLjEzLDAtMC40LDAuMTMtMC41MywwLjEzICAgICBjLTEuMTktMy4xOC0yLjY1LTUuOTYtNC4zNy04LjA4QzQ2LjI0LDE2Ljc4LDQ5LjgyLDE4LjksNTIuODYsMjEuNjh6IE0zMi44NiwxNGgwLjEzYzMuNTgsMCw3LjI5LDMuODQsOS45NCwxMC40NyAgICAgYy0zLjA1LDAuNTMtNi4zNiwwLjc5LTkuODEsMC43OWMtMy40NCwwLTYuODktMC4yNi0xMC4wNy0wLjc5QzI1LjU3LDE3Ljk3LDI5LjI4LDE0LjEzLDMyLjg2LDE0eiBNMjMuNDUsMTUuNzIgICAgIGMtMS41OSwyLjEyLTMuMDUsNC43Ny00LjI0LDcuOTVjLTAuMTMsMC0wLjEzLDAtMC4yNiwwYy0wLjgtMC4yNi0xLjU5LTAuNC0yLjI2LTAuNjZjLTAuMTMsMC0wLjI2LTAuMTMtMC4zOS0wLjEzICAgICBjLTAuNTMtMC4yNy0xLjItMC41My0xLjczLTAuOGMtMC4yNi0wLjEzLTAuMzktMC4xMy0wLjY2LTAuMjZjLTAuMTMtMC4xNC0wLjI2LTAuMTQtMC41My0wLjI3ICAgICBDMTYuNDMsMTkuMDMsMTkuNzQsMTYuOTEsMjMuNDUsMTUuNzJ6IE0xMy4zOCw2NC44OGMwLjEzLDAsMC4yNy0wLjE0LDAuNC0wLjE0YzAuMjYtMC4xMywwLjQtMC4xMywwLjY2LTAuMjYgICAgIGMwLjUzLTAuMjcsMS4xOS0wLjQsMS44Ni0wLjY2YzAuMTMsMCwwLjI2LTAuMTQsMC4zOS0wLjE0YzAuOC0wLjI2LDEuNDYtMC4zOSwyLjI2LTAuNjZjMC4xMywwLDAuMTMsMCwwLjI2LDAgICAgIGMxLjE5LDMuMDUsMi42NSw1LjgzLDQuMjQsNy45NUMxOS43NCw2OS42NSwxNi4zLDY3LjUzLDEzLjM4LDY0Ljg4eiBNMzIuOTksNzIuNTZoLTAuMTNjLTMuNTgtMC4xMy03LjI5LTMuODQtOS44MS0xMC4zMyAgICAgYzMuMTgtMC41Myw2LjYzLTAuOCwxMC4wNy0wLjhjMy40NSwwLDYuNjMsMC4yNyw5LjgxLDAuOEM0MC40MSw2OC43MiwzNi41Nyw3Mi41NiwzMi45OSw3Mi41NnogTTQyLjQsNzAuOTcgICAgIGMxLjcyLTIuMTIsMy4xOC00LjksNC4zNy04LjA4YzAuMTMsMCwwLjQsMC4xMywwLjUzLDAuMTNjMC43OSwwLjI3LDEuNTksMC40LDIuMjUsMC42NmMwLjEzLDAsMC4yNywwLjE0LDAuNCwwLjE0ICAgICBjMC42NiwwLjI2LDEuMTksMC4zOSwxLjg1LDAuNjZjMC4yNywwLjEzLDAuNCwwLjEzLDAuNjcsMC4yNmMwLjEzLDAsMC4yNiwwLjE0LDAuNTMsMC4yN0M0OS44Miw2Ny42Niw0Ni4yNCw2OS43OCw0Mi40LDcwLjk3eiAgICAgIE01NS43OCw2MS44M2MtMC40LDAtMC42Ni0wLjEzLTEuMDYtMC4yN2MtMC40LTAuMTMtMC45My0wLjM5LTEuMzMtMC41M2MtMC4xMywwLTAuMjYtMC4xMy0wLjM5LTAuMTMgICAgIGMtMS41OS0wLjY2LTMuMzItMS4wNi01LjA0LTEuNTljMC40LTEuNTksMC44LTMuMTgsMS4wNi00Ljc3aC0zLjk3Yy0wLjI3LDEuNDYtMC41MywyLjc4LTAuOTMsMy45OCAgICAgYy0zLjQ0LTAuNjctNy4xNS0wLjkzLTExLTAuOTNjLTMuOTcsMC03LjY4LDAuNC0xMS4yNiwxLjA2Yy0wLjQtMS4zMy0wLjY2LTIuNjUtMC45My00LjExaC0zLjk3YzAuMjYsMS43MiwwLjY2LDMuMzEsMS4wNiw0LjkgICAgIGMtMS41OSwwLjQtMy4xOCwwLjkzLTQuNjQsMS40NmMtMC4xMywwLjEzLTAuNCwwLjEzLTAuNTMsMC4yN2MtMC40LDAuMTMtMC45MywwLjM5LTEuMzIsMC41M2MtMC4yNywwLTAuNjcsMC4xMy0wLjkzLDAuMjYgICAgIGMtMy45OC00Ljc3LTYuMjMtMTAuNzMtNi42My0xNi44M2gzLjMydi0zLjg0SDMuOTdjMC40LTYuMDksMi42NS0xMS45Miw2LjUtMTYuNTZsMC4xMy0wLjEzYzAuMjYsMC4xMywwLjY2LDAuMjYsMC45MywwLjQgICAgIGMwLjUzLDAuMjYsMC45MiwwLjM5LDEuNDUsMC42NmMwLjE0LDAsMC4yNywwLjEzLDAuNCwwLjEzYzEuNDYsMC41MywzLjA1LDEuMDYsNC43NywxLjQ2Yy0wLjQsMS40Ni0wLjY2LDIuOTEtMC45Myw0LjM3aDMuOTggICAgIGMwLjI2LTEuMTksMC41My0yLjUyLDAuNzktMy41OGMzLjU4LDAuNjcsNy40MiwxLjA2LDExLjI3LDEuMDZjMy44NCwwLDcuNTUtMC4zOSwxMC45OS0wLjkyYzAuMjcsMS4wNiwwLjUzLDIuMjUsMC44LDMuNTdoMy45NyAgICAgYy0wLjI2LTEuNDUtMC41My0yLjkxLTAuOTMtNC4zN2MxLjczLTAuNCwzLjMyLTAuOTMsNC45MS0xLjU5YzAuMTMsMCwwLjM5LTAuMTMsMC41My0wLjEzYzAuNTMtMC4xMywwLjkyLTAuNCwxLjQ1LTAuNTMgICAgIGMwLjI3LTAuMTMsMC42Ny0wLjI3LDAuOTMtMC40YzMuODQsNC43Nyw2LjIzLDEwLjYsNi42MywxNi43aC0zLjk4djMuODRoMy45OEM2MS44Nyw1MS4yMyw1OS42Miw1Ny4xOSw1NS43OCw2MS44M3oiLz4mI3hhOwkJPC9nPiYjeGE7CQk8ZyBpZD0ic2hhcGU4MzM2LTgiIHRyYW5zZm9ybT0idHJhbnNsYXRlKDE2Ljk3OTIsLTI3LjQwNDMpIj4mI3hhOwkJCTx0aXRsZSBpZD0idGl0bGUxNDQ5NzYiPlNoZWV0LjgzMzY8L3RpdGxlPiYjeGE7CQkJPHBhdGggaWQ9InBhdGgxNDQ5NzgiIGlua3NjYXBlOmNvbm5lY3Rvci1jdXJ2YXR1cmU9IjAiIHN0eWxlPSJmaWxsOiNGRkZGRkY7IiBkPSJNMTQuMjIsNjcuNDZjMCwxLjU3LTAuMjEsMi45Mi0wLjYyLDQuMDMgICAgIGMtMC40MSwxLjEyLTEsMi4wMy0xLjc2LDIuNzNjLTAuNzcsMC43MS0xLjcsMS4yMy0yLjgsMS41NmMtMS4xLDAuMzMtMi40MSwwLjQ5LTMuOTIsMC40OUgxLjAzYy0wLjI5LDAtMC41NC0wLjA5LTAuNzMtMC4yNiAgICAgQzAuMSw3NS44NCwwLDc1LjU2LDAsNzUuMTdWNjAuMjVjMC0wLjM4LDAuMS0wLjY2LDAuMy0wLjgzYzAuMi0wLjE4LDAuNDQtMC4yNiwwLjczLTAuMjZoNC4zOWMxLjUzLDAsMi44MiwwLjE4LDMuODgsMC41MyAgICAgYzEuMDcsMC4zNiwxLjk2LDAuODksMi42OSwxLjU5czEuMjgsMS41NywxLjY2LDIuNlMxNC4yMiw2Ni4xMSwxNC4yMiw2Ny40NnogTTEwLjYyLDY3LjU4YzAtMC44MS0wLjA5LTEuNTYtMC4yOC0yLjI2ICAgICBjLTAuMTktMC43LTAuNS0xLjMtMC45Mi0xLjgxQzksNjMsOC40Nyw2Mi42LDcuODEsNjIuMzFjLTAuNjYtMC4yOS0xLjUyLTAuNDMtMi41OS0wLjQzSDMuNDZ2MTEuNjRoMS44MiAgICAgYzAuOTUsMCwxLjc1LTAuMTIsMi40LTAuMzdjMC42Ni0wLjI1LDEuMi0wLjYyLDEuNjQtMS4xMmMwLjQzLTAuNSwwLjc2LTEuMTIsMC45OC0xLjg2QzEwLjUxLDY5LjQzLDEwLjYyLDY4LjU3LDEwLjYyLDY3LjU4eiIvPiYjeGE7CQk8L2c+JiN4YTsJCTxnIGlkPSJzaGFwZTgzMzctMTAiIHRyYW5zZm9ybT0idHJhbnNsYXRlKDM0LjA1MiwtMjcuMzI1MSkiPiYjeGE7CQkJPHRpdGxlIGlkPSJ0aXRsZTE0NDk4MSI+U2hlZXQuODMzNzwvdGl0bGU+JiN4YTsJCQk8cGF0aCBpZD0icGF0aDE0NDk4MyIgaW5rc2NhcGU6Y29ubmVjdG9yLWN1cnZhdHVyZT0iMCIgc3R5bGU9ImZpbGw6I0ZGRkZGRjsiIGQ9Ik0xNC4xMSw3NC45OGMwLDAuMi0wLjAzLDAuMzgtMC4xLDAuNTQgICAgIGMtMC4wNywwLjE2LTAuMTcsMC4yOS0wLjI5LDAuNGMtMC4xMSwwLjEtMC4yNiwwLjE4LTAuNDIsMC4yM3MtMC4zMywwLjA3LTAuNSwwLjA3aC0xLjQ4Yy0wLjMxLDAtMC41Ny0wLjAzLTAuOC0wLjA5ICAgICBjLTAuMjItMC4wNi0wLjQzLTAuMTgtMC42Mi0wLjM0Yy0wLjE5LTAuMTYtMC4zNy0wLjM4LTAuNTUtMC42NmMtMC4xNy0wLjI4LTAuMzctMC42NC0wLjU5LTEuMDhsLTQuMjYtOCAgICAgYy0wLjI1LTAuNDgtMC41LTAuOTktMC43NS0xLjU0Yy0wLjI2LTAuNTUtMC40OS0xLjA5LTAuNjktMS42MUgzLjAzYzAuMDQsMC42NCwwLjA2LDEuMjcsMC4wOCwxLjkgICAgIGMwLjAyLDAuNjMsMC4wMywxLjI4LDAuMDMsMS45NXY4Ljk1YzAsMC4wOS0wLjAzLDAuMTctMC4wOCwwLjI0cy0wLjEzLDAuMTMtMC4yNSwwLjE4cy0wLjI4LDAuMDktMC40OCwwLjExICAgICBjLTAuMiwwLjAzLTAuNDcsMC4wNC0wLjc4LDAuMDRzLTAuNTctMC4wMS0wLjc3LTAuMDRzLTAuMzYtMC4wNi0wLjQ3LTAuMTFjLTAuMTItMC4wNS0wLjItMC4xMS0wLjI0LTAuMTggICAgIEMwLjAyLDc1Ljg3LDAsNzUuNzksMCw3NS43VjYwLjMyYzAtMC40MSwwLjEyLTAuNzIsMC4zNi0wLjkzczAuNTQtMC4zMSwwLjktMC4zMWgxLjg2YzAuMzMsMCwwLjYyLDAuMDIsMC44NSwwLjA4ICAgICBzMC40MywwLjE1LDAuNjEsMC4yOWMwLjE4LDAuMTMsMC4zNSwwLjMxLDAuNTEsMC41NWMwLjE2LDAuMjMsMC4zMiwwLjUyLDAuNDksMC44NmwzLjMzLDYuMjZjMC4xOSwwLjM4LDAuMzksMC43NSwwLjU4LDEuMTIgICAgIGMwLjE5LDAuMzYsMC4zNywwLjczLDAuNTUsMS4xYzAuMTcsMC4zNiwwLjM0LDAuNzIsMC41MSwxLjA3YzAuMTcsMC4zNiwwLjMzLDAuNzEsMC40OSwxLjA2aDAuMDEgICAgIGMtMC4wMi0wLjYyLTAuMDQtMS4yNi0wLjA2LTEuOTNjLTAuMDEtMC42Ny0wLjAxLTEuMzEtMC4wMS0xLjkydi04LjAzYzAtMC4wOCwwLjAyLTAuMTYsMC4wNy0wLjI0ICAgICBjMC4wNS0wLjA3LDAuMTQtMC4xMywwLjI3LTAuMThjMC4xMi0wLjA1LDAuMjgtMC4wOSwwLjQ5LTAuMTFjMC4yLTAuMDIsMC40Ni0wLjAzLDAuNzgtMC4wM2MwLjMsMCwwLjU1LDAuMDEsMC43NSwwLjAzICAgICBzMC4zNiwwLjA2LDAuNDcsMC4xMWMwLjExLDAuMDUsMC4xOSwwLjExLDAuMjMsMC4xOGMwLjA1LDAuMDgsMC4wNywwLjE1LDAuMDcsMC4yNEwxNC4xMSw3NC45OHoiLz4mI3hhOwkJPC9nPiYjeGE7CQk8ZyBpZD0ic2hhcGU4MzM4LTEyIiB0cmFuc2Zvcm09InRyYW5zbGF0ZSg1MC44NjQxLC0yNy4xMDA1KSI+JiN4YTsJCQk8dGl0bGUgaWQ9InRpdGxlMTQ0OTg2Ij5TaGVldC44MzM4PC90aXRsZT4mI3hhOwkJCTxwYXRoIGlkPSJwYXRoMTQ0OTg4IiBpbmtzY2FwZTpjb25uZWN0b3ItY3VydmF0dXJlPSIwIiBzdHlsZT0iZmlsbDojRkZGRkZGOyIgZD0iTTExLjE4LDcwLjg0YzAsMC45LTAuMTcsMS42OC0wLjUsMi4zNiAgICAgYy0wLjM0LDAuNjgtMC43OSwxLjI1LTEuMzcsMS43Yy0wLjU3LDAuNDYtMS4yNCwwLjgtMi4wMSwxLjAzYy0wLjc2LDAuMjMtMS41OSwwLjM0LTIuNDYsMC4zNGMtMC41OSwwLTEuMTQtMC4wNS0xLjY0LTAuMTQgICAgIGMtMC41MS0wLjEtMC45Ni0wLjIyLTEuMzUtMC4zNWMtMC4zOS0wLjE0LTAuNzEtMC4yOC0wLjk3LTAuNDRjLTAuMjYtMC4xNS0wLjQ1LTAuMjgtMC41Ni0wLjM5Yy0wLjEyLTAuMTItMC4yLTAuMjgtMC4yNS0wLjUgICAgIEMwLjAzLDc0LjI0LDAsNzMuOTIsMCw3My41MmMwLTAuMjgsMC4wMS0wLjUsMC4wMy0wLjY5YzAuMDEtMC4xOCwwLjA0LTAuMzMsMC4wOC0wLjQ1YzAuMDQtMC4xMSwwLjEtMC4xOSwwLjE2LTAuMjQgICAgIGMwLjA3LTAuMDUsMC4xNC0wLjA4LDAuMjMtMC4wOGMwLjEzLDAsMC4zLDAuMDgsMC41MywwLjIyYzAuMjIsMC4xNSwwLjUxLDAuMzEsMC44NiwwLjQ4YzAuMzYsMC4xOCwwLjc4LDAuMzQsMS4yNywwLjQ5ICAgICBjMC40OCwwLjE0LDEuMDUsMC4yMiwxLjY5LDAuMjJjMC40MywwLDAuODEtMC4wNiwxLjE0LTAuMTZjMC4zNC0wLjEsMC42Mi0wLjI0LDAuODUtMC40M2MwLjI0LTAuMTgsMC40MS0wLjQxLDAuNTQtMC42OCAgICAgYzAuMTItMC4yOCwwLjE5LTAuNTgsMC4xOS0wLjkyYzAtMC4zOS0wLjExLTAuNzItMC4zMi0xYy0wLjIxLTAuMjctMC40OS0wLjUyLTAuODMtMC43NGMtMC4zNC0wLjIxLTAuNzMtMC40Mi0xLjE2LTAuNjEgICAgIGMtMC40My0wLjE5LTAuODgtMC4zOS0xLjMzLTAuNmMtMC40Ni0wLjIxLTAuOTEtMC40NS0xLjM0LTAuNzJjLTAuNDMtMC4yNy0wLjgyLTAuNTktMS4xNS0wLjk3Yy0wLjM0LTAuMzctMC42Mi0wLjgxLTAuODMtMS4zMyAgICAgYy0wLjIyLTAuNTEtMC4zMi0xLjEyLTAuMzItMS44M2MwLTAuODIsMC4xNS0xLjU1LDAuNDYtMi4xN2MwLjMtMC42MiwwLjcxLTEuMTMsMS4yMy0xLjU1YzAuNTEtMC40MSwxLjEyLTAuNzEsMS44Mi0wLjkxICAgICBjMC43LTAuMjEsMS40NS0wLjMxLDIuMjMtMC4zMWMwLjQxLDAsMC44MSwwLjAzLDEuMjIsMC4wOWMwLjQsMC4wNywwLjc4LDAuMTUsMS4xMywwLjI2YzAuMzUsMC4xLDAuNjcsMC4yMiwwLjk0LDAuMzUgICAgIGMwLjI4LDAuMTQsMC40NiwwLjI0LDAuNTQsMC4zM2MwLjA5LDAuMDksMC4xNSwwLjE3LDAuMTgsMC4yM2MwLjAzLDAuMDYsMC4wNiwwLjE0LDAuMDgsMC4yNGMwLjAyLDAuMTEsMC4wNCwwLjIzLDAuMDUsMC4zOSAgICAgYzAsMC4xNSwwLjAxLDAuMzQsMC4wMSwwLjU3YzAsMC4yNi0wLjAxLDAuNDgtMC4wMiwwLjY1Yy0wLjAxLDAuMTgtMC4wNCwwLjMyLTAuMDcsMC40NGMtMC4wMywwLjExLTAuMDcsMC4yLTAuMTMsMC4yNSAgICAgcy0wLjEzLDAuMDgtMC4yMywwLjA4Yy0wLjEsMC0wLjI1LTAuMDYtMC40Ni0wLjE4Yy0wLjIyLTAuMTMtMC40OC0wLjI2LTAuNzgtMC40MWMtMC4zMS0wLjE0LTAuNjctMC4yOC0xLjA3LTAuNCAgICAgYy0wLjQxLTAuMTItMC44Ni0wLjE4LTEuMzQtMC4xOGMtMC4zOCwwLTAuNzEsMC4wNS0wLjk5LDAuMTRjLTAuMjgsMC4xLTAuNTIsMC4yMi0wLjcxLDAuMzljLTAuMTksMC4xNi0wLjMzLDAuMzYtMC40MiwwLjU5ICAgICBjLTAuMDksMC4yMy0wLjE0LDAuNDctMC4xNCwwLjcyYzAsMC4zOCwwLjEsMC43MSwwLjMxLDAuOTljMC4yMSwwLjI4LDAuNDksMC41MiwwLjgzLDAuNzRjMC4zNSwwLjIyLDAuNzUsMC40MiwxLjE5LDAuNjEgICAgIHMwLjg5LDAuMzksMS4zNSwwLjZzMC45MSwwLjQ1LDEuMzUsMC43MmMwLjQ0LDAuMjcsMC44MywwLjU5LDEuMTgsMC45N2MwLjM0LDAuMzcsMC42MiwwLjgxLDAuODMsMS4zMlMxMS4xOCw3MC4xNSwxMS4xOCw3MC44NHogICAgICIvPiYjeGE7CQk8L2c+JiN4YTsJPC9nPiYjeGE7PC9nPiYjeGE7PC9zdmc+;fontSize=12;fontColor=#004C99;html=1;labelPosition=center;align=center;" vertex="1" parent="1">
          <mxGeometry x="459.25" y="310.5" width="56.75" height="56.75" as="geometry" />
        </mxCell>
        <mxCell id="JQ6tBwWLcFrwbUFlZFzO-2228" style="edgeStyle=orthogonalEdgeStyle;curved=1;rounded=0;orthogonalLoop=1;jettySize=auto;html=1;entryX=0.25;entryY=0;entryDx=0;entryDy=0;fontSize=12;fontColor=#004C99;strokeColor=default;strokeWidth=2;fillColor=default;" edge="1" parent="1" source="2068" target="JQ6tBwWLcFrwbUFlZFzO-2160">
          <mxGeometry relative="1" as="geometry">
            <mxPoint x="338" y="490.5" as="sourcePoint" />
            <mxPoint x="521.46" y="505.3050000000003" as="targetPoint" />
          </mxGeometry>
        </mxCell>
        <mxCell id="JQ6tBwWLcFrwbUFlZFzO-2229" value="" style="arrow;html=1;endArrow=block;endFill=1;strokeColor=none;strokeWidth=4;fontFamily=Helvetica;fontSize=36;fontColor=#FFB366;fillColor=#FFB366;" edge="1" parent="1">
          <mxGeometry width="100" height="100" relative="1" as="geometry">
            <mxPoint x="133.7500000000002" y="672.9791720355215" as="sourcePoint" />
            <mxPoint x="230" y="672" as="targetPoint" />
          </mxGeometry>
        </mxCell>
        <mxCell id="JQ6tBwWLcFrwbUFlZFzO-2230" value="" style="arrow;html=1;endArrow=block;endFill=1;strokeColor=none;strokeWidth=4;fontFamily=Helvetica;fontSize=36;fontColor=#FFB366;fillColor=#FFB366;" edge="1" parent="1">
          <mxGeometry width="100" height="100" relative="1" as="geometry">
            <mxPoint x="135.03" y="762.4891720355215" as="sourcePoint" />
            <mxPoint x="231.28" y="761.51" as="targetPoint" />
          </mxGeometry>
        </mxCell>
        <mxCell id="JQ6tBwWLcFrwbUFlZFzO-2231" value="" style="arrow;html=1;endArrow=block;endFill=1;strokeColor=none;strokeWidth=4;fontFamily=Helvetica;fontSize=36;fontColor=#FFB366;fillColor=#FFB366;" edge="1" parent="1">
          <mxGeometry width="100" height="100" relative="1" as="geometry">
            <mxPoint x="133.75" y="855.4891720355215" as="sourcePoint" />
            <mxPoint x="230" y="854.51" as="targetPoint" />
          </mxGeometry>
        </mxCell>
      </root>
    </mxGraphModel>
  </diagram>
</mxfile>
